<svg width="848" height="274" viewBox="0 0 848 274" fill="none" xmlns="http://www.w3.org/2000/svg">
<path d="M45.1501 189.41C44.1501 188.79 43.1501 188.22 42.1501 187.61C40.3301 186.47 38.4868 185.357 36.6201 184.27C36.5609 184.107 36.5141 183.94 36.4801 183.77C36.2401 183 36.0101 182.25 35.8201 181.48C35.8201 181.32 35.7401 181.18 35.7101 181.04C35.6696 180.892 35.6395 180.742 35.6201 180.59L37.8101 176.86L39.1901 177.68L39.6001 177.91C40.3101 178.36 41.0101 178.77 41.7201 179.18C41.7201 179.39 41.8101 179.59 41.8801 179.86C42.1001 180.57 42.2901 181.32 42.5101 182.05C42.9401 183.44 43.4001 184.81 43.9001 186.15C44.2701 187.27 44.7001 188.34 45.1501 189.41Z" fill="white"/>
<path d="M54.2702 186.97C53.8702 187.54 53.5202 188.14 53.1602 188.73C52.9102 189.13 52.6402 189.55 52.4102 189.95C52.1802 190.35 51.9302 190.71 51.7102 191.11C51.3402 191.72 51.0002 192.29 50.6302 192.88L48.8802 191.76C47.6502 190.99 46.4102 190.19 45.1602 189.44C44.7102 188.37 44.2802 187.3 43.8902 186.21C43.3902 184.87 42.8902 183.5 42.5002 182.11C42.2802 181.38 42.0902 180.63 41.8702 179.92C41.8002 179.65 41.7502 179.45 41.7102 179.24C45.4202 181.47 49.0502 183.7 52.5102 185.93L54.2702 186.97Z" fill="white"/>
<path d="M119.32 239.62L116.98 242.17L116.39 242.7H114.64H113.11H112.54C111.08 241.18 109.54 239.7 108.01 238.2C107.17 237.38 106.36 236.59 105.52 235.79C103.85 234.18 102.15 232.6 100.4 231.04C99.88 230.56 99.4001 230.04 98.8701 229.63L97.8101 228.63L96.8101 227.72C96.2901 227.26 95.8101 226.79 95.2401 226.36C91.9401 223.42 88.51 220.54 85.05 217.74C84.49 217.31 83.96 216.89 83.42 216.44C83.05 216.14 82.6901 215.87 82.3401 215.57L81.25 214.71C80.69 214.26 80.16 213.85 79.6 213.42C76.32 210.87 73.02 208.42 69.7 205.95C69.15 205.54 68.5701 205.14 68.0201 204.75C67.6301 204.45 67.27 204.16 66.86 203.89C66.45 203.62 66.13 203.36 65.76 203.13C65.2 202.7 64.63 202.29 64.04 201.91C64.4534 201.337 64.8534 200.767 65.2401 200.2L66.04 199.06L66.85 197.92C67.27 197.36 67.67 196.79 68.08 196.24C68.65 196.63 69.24 197.02 69.79 197.43C70.17 197.68 70.54 197.99 70.92 198.24C71.3 198.49 71.6801 198.77 72.0601 199.06C72.6301 199.45 73.2 199.86 73.75 200.29C77.18 202.75 80.61 205.36 83.98 208C84.53 208.43 85.07 208.86 85.6 209.3C85.98 209.57 86.32 209.86 86.67 210.14L87.82 211.03L89.44 212.34C92.99 215.21 96.44 218.17 99.9 221.15L101.49 222.55L102.49 223.46C102.83 223.76 103.19 224.08 103.49 224.4C104.02 224.86 104.49 225.31 105.02 225.77C107.953 228.437 110.803 231.14 113.57 233.88C114.07 234.34 114.57 234.88 115.03 235.32C115.4 235.7 115.76 236.05 116.12 236.43C116.48 236.81 116.69 237 116.99 237.28L117.85 238.18L118.13 238.46L118.44 238.76L119.32 239.62Z" fill="white"/>
<path d="M43.8801 186.17L41.0801 184.46C39.7601 183.67 38.4401 182.87 37.0801 182.08L38.5101 179.69L39.8601 180.5C40.7401 181 41.5901 181.5 42.4701 182.06C42.9201 183.47 43.4201 184.84 43.8801 186.17Z" fill="white"/>
<path d="M116.42 239.67L115.47 240.67L114.47 241.6L111.27 238.39C110.5 237.62 109.75 236.89 108.97 236.12C105.81 233.05 102.55 230.02 99.2302 227.06C95.0702 223.33 90.7302 219.65 86.3202 216.06L84.7202 214.78C84.3402 214.47 83.9902 214.17 83.6102 213.88C83.2302 213.59 82.9002 213.31 82.5202 213.03C82.1402 212.75 81.4302 212.17 80.8802 211.74C77.6002 209.17 74.2402 206.64 70.8802 204.21L69.1702 202.98C68.7902 202.69 68.4002 202.43 68.0302 202.16C67.6602 201.89 67.2802 201.62 66.9002 201.37C66.3302 200.94 65.7602 200.55 65.1902 200.16L65.9902 199.02L66.8002 197.88L68.5302 199.09L69.6502 199.89L70.7802 200.71C71.3502 201.11 71.9202 201.54 72.4902 201.95C75.9035 204.43 79.2769 206.973 82.6102 209.58C83.1602 210.01 83.7202 210.44 84.2502 210.87L85.3202 211.73C85.7002 212.01 86.0702 212.32 86.4302 212.62C86.9802 213.05 87.5202 213.48 88.0502 213.92C92.5002 217.51 96.8702 221.22 101.05 224.97C105.23 228.72 109.3 232.52 113.19 236.39C113.9 237.09 114.6 237.78 115.3 238.51C115.7 238.9 116.07 239.29 116.42 239.67Z" fill="white"/>
<path d="M191.91 178.17C191.6 180.05 191.22 181.89 190.78 183.74C189.02 184.74 187.27 185.82 185.59 186.89L182.83 188.58L180.93 189.78C180.31 190.14 179.74 190.52 179.14 190.9L176.8 192.4L176.59 192.54C176.07 192.88 175.59 193.21 175.06 193.54C171.847 195.64 168.693 197.763 165.6 199.91C165.05 200.3 164.47 200.7 163.92 201.1C163.14 201.63 162.39 202.17 161.64 202.7L161.5 202.8C160.98 203.18 160.5 203.53 159.93 203.91C156.58 206.33 153.21 208.83 149.93 211.41C149.37 211.82 148.82 212.24 148.28 212.69L146.1 214.42C145.57 214.84 145.05 215.25 144.52 215.69C141.01 218.5 137.52 221.38 134.17 224.31C133.63 224.77 133.17 225.23 132.6 225.7C131.91 226.28 131.23 226.87 130.6 227.49C130.6 227.49 130.6 227.49 130.52 227.55C130 228 129.52 228.48 128.97 228.93C126.35 231.31 123.78 233.73 121.26 236.15C120.49 236.88 119.73 237.64 118.98 238.39C118.86 238.49 118.76 238.61 118.64 238.73C117.57 239.78 116.5 240.85 115.45 241.92L114.76 242.63C114.24 242.63 113.76 242.63 113.21 242.63L108.85 238.73L109.34 238.21L110.25 237.28L110.47 237.08C110.73 236.81 110.99 236.53 111.27 236.27L112.2 235.27C112.71 234.77 113.2 234.27 113.68 233.82C117.07 230.43 120.62 227.1 124.23 223.82C124.75 223.34 125.23 222.89 125.8 222.43L125.9 222.31C126.57 221.74 127.23 221.14 127.9 220.57C128.57 220 128.9 219.65 129.47 219.2C132.94 216.2 136.47 213.2 140.09 210.34C140.65 209.9 141.19 209.46 141.72 209.03C142.43 208.45 143.17 207.88 143.9 207.32C144.44 206.87 144.97 206.45 145.53 206.01C148.96 203.36 152.45 200.76 155.92 198.26C156.43 197.86 156.92 197.51 157.48 197.13C157.515 197.097 157.556 197.07 157.6 197.05L159.88 195.43C160.44 195.03 161.01 194.63 161.59 194.24C164.78 192.01 168.07 189.77 171.44 187.59C171.9 187.26 172.37 186.96 172.85 186.66C172.95 186.58 173.07 186.52 173.19 186.42C173.94 185.95 174.73 185.42 175.53 184.92L177.29 183.81C179.95 182.14 182.66 180.46 185.46 178.81C186.25 178.35 187.05 177.88 187.84 177.4L188.75 176.87L190.56 175.8L191.91 178.17Z" fill="white"/>
<path d="M113.84 240.55L111.76 238.69L111.86 238.59C116.72 233.59 121.86 228.7 127.23 223.93C132.28 219.41 137.58 214.93 142.97 210.69C148.1 206.59 153.38 202.61 158.64 198.86C163.52 195.38 168.64 191.86 173.93 188.44C178.93 185.18 184.28 181.88 189.77 178.63L191.19 181.03C185.74 184.26 180.44 187.54 175.45 190.78C170.22 194.18 165.11 197.67 160.26 201.13C155.04 204.86 149.8 208.81 144.7 212.87C139.35 217.11 134.1 221.53 129.09 226.01C123.8 230.74 118.67 235.63 113.84 240.55Z" fill="white"/>
<path d="M39.2402 67.34V70.46C39.0402 70.37 38.2402 69.96 37.1702 69.41C36.2602 68.91 35.3502 68.41 34.4402 67.98V67.93L35.6702 65.5C35.8599 65.6074 36.057 65.701 36.2602 65.78C36.5402 65.95 36.8302 66.11 37.1302 66.27C37.2679 66.3205 37.3989 66.3876 37.5202 66.47L37.8402 66.63L38.5002 66.99C38.7534 67.0923 39.0005 67.2092 39.2402 67.34V67.34Z" fill="#003038"/>
<path d="M134.15 138.58C133.6 139.01 133.03 139.44 132.49 139.9L130.97 138.4C130.76 138.17 130.55 137.98 130.31 137.76C129.87 137.31 129.44 136.9 128.98 136.44C128.48 135.98 127.98 135.5 127.46 135C128.03 134.57 128.55 134.12 129.1 133.69C129.62 134.19 130.1 134.69 130.62 135.16L131.78 136.26L132.65 137.12C133.17 137.6 133.65 138.1 134.15 138.58Z" fill="white"/>
<path d="M138.06 135.58C137.49 135.99 136.94 136.42 136.38 136.87L134.87 135.37C134.49 134.99 134.12 134.62 133.72 134.25C133.32 133.88 133.15 133.69 132.85 133.41C132.35 132.92 131.85 132.41 131.31 131.94C131.87 131.5 132.44 131.07 133.01 130.66C133.53 131.14 134.01 131.66 134.53 132.1L135.19 132.75C135.62 133.19 136.08 133.62 136.54 134.07C137.04 134.58 137.54 135.08 138.06 135.58Z" fill="white"/>
<path d="M148.79 154.17L150.16 155.76C149.59 156.17 149.05 156.58 148.48 157.01C148.04 156.47 147.56 155.94 147.11 155.42C146.856 155.155 146.619 154.875 146.4 154.58L145.25 153.31C144.79 152.78 144.31 152.31 143.84 151.74C144.41 151.33 144.95 150.9 145.52 150.49C145.98 151.01 146.47 151.49 146.93 152.06C147.39 152.63 147.63 152.83 147.93 153.21C148.23 153.59 148.52 153.86 148.79 154.17Z" fill="white"/>
<path d="M152.77 151.34C153.25 151.86 153.69 152.4 154.14 152.93C153.57 153.31 153.02 153.72 152.45 154.13C151.98 153.59 151.52 153.13 151.05 152.56C150.58 151.99 150.38 151.77 150.05 151.38C149.72 150.99 149.49 150.77 149.19 150.45C148.76 149.93 148.28 149.45 147.78 148.88C148.35 148.49 148.92 148.06 149.49 147.67C149.97 148.19 150.42 148.67 150.88 149.24L151.58 150.01C151.97 150.47 152.34 150.88 152.72 151.34H152.77Z" fill="white"/>
<path d="M163.65 172.72C164.1 173.3 164.51 173.87 164.88 174.44C164.31 174.79 163.74 175.19 163.17 175.58L161.94 173.92C161.67 173.58 161.42 173.24 161.17 172.92C160.92 172.6 160.58 172.12 160.26 171.73C159.85 171.14 159.44 170.61 159 170.05L160.73 168.88C161.15 169.43 161.58 169.98 161.99 170.54C162.3 170.93 162.56 171.3 162.87 171.7C163.18 172.1 163.42 172.35 163.65 172.72Z" fill="white"/>
<path d="M167.7 169.98C168.1 170.53 168.53 171.08 168.95 171.67C168.37 172.06 167.76 172.44 167.21 172.83C166.81 172.26 166.4 171.71 165.98 171.15C165.71 170.74 165.42 170.35 165.12 169.98C164.82 169.61 164.58 169.26 164.32 168.9C163.91 168.33 163.48 167.78 163.05 167.23L164.8 166.05L166.07 167.74L166.8 168.74C167.1 169.17 167.42 169.57 167.7 169.98Z" fill="white"/>
<path d="M176.22 191.39C176.41 191.73 176.61 192.05 176.81 192.39C176.742 192.447 176.668 192.497 176.59 192.54C176.08 192.88 175.59 193.21 175.06 193.54C174.86 193.18 174.65 192.83 174.43 192.47C174.21 192.11 174.13 191.99 173.97 191.76C173.49 190.94 172.97 190.15 172.51 189.38C172.15 188.77 171.77 188.2 171.4 187.63C171.85 187.29 172.33 186.98 172.79 186.7C172.908 186.623 173.022 186.54 173.13 186.45C173.49 187.06 173.86 187.64 174.25 188.23C174.74 189.02 175.25 189.8 175.72 190.59C175.9 190.86 176.06 191.17 176.22 191.39Z" fill="white"/>
<path d="M178.59 189.95L178.06 189.09C177.59 188.32 177.11 187.52 176.59 186.75C176.24 186.16 175.86 185.54 175.47 184.95L177.24 183.84C177.61 184.43 178 185.02 178.38 185.61C178.86 186.4 179.38 187.16 179.84 187.97C180.02 188.26 180.2 188.54 180.38 188.85C180.56 189.16 180.75 189.45 180.93 189.76C180.32 190.12 179.73 190.49 179.14 190.86C178.97 190.55 178.79 190.27 178.59 189.95Z" fill="white"/>
<path d="M185.75 198.09C185.55 198.51 185.36 198.94 185.16 199.37L184.52 200.66L184.46 200.76C184.46 200.82 184.39 200.87 184.37 200.92C184.35 200.97 184.27 201.12 184.21 201.21L180.61 203.21L179.61 201.39L179.48 201.17C179.09 200.46 178.68 199.76 178.27 199.05C178.48 198.66 178.73 198.25 178.93 197.82C179.106 197.515 179.266 197.201 179.41 196.88C179.91 195.88 180.41 194.88 180.8 193.81L181.8 191.4C182.26 192.16 182.69 192.89 183.16 193.66L185.67 198.1L185.75 198.09Z" fill="white"/>
<path d="M39.24 67.34V70.46C39.04 70.37 38.24 69.96 37.17 69.41L35.8 68.68C35.35 68.43 34.92 68.16 34.48 67.93L33 67.05V66.17L33.92 64.37C34.1733 64.51 34.4233 64.66 34.67 64.82L35.48 65.26L36.3 65.74C36.58 65.91 36.87 66.07 37.17 66.23C37.3077 66.2804 37.4387 66.3476 37.56 66.43L37.88 66.59L38.54 66.95C38.7805 67.0667 39.0142 67.1969 39.24 67.34V67.34Z" fill="#003038"/>
<path d="M183.86 199.03L181.42 200.37C181.15 199.92 180.92 199.46 180.63 199.01C180.24 198.29 179.85 197.56 179.42 196.83C179.92 195.83 180.42 194.83 180.81 193.76C181.28 194.51 181.7 195.22 182.12 195.96C182.73 196.98 183.3 198.01 183.86 199.03Z" fill="white"/>
<path d="M192.48 59.33L191.92 59.66C188.2 61.66 184.55 63.77 180.92 65.89C160.395 77.8242 140.907 91.4587 122.66 106.65C122.1 107.11 121.5 107.6 120.94 108.09C120.94 108.09 120.87 108.09 120.87 108.18C120.36 108.58 119.87 109.02 119.36 109.46C119.29 109.46 119.22 109.58 119.15 109.62C119.08 109.66 118.82 109.92 118.66 110.04L116.98 111.51C116.98 111.51 116.91 111.51 116.89 111.58C116.33 112.06 115.78 112.58 115.22 113.06C114.82 112.71 114.43 112.34 114.01 111.99C113.858 111.84 113.694 111.703 113.52 111.58C113.13 111.23 112.71 110.85 112.31 110.53C112.073 110.342 111.849 110.139 111.64 109.92C111.512 109.837 111.388 109.747 111.27 109.65C110.85 109.27 110.43 108.93 110.03 108.58C109.87 108.46 109.73 108.3 109.57 108.2C109.15 107.81 108.73 107.48 108.31 107.13C88.2806 90.4498 66.7639 75.6411 44.0301 62.89C40.6301 60.98 37.1901 59.08 33.7001 57.22C33.6101 57.15 33.4901 57.12 33.4001 57.05L34.0301 49.05C42.6968 53.61 51.1035 58.3534 59.2501 63.28C78.5112 74.8037 96.8226 87.845 114.01 102.28C114.4 102.61 114.8 102.96 115.19 103.28C115.19 103.28 115.24 103.28 115.26 103.23L116.33 102.3C116.54 102.11 116.78 101.95 116.98 101.76L118.98 100.11C134.183 87.4891 150.259 75.9603 167.09 65.61C175.09 60.61 183.38 55.8 191.94 51.17C192.08 51.08 192.2 51.03 192.36 50.94L192.48 59.33Z" fill="#A97C50"/>
<path d="M192.71 41.24L192.15 41.55C188.43 43.62 184.78 45.68 181.15 47.8C160.609 59.7248 141.11 73.3597 122.86 88.56L121.14 90C121.14 90 121.14 90.05 121.07 90.09C120.58 90.46 120.14 90.88 119.65 91.28C119.65 91.28 119.58 91.28 119.56 91.35C119.507 91.4227 119.434 91.4783 119.35 91.51C119.19 91.67 119.05 91.81 118.88 91.95L117.19 93.39C117.152 93.4181 117.118 93.4518 117.09 93.49L115.42 94.97L114.21 93.88C114.064 93.7414 113.911 93.6112 113.75 93.49C113.49 93.25 113.21 93 112.93 92.77L112.54 92.44C112.28 92.23 112.07 92.02 111.84 91.84C111.712 91.75 111.595 91.646 111.49 91.53C111.07 91.19 110.65 90.81 110.26 90.53C110.07 90.39 109.93 90.25 109.77 90.13C109.35 89.76 108.93 89.43 108.51 89.13C88.4935 72.4298 66.9752 57.6167 44.2301 44.88C43.5801 44.53 42.9501 44.16 42.3001 43.81C40.0901 42.56 37.8601 41.35 35.6001 40.14C35.0401 39.81 34.4901 39.51 33.9001 39.21C33.8079 39.1432 33.707 39.0893 33.6001 39.05L34.2501 31C34.7001 31.23 35.1601 31.47 35.6001 31.72C37.8601 32.91 40.0901 34.09 42.3001 35.33C48.1301 38.53 53.8801 41.84 59.4801 45.21C78.2471 56.4839 96.1168 69.1882 112.93 83.21L114.21 84.28C114.61 84.59 115 84.96 115.4 85.28C115.423 85.2876 115.447 85.2876 115.47 85.28C116.02 84.79 116.63 84.28 117.19 83.82C118 83.12 118.81 82.44 119.65 81.77C134.717 69.309 150.629 57.9051 167.27 47.64C175.31 42.64 183.593 37.8333 192.12 33.22C192.256 33.1357 192.396 33.0589 192.54 32.99L192.71 41.24Z" fill="#A97C50"/>
<path d="M37.17 91.91C37.87 92.25 38.54 92.63 39.24 93V100.94C38.56 100.57 37.88 100.16 37.17 99.82C35.96 99.16 34.73 98.48 33.46 97.82L33 97.59V94.17L34.85 90.62L36.73 91.62L37.17 91.87V91.91Z" fill="#003038"/>
<path d="M175.24 214.7L174.24 215.88L173.24 217.02C173.19 217.09 173.1 217.15 173.03 217.25L169.8 219.25L168.71 217.46L168.07 216.46C167.71 215.83 167.34 215.24 166.94 214.64C164.77 211.14 162.37 207.57 159.88 204.02C159.7 203.75 159.5 203.45 159.29 203.16C159.08 202.87 158.91 202.61 158.7 202.32C158.16 201.56 157.63 200.81 157.07 200.06C156.65 199.5 156.25 198.95 155.84 198.38C153.08 194.67 150.18 190.97 147.19 187.38C146.76 186.85 146.31 186.33 145.87 185.79L145.06 184.79C144.74 184.4 144.42 184.02 144.06 183.63C143.62 183.1 143.15 182.58 142.69 182.05C139.26 178.05 135.69 174.05 131.82 170.12C131.36 169.62 130.87 169.12 130.37 168.62C130.14 168.36 129.87 168.11 129.62 167.82C129.37 167.53 128.8 167.04 128.41 166.64L126.93 165.14C123.22 161.49 119.4 157.86 115.47 154.35C114.95 153.86 114.47 153.42 113.92 152.94C113.69 152.7 113.42 152.51 113.19 152.26C112.71 151.87 112.28 151.47 111.81 151.1C111.27 150.6 110.75 150.15 110.22 149.71C110.74 149.23 111.27 148.71 111.79 148.3C112.31 147.89 112.72 147.46 113.2 147.07L113.9 146.42C114.43 145.98 114.97 145.5 115.5 145.05C116.05 145.5 116.57 145.98 117.11 146.42C117.34 146.66 117.57 146.85 117.82 147.07L119.21 148.3C119.71 148.74 120.21 149.23 120.77 149.73C124.77 153.31 128.64 157.01 132.37 160.73L133.88 162.23C134.12 162.48 134.35 162.73 134.62 162.98C135.01 163.39 135.42 163.82 135.83 164.23C136.24 164.64 136.83 165.23 137.29 165.73C141.11 169.73 144.81 173.78 148.29 177.86C148.75 178.38 149.2 178.92 149.64 179.45L150.41 180.36C150.77 180.79 151.11 181.2 151.41 181.59C151.87 182.15 152.32 182.66 152.76 183.22C155.76 186.89 158.76 190.66 161.49 194.43C161.94 194.98 162.33 195.53 162.72 196.1C163.31 196.87 163.85 197.62 164.38 198.37L164.97 199.21C165.182 199.49 165.379 199.78 165.56 200.08C167.72 203.14 169.77 206.17 171.72 209.2C172.11 209.81 172.48 210.45 172.89 211.06C173.5 212.06 174.07 212.96 174.66 213.93L175.24 214.7Z" fill="white"/>
<path d="M37.1702 94.27L39.2402 95.37V98.53C38.5402 98.18 37.8702 97.8 37.1702 97.43L34.4202 95.96L35.7202 93.5C36.2102 93.75 36.6902 94.02 37.1702 94.27Z" fill="#003038"/>
<path d="M172.92 214.88L170.52 216.33L169.6 214.81C169.22 214.2 168.83 213.59 168.45 212.97C166.13 209.31 163.65 205.58 161.03 201.87C156.6 195.6 151.79 189.38 146.7 183.34C142.58 178.44 138.15 173.51 133.49 168.67C133.01 168.17 132.49 167.67 132.03 167.16L131.14 166.25L128.57 163.68C124.85 160 121.02 156.36 117.07 152.82C116.55 152.34 116.07 151.82 115.5 151.41C115.2 151.13 114.88 150.84 114.57 150.58C114.26 150.32 113.77 149.88 113.38 149.58C112.84 149.1 112.32 148.63 111.79 148.19C112.25 147.78 112.72 147.35 113.2 146.96L113.9 146.31C114.43 146.76 114.97 147.22 115.5 147.71C115.82 147.97 116.13 148.24 116.43 148.51C116.73 148.78 117.23 149.22 117.63 149.58C118.03 149.94 118.63 150.53 119.2 150.99C123.14 154.58 127 158.24 130.73 161.99L132.22 163.47C132.53 163.76 132.81 164.06 133.12 164.36C133.43 164.66 133.83 165.09 134.19 165.47C134.55 165.85 135.19 166.47 135.65 166.99C140.29 171.82 144.72 176.73 148.82 181.64C153.96 187.72 158.82 194.02 163.3 200.34C165.8 203.86 168.15 207.34 170.36 210.87C170.76 211.48 171.15 212.1 171.51 212.71C172.01 213.4 172.47 214.17 172.92 214.88Z" fill="white"/>
<path d="M83.2 148.86C82.72 149.38 82.27 149.92 81.79 150.43C81.52 150.74 81.23 151.06 80.97 151.38C80.71 151.7 80.29 152.15 79.97 152.52C79.51 153.05 79.0801 153.57 78.6201 154.11C78.0601 153.7 77.49 153.31 76.92 152.91C64.7947 144.336 52.2383 136.389 39.3 129.1V121.17C53.8788 129.182 67.9885 138.02 81.5601 147.64C82.0701 148.04 82.64 148.47 83.2 148.86Z" fill="white"/>
<path d="M39.24 121.17V129.11C38.54 128.74 37.87 128.35 37.17 127.99C35.92 127.3 34.66 126.58 33.41 125.9L33 125.69V122.32L34.92 118.78L36.74 119.78C36.8889 119.85 37.0326 119.93 37.17 120.02V120.02C37.87 120.36 38.54 120.77 39.24 121.17Z" fill="white"/>
<path d="M161.78 227.53L161.07 228.03C160.82 228.19 160.6 228.37 160.35 228.53C159.89 228.87 159.35 229.21 158.91 229.53L156.07 231.53L155.98 231.44L154.89 229.84C154.48 229.21 154.04 228.62 153.61 228.02L152.42 226.27C149.87 222.73 147.21 219.22 144.48 215.77C144.25 215.52 144.07 215.25 143.88 215.02C143.69 214.79 143.43 214.45 143.16 214.15C142.57 213.43 142 212.7 141.39 211.97C140.95 211.45 140.52 210.9 140.06 210.38C137.2 206.96 134.24 203.6 131.27 200.38C130.79 199.84 130.35 199.38 129.85 198.86C129.56 198.56 129.28 198.26 128.99 197.94C128.7 197.62 128.28 197.19 127.99 196.81C127.7 196.43 126.99 195.81 126.54 195.31C123.03 191.64 119.37 188.01 115.6 184.48C115.1 183.98 114.6 183.48 114.07 183.05C113.8 182.78 113.51 182.53 113.25 182.27C112.82 181.89 112.42 181.5 112.03 181.14C111.64 180.78 111.03 180.2 110.48 179.75C106.84 176.417 103.093 173.173 99.2401 170.02C98.7201 169.58 98.1601 169.13 97.6301 168.7C97.3601 168.45 97.0801 168.26 96.8101 168.03C96.3601 167.65 95.9401 167.31 95.4901 166.96C95.0401 166.61 94.4001 166.08 93.8501 165.62C94.3301 165.14 94.7901 164.62 95.3101 164.12C95.8301 163.62 96.1101 163.28 96.5201 162.87L97.2601 162.12C97.7601 161.64 98.2601 161.12 98.7401 160.62C99.2901 161.07 99.8601 161.51 100.4 161.96C100.67 162.19 100.95 162.39 101.2 162.62L102.56 163.73C103.1 164.19 103.64 164.62 104.17 165.06C108.077 168.293 111.89 171.627 115.61 175.06C116.13 175.49 116.61 175.97 117.15 176.47C117.43 176.7 117.72 176.95 117.99 177.2C118.26 177.45 118.82 177.97 119.22 178.35C119.76 178.84 120.22 179.3 120.74 179.8C124.56 183.39 128.29 187.08 131.86 190.8C132.32 191.3 132.81 191.8 133.29 192.32C133.55 192.63 133.82 192.88 134.09 193.18C134.36 193.48 134.84 193.95 135.2 194.34L136.62 195.88C139.62 199.18 142.62 202.6 145.56 206.08L146.89 207.69C147.49 208.41 148.06 209.12 148.65 209.85C148.88 210.13 149.11 210.4 149.33 210.69L149.95 211.47C152.79 215.04 155.58 218.72 158.2 222.4C158.63 222.99 159.04 223.55 159.41 224.12C159.78 224.69 160.25 225.26 160.64 225.87L161.82 227.53H161.78Z" fill="white"/>
<path d="M39.2401 123.54V126.71C38.5601 126.32 37.8701 125.95 37.1701 125.57C36.2401 125.05 35.3301 124.57 34.4001 124.04L35.7401 121.59C36.2201 121.86 36.7401 122.11 37.1701 122.38C37.8701 122.75 38.5601 123.17 39.2401 123.54Z" fill="white"/>
<path d="M98.6201 160.57C98.1401 161.07 97.6201 161.57 97.1401 162.07L96.4001 162.82C95.9901 163.23 95.5701 163.66 95.1901 164.07C94.8101 164.48 94.1901 165.07 93.7301 165.57C90.1601 162.75 86.4501 159.91 82.5201 157.02C81.9701 156.59 81.4301 156.18 80.8601 155.77C81.2901 155.25 81.7501 154.77 82.2201 154.2C82.4901 153.88 82.7801 153.56 83.0401 153.2L84.0401 152.07C84.4901 151.54 84.9701 151.02 85.4501 150.5C86.0201 150.89 86.5801 151.32 87.1301 151.73C91.1901 154.73 94.9601 157.64 98.6201 160.57Z" fill="white"/>
<path d="M158.87 227.03L156.59 228.62C156.18 228.03 155.78 227.46 155.35 226.87C154.92 226.28 154.57 225.75 154.14 225.18C151.373 221.32 148.477 217.5 145.45 213.72C140.68 207.78 135.63 201.98 130.45 196.48C126.16 191.91 121.65 187.39 117.01 183.02C116.51 182.54 116.01 182.02 115.47 181.59C115.17 181.29 114.85 180.99 114.53 180.7L113.42 179.7C112.9 179.22 112.42 178.76 111.85 178.29C108.19 174.96 104.41 171.67 100.57 168.51C100.03 168.05 99.5001 167.6 98.9401 167.18C98.6201 166.89 98.3001 166.64 97.9401 166.37L96.7501 165.37C96.2101 164.92 95.6701 164.49 95.1201 164.05C95.5001 163.64 95.9201 163.21 96.3301 162.8L97.0701 162.05C97.6201 162.5 98.1701 162.92 98.7101 163.37L99.7101 164.17L100.89 165.17C101.44 165.6 101.98 166.05 102.51 166.51C106.38 169.71 110.2 173.01 113.9 176.38C114.42 176.83 114.9 177.31 115.45 177.79L116.4 178.65L117.5 179.65C118.02 180.12 118.5 180.65 119.02 181.1C123.66 185.45 128.18 189.97 132.46 194.54C137.67 200.07 142.76 205.93 147.58 211.94C150.58 215.76 153.58 219.67 156.41 223.59C156.82 224.17 157.23 224.72 157.62 225.29C158.01 225.86 158.48 226.46 158.87 227.03Z" fill="white"/>
<path d="M39.24 149.38V157.43C38.54 157.02 37.87 156.59 37.17 156.23C35.92 155.49 34.66 154.78 33.39 154.07L33 153.83V150.47L35 146.95L36.82 147.95L37.21 148.16C37.87 148.58 38.54 148.99 39.24 149.38Z" fill="white"/>
<path d="M67.9601 167.24C67.5301 167.8 67.1201 168.35 66.7101 168.9C66.5732 169.059 66.4463 169.226 66.33 169.4L65.89 169.98C65.6 170.37 65.31 170.74 65.03 171.15C64.75 171.56 64.21 172.26 63.82 172.83C63.27 172.44 62.6801 172.05 62.0901 171.67C54.7501 166.73 47.09 161.96 39.28 157.43V149.38C48.58 154.66 57.63 160.27 66.28 166.05L67.9601 167.24Z" fill="white"/>
<path d="M143.93 236.17L140.99 238.54C140.858 238.6 140.721 238.647 140.58 238.68C139.77 238.95 138.99 239.22 138.17 239.47L137.77 239.59L137.2 238.88C136.453 237.953 135.683 237.013 134.89 236.06C134.41 235.47 133.89 234.9 133.41 234.31C131.97 232.56 130.41 230.81 128.88 229.08C128.66 228.85 128.47 228.64 128.29 228.42C128.11 228.2 127.74 227.83 127.49 227.53C126.84 226.83 126.22 226.14 125.6 225.46L124.17 223.92C121.33 220.87 118.42 217.87 115.51 214.98C115.01 214.5 114.51 213.98 114.01 213.54C113.73 213.22 113.39 212.91 113.08 212.61C112.77 212.31 112.37 211.93 112.01 211.61C111.5 211.11 111.01 210.61 110.5 210.17C107.03 206.86 103.5 203.63 99.81 200.42L98.24 199.08C97.92 198.83 97.63 198.52 97.29 198.27C96.95 198.02 96.52 197.63 96.13 197.27C95.62 196.85 95.06 196.36 94.53 195.94C91.1 193.08 87.53 190.21 83.82 187.35C83.28 186.92 82.73 186.5 82.18 186.08L81.18 185.32C80.76 185.01 80.35 184.71 79.94 184.39C79.53 184.07 78.8 183.53 78.25 183.14L79.57 181.53C79.92 181.13 80.26 180.72 80.57 180.29C80.84 180.01 81.07 179.71 81.36 179.4C81.79 178.87 82.27 178.33 82.72 177.8L84.39 179.04L85.34 179.76C85.78 180.08 86.19 180.4 86.6 180.76C87.16 181.17 87.71 181.61 88.25 182.03C92.07 184.95 95.72 187.93 99.25 190.86L100.86 192.2C101.16 192.47 101.46 192.72 101.77 192.98C102.08 193.24 102.59 193.66 102.98 193.98C103.37 194.3 104.05 194.89 104.57 195.35C108.33 198.62 111.98 201.96 115.49 205.28C116.01 205.78 116.49 206.28 116.99 206.74C117.31 207.04 117.62 207.35 117.92 207.61C118.22 207.87 118.63 208.33 119.03 208.69C119.43 209.05 120.03 209.69 120.51 210.17C123.51 213.11 126.51 216.17 129.36 219.32C129.86 219.84 130.36 220.32 130.79 220.84C131.43 221.54 132.04 222.21 132.66 222.91C132.91 223.19 133.18 223.48 133.43 223.78C133.68 224.08 133.85 224.23 134.05 224.46C136.33 226.99 138.51 229.53 140.55 232.03C141.04 232.61 141.48 233.16 141.93 233.73C142.16 233.98 142.38 234.27 142.59 234.53L143.93 236.17Z" fill="white"/>
<path d="M39.2402 151.79V155C38.5402 154.59 37.8702 154.2 37.1702 153.81L34.4202 152.24L35.7702 149.79L37.2002 150.61C37.8702 150.99 38.5402 151.38 39.2402 151.79Z" fill="white"/>
<path d="M141.01 235.8L138.83 237.55C138.26 236.83 137.67 236.1 137.08 235.39C136.62 234.8 136.08 234.21 135.64 233.64C133.78 231.42 131.85 229.19 129.85 226.98C124.85 221.43 119.75 216.08 114.56 211.06C110.31 206.96 105.85 202.85 101.23 198.83C100.71 198.37 100.23 197.91 99.6601 197.46L98.6601 196.59C98.2801 196.26 97.9301 195.96 97.5501 195.66C97.0201 195.19 96.4801 194.73 95.9301 194.3C92.4801 191.41 88.8801 188.52 85.1701 185.66C84.6101 185.23 84.0601 184.8 83.5101 184.39C83.1701 184.1 82.8101 183.84 82.4501 183.57L81.2701 182.69C80.7201 182.26 80.1501 181.84 79.5801 181.44C79.9301 181.04 80.2701 180.63 80.5801 180.2C80.8501 179.92 81.0801 179.62 81.3701 179.31C81.9401 179.72 82.4901 180.15 83.0501 180.56C83.4001 180.83 83.7601 181.08 84.1001 181.35L85.2801 182.26C85.8301 182.67 86.3801 183.1 86.9201 183.52C90.6901 186.43 94.3301 189.38 97.8201 192.29C98.3601 192.73 98.9001 193.18 99.4301 193.64C99.7701 193.91 100.09 194.2 100.43 194.48C100.77 194.76 101.18 195.12 101.55 195.48C102.09 195.93 102.61 196.38 103.13 196.84C107.77 200.84 112.25 204.98 116.49 209.1C121.72 214.15 126.92 219.56 131.91 225.15C134.22 227.7 136.41 230.25 138.5 232.77C138.98 233.34 139.44 233.91 139.89 234.46C140.34 235.01 140.63 235.35 141.01 235.8Z" fill="white"/>
<path d="M99.69 131.92L98.17 133.41L97.3 134.25L96.15 135.37C95.63 135.87 95.15 136.37 94.65 136.85C94.09 136.38 93.54 135.97 92.99 135.56C75.9787 122.671 58.0138 111.091 39.25 100.92V92.98C59.8327 103.912 79.488 116.507 98.02 130.64L99.69 131.92Z" fill="white"/>
<path d="M115.5 144.9C114.97 145.35 114.43 145.83 113.9 146.27L113.2 146.92C112.72 147.31 112.25 147.74 111.79 148.15C111.33 148.56 110.79 149.08 110.22 149.56C106.4 146.22 102.47 142.99 98.5102 139.88C97.9802 139.44 97.4201 139.01 96.8901 138.56C97.3701 138.08 97.8902 137.56 98.3702 137.1C98.6702 136.83 98.9402 136.53 99.2402 136.24L100.42 135.17C100.92 134.67 101.42 134.17 101.96 133.7C102.51 134.11 103.07 134.56 103.6 135.01C107.61 138.17 111.59 141.51 115.5 144.9Z" fill="white"/>
<path d="M82.7202 177.69C82.2702 178.22 81.7902 178.76 81.3602 179.29C81.0702 179.6 80.8402 179.9 80.5702 180.18C80.2502 180.61 79.9102 181.02 79.5702 181.42L78.2502 183.03C74.8402 180.5 71.3802 178.03 67.8602 175.57C67.2902 175.16 66.7402 174.78 66.1702 174.39C66.5602 173.82 66.9502 173.25 67.3602 172.7C67.4956 172.533 67.6225 172.36 67.7402 172.18L68.1802 171.61C68.4502 171.23 68.7502 170.84 69.0402 170.47C69.4502 169.91 69.8602 169.36 70.3102 168.81C70.8802 169.2 71.4502 169.57 72.0202 169.98C75.6302 172.49 79.2202 175.08 82.7202 177.69Z" fill="white"/>
<path d="M68.0302 196.23C67.6202 196.78 67.2202 197.35 66.8002 197.91L65.9902 199.05L65.1902 200.19C64.8035 200.763 64.4036 201.333 63.9902 201.9C60.9902 199.76 57.8502 197.65 54.7302 195.57C54.1602 195.17 53.5502 194.8 52.9802 194.42C53.3402 193.84 53.7002 193.21 54.0702 192.62C54.3002 192.21 54.5502 191.8 54.8002 191.39L55.5202 190.25C55.8802 189.64 56.2502 189.07 56.6302 188.5C57.2302 188.86 57.8002 189.25 58.3702 189.64C61.6402 191.8 64.9002 194.02 68.0302 196.23Z" fill="white"/>
<path d="M119.28 118.25C118.73 118.7 118.2 119.15 117.66 119.61C118.2 120.06 118.73 120.5 119.27 120.98C123.44 124.59 127.48 128.28 131.27 131.98C131.79 132.46 132.27 132.98 132.81 133.45C133.11 133.73 133.38 134.02 133.68 134.29C133.98 134.56 134.45 135.03 134.83 135.41L136.34 136.91C140.34 140.85 144.12 144.91 147.73 148.91C148.23 149.43 148.73 149.96 149.14 150.48C149.44 150.8 149.73 151.09 150 151.41C150.27 151.73 150.69 152.18 151 152.59C151.31 153 151.93 153.59 152.4 154.16C156.11 158.49 159.66 162.87 162.98 167.26C163.41 167.81 163.84 168.36 164.25 168.93C164.51 169.29 164.8 169.65 165.05 170.01C165.3 170.37 165.64 170.77 165.91 171.18C166.33 171.74 166.74 172.29 167.14 172.86C170.03 176.86 172.79 180.86 175.42 184.98C175.81 185.57 176.19 186.19 176.54 186.78C177.06 187.55 177.54 188.35 178.01 189.12L178.54 189.98C178.74 190.3 178.92 190.58 179.09 190.9C179.67 191.85 180.24 192.81 180.77 193.74C180.34 194.74 179.88 195.81 179.38 196.81C178.54 195.36 177.67 193.9 176.76 192.38C176.56 192.06 176.36 191.74 176.17 191.38C175.98 191.02 175.85 190.85 175.67 190.58C175.19 189.79 174.67 189.01 174.2 188.22C173.81 187.63 173.44 187.05 173.08 186.44C170.47 182.44 167.71 178.35 164.83 174.44C164.46 173.87 164.05 173.3 163.6 172.72C163.354 172.347 163.094 171.987 162.82 171.64C162.51 171.24 162.25 170.87 161.94 170.48C161.53 169.92 161.1 169.37 160.68 168.82C157.36 164.44 153.82 160.09 150.13 155.82L148.79 154.17C148.52 153.85 148.23 153.53 147.95 153.17C147.67 152.81 147.29 152.4 146.95 152.02C146.61 151.64 145.95 151.02 145.54 150.45C141.94 146.45 138.12 142.45 134.17 138.53C133.67 138.05 133.17 137.53 132.67 137.05L131.8 136.19L130.62 135.17C130.14 134.67 129.62 134.17 129.1 133.7C125.27 130.05 121.27 126.4 117.1 122.83C116.56 122.35 116.03 121.91 115.49 121.44C114.96 121.91 114.42 122.39 113.89 122.83C109.74 126.42 105.71 130.08 101.89 133.7C101.37 134.2 100.89 134.7 100.35 135.17L99.2102 136.27C98.9102 136.56 98.6402 136.86 98.3402 137.13C97.8402 137.61 97.3402 138.13 96.8602 138.59C92.8602 142.52 89.0802 146.54 85.4502 150.59C84.9702 151.11 84.4502 151.59 84.0402 152.16L83.0402 153.29C82.7802 153.61 82.4902 153.93 82.2202 154.29C81.7502 154.82 81.2902 155.34 80.8602 155.86C77.1502 160.2 73.6002 164.55 70.3002 168.86C69.8502 169.41 69.4402 169.96 69.0302 170.52C68.7402 170.89 68.4402 171.28 68.1702 171.66L67.7302 172.23C67.6125 172.41 67.4857 172.583 67.3502 172.75C66.9402 173.3 66.5502 173.87 66.1602 174.44C62.8402 179.05 59.6502 183.78 56.6702 188.54C56.2902 189.11 55.9202 189.68 55.5602 190.29L54.8402 191.43C54.5902 191.84 54.3402 192.25 54.1102 192.66C53.7402 193.25 53.3802 193.88 53.0202 194.46C52.0802 196.09 51.1302 197.71 50.2202 199.34C49.6502 198.41 49.1202 197.48 48.6202 196.53C49.2902 195.32 49.9902 194.13 50.6902 192.91C51.0602 192.32 51.4002 191.75 51.7702 191.14C51.9902 190.74 52.2202 190.37 52.4702 189.98C52.7202 189.59 52.9702 189.16 53.2202 188.76C53.5802 188.17 53.9302 187.57 54.3302 187C57.3302 182.21 60.5202 177.48 63.8802 172.86C64.2702 172.29 64.6802 171.74 65.0902 171.18C65.5002 170.62 65.6602 170.4 65.9502 170.01L66.3902 169.43C66.5065 169.256 66.6334 169.089 66.7702 168.93C67.1802 168.38 67.5902 167.83 68.0202 167.27C71.3302 162.9 74.8802 158.51 78.6302 154.16C79.0902 153.62 79.5202 153.1 79.9802 152.57C80.3202 152.2 80.6602 151.8 80.9802 151.43C81.3002 151.06 81.5302 150.79 81.8002 150.48C82.2802 149.97 82.7302 149.43 83.2102 148.91C86.8302 144.91 90.6902 140.86 94.6502 136.91C95.1502 136.41 95.6502 135.91 96.1502 135.43L97.3002 134.31L98.1702 133.47L99.6902 131.98C103.53 128.34 107.54 124.67 111.74 121.04C112.27 120.58 112.81 120.13 113.34 119.65C112.81 119.17 112.25 118.72 111.72 118.31C89.2936 99.895 65.0013 83.8778 39.2402 70.52V67.4C65.7961 81.0491 90.818 97.4957 113.88 116.46C114.43 116.92 114.97 117.37 115.5 117.83L117.14 116.46C138.692 98.7004 161.984 83.1647 186.66 70.09V73.17C162.791 85.9754 140.225 101.073 119.28 118.25V118.25Z" fill="#A97C50"/>
<path d="M51.42 201.35C51.04 202.03 50.67 202.73 50.29 203.42C50.2021 203.55 50.1252 203.687 50.0601 203.83L49.0601 205.65L45.55 203.76C45.534 203.719 45.5103 203.682 45.48 203.65C45.3999 203.54 45.3296 203.423 45.2701 203.3C44.8701 202.69 44.52 202.08 44.16 201.46C44.09 201.35 44.0301 201.24 43.9601 201.14C43.8901 201.04 43.91 201.05 43.89 200.99C43.87 200.93 43.8901 200.94 43.8401 200.92C43.8224 200.889 43.8023 200.858 43.78 200.83L43.94 200.54C44.66 199.2 45.42 197.85 46.17 196.49C46.57 195.76 46.98 195.04 47.41 194.31C47.78 195.08 48.16 195.79 48.57 196.52C49.07 197.47 49.57 198.4 50.17 199.33C50.3 199.54 50.4201 199.77 50.5601 200C50.7001 200.23 50.8501 200.47 50.9901 200.68C51.1301 200.89 51.19 200.97 51.3 201.13C51.3237 201.181 51.354 201.228 51.39 201.27C51.3956 201.298 51.4057 201.325 51.42 201.35V201.35Z" fill="#A97C50"/>
<path d="M191.5 70.58C191.16 70.78 190.8 70.96 190.42 71.15C190.04 71.34 189.35 71.74 188.76 72.05L186.66 73.15V70.03C186.788 69.9688 186.912 69.8986 187.03 69.82C187.14 69.766 187.247 69.7059 187.35 69.64C187.73 69.42 188.21 69.17 188.76 68.89C189.31 68.61 189.76 68.37 190.19 68.12V68.17L191.5 70.58Z" fill="#A97C50"/>
<path d="M192.94 68.83V69.83C192.51 70.07 192.01 70.32 191.5 70.58C191.16 70.78 190.8 70.96 190.42 71.15C190.04 71.34 189.35 71.74 188.76 72.05L186.66 73.15V70.03C186.788 69.9688 186.912 69.8986 187.03 69.82C187.14 69.766 187.247 69.7059 187.35 69.64C187.73 69.42 188.21 69.17 188.76 68.89L190.23 68.17L190.73 67.96C190.886 67.8817 191.047 67.8115 191.21 67.75C191.53 67.6 191.85 67.46 192.15 67.35L192.94 68.83Z" fill="#A97C50"/>
<path d="M134.15 138.58C133.6 139.01 133.03 139.44 132.49 139.9C128.53 143.007 124.624 146.233 120.77 149.58C120.23 150 119.77 150.45 119.2 150.95C118.75 151.32 118.29 151.72 117.84 152.11C117.57 152.36 117.34 152.55 117.11 152.79C116.58 153.26 116.11 153.7 115.54 154.19C111.63 157.7 107.78 161.33 104.1 164.98C103.6 165.48 103.1 165.98 102.6 166.48C102.1 166.98 101.82 167.29 101.41 167.68L100.64 168.46C100.16 168.98 99.6402 169.46 99.1802 169.96C95.3902 173.91 91.7502 177.91 88.3102 181.89L86.9502 183.47C86.6302 183.87 86.2902 184.26 85.9502 184.65C85.6102 185.04 85.4202 185.29 85.1702 185.65C84.6802 186.19 84.2702 186.71 83.8102 187.24C80.3102 191.53 76.9202 195.88 73.7402 200.24C73.3302 200.79 72.9002 201.36 72.5302 201.94C72.2302 202.29 71.9902 202.67 71.7302 203.04C71.4702 203.41 71.1902 203.83 70.9202 204.22C70.5102 204.77 70.1202 205.34 69.7102 205.92C67.5302 209.11 65.4102 212.38 63.3902 215.64C63.0002 216.23 62.6202 216.86 62.2702 217.45C62.0202 217.82 61.8002 218.21 61.5702 218.59L60.5002 220.39L57.3102 218.48C57.3102 218.43 57.1802 218.38 57.1302 218.3C56.4002 217.55 55.7002 216.82 54.9902 216.07L55.6102 215.01C56.1302 214.12 56.6802 213.23 57.2702 212.35C57.6302 211.73 58.0202 211.12 58.4002 210.53C60.2202 207.63 62.1102 204.75 64.0502 201.93C64.4636 201.357 64.8635 200.787 65.2502 200.22L66.0502 199.08L66.8602 197.94C67.2802 197.38 67.6802 196.81 68.0902 196.26C71.3002 191.83 74.7102 187.41 78.2802 183.07L79.6002 181.46C79.9502 181.06 80.2902 180.65 80.6002 180.22C80.8702 179.94 81.1002 179.64 81.3902 179.33C81.8202 178.8 82.3002 178.26 82.7502 177.73C86.2435 173.657 89.9102 169.617 93.7502 165.61C94.2302 165.13 94.6902 164.61 95.2102 164.11C95.7302 163.61 96.0102 163.27 96.4202 162.86L97.1602 162.11C97.6602 161.63 98.1602 161.11 98.6402 160.61C102.39 156.9 106.28 153.2 110.24 149.61C110.76 149.13 111.29 148.61 111.81 148.2C112.33 147.79 112.74 147.36 113.22 146.97L113.92 146.32C114.45 145.88 114.99 145.4 115.52 144.95C119.42 141.51 123.42 138.17 127.42 134.98C127.99 134.55 128.51 134.1 129.06 133.67C129.58 134.17 130.06 134.67 130.58 135.14L131.74 136.24L132.61 137.1C133.17 137.6 133.65 138.1 134.15 138.58Z" fill="white"/>
<path d="M192.94 96.89V100.26L192.51 100.5C191.26 101.17 190.01 101.87 188.76 102.57L186.66 103.73C169.74 113.206 153.501 123.848 138.06 135.58C137.49 135.99 136.94 136.42 136.38 136.87L134.87 135.37C134.49 134.99 134.12 134.62 133.72 134.25C133.32 133.88 133.15 133.69 132.85 133.41C132.35 132.92 131.85 132.41 131.31 131.94C131.87 131.5 132.44 131.07 133.01 130.66C149.986 117.693 167.92 106.033 186.66 95.78C187.37 95.39 188.07 94.98 188.76 94.61L189.19 94.37L191.01 93.37L192.94 96.89Z" fill="white"/>
<path d="M132.65 137.1L130.97 138.4C126.97 141.54 123.05 144.79 119.21 148.15C118.68 148.59 118.21 149.06 117.63 149.54C117.05 150.02 116.82 150.22 116.43 150.54C116.04 150.86 115.8 151.09 115.5 151.37C114.98 151.82 114.5 152.28 113.95 152.77C110.01 156.3 106.17 159.94 102.47 163.64L100.97 165.13L99.9 166.21C99.59 166.51 99.3101 166.81 99.0001 167.12C98.5201 167.62 98 168.12 97.54 168.61C93.76 172.61 90.1001 176.61 86.6501 180.61C86.1901 181.13 85.74 181.66 85.3 182.2C84.98 182.57 84.66 182.93 84.3 183.3C83.94 183.67 83.73 183.98 83.45 184.3L82.11 185.9C78.57 190.19 75.1801 194.58 71.9901 198.97C71.5801 199.52 71.17 200.09 70.76 200.66L69.95 201.79C69.68 202.16 69.4201 202.56 69.1501 202.95C68.7401 203.52 68.35 204.09 67.95 204.68C65.81 207.793 63.7534 210.933 61.78 214.1C61.4 214.71 61.03 215.32 60.67 215.92C60.33 216.44 60.03 216.92 59.67 217.46L57.28 216.01C57.71 215.3 58.15 214.57 58.6 213.85C59.05 213.13 59.3701 212.62 59.7401 212.01C61.6501 209.01 63.6101 206.01 65.6501 203.01C66.0401 202.43 66.4301 201.86 66.8401 201.29C67.1101 200.9 67.3801 200.53 67.6501 200.13C67.9201 199.73 68.18 199.36 68.47 198.99C68.86 198.42 69.2701 197.87 69.6801 197.29C72.8901 192.87 76.28 188.48 79.85 184.16C80.28 183.62 80.73 183.09 81.17 182.55C81.61 182.01 81.8001 181.79 82.1201 181.41C82.4401 181.03 82.67 180.75 82.98 180.41C83.41 179.88 83.87 179.34 84.33 178.8C87.7967 174.8 91.4634 170.8 95.33 166.8C95.79 166.28 96.28 165.8 96.78 165.28C97.28 164.76 97.49 164.55 97.85 164.17C98.21 163.79 98.4301 163.57 98.7401 163.28C99.2401 162.78 99.7401 162.28 100.24 161.8C103.973 158.087 107.817 154.42 111.77 150.8C112.28 150.34 112.77 149.85 113.34 149.39L114.53 148.32C114.84 148.05 115.14 147.78 115.46 147.52C116 147.03 116.53 146.57 117.07 146.12C120.94 142.75 124.92 139.45 128.94 136.29C129.47 135.84 130.02 135.4 130.58 134.99L131.74 136.09L132.65 137.1Z" fill="white"/>
<path d="M191.51 98.66C190.59 99.16 189.67 99.66 188.76 100.17L186.66 101.33C169.207 111.045 152.465 121.985 136.56 134.07V134.07C136.01 134.51 135.44 134.94 134.89 135.37C134.51 134.99 134.14 134.62 133.74 134.25C133.34 133.88 133.17 133.69 132.87 133.41C133.42 132.96 133.99 132.53 134.55 132.1C151.07 119.535 168.486 108.195 186.66 98.17L188.76 97.01C189.23 96.74 189.71 96.49 190.19 96.22L191.51 98.66Z" fill="white"/>
<path d="M148.79 154.17L150.16 155.76C149.59 156.17 149.05 156.58 148.48 157.01C144.54 159.88 140.84 162.74 137.29 165.56L135.65 166.9C135.19 167.25 134.78 167.59 134.33 167.97C134.06 168.2 133.78 168.39 133.51 168.64C132.96 169.07 132.42 169.52 131.89 169.96C128.07 173.14 124.32 176.39 120.68 179.69C120.16 180.14 119.68 180.62 119.13 181.08C118.74 181.47 118.33 181.81 117.94 182.19L117.1 182.97C116.6 183.44 116.1 183.9 115.56 184.4C111.81 187.93 108.15 191.56 104.64 195.23C104.14 195.71 103.64 196.23 103.19 196.73C102.79 197.1 102.49 197.46 102.13 197.84C101.77 198.22 101.54 198.46 101.28 198.76C100.79 199.25 100.35 199.76 99.8701 200.28C96.2368 204.207 92.7534 208.223 89.4201 212.33C88.9601 212.86 88.5301 213.42 88.0801 213.95C87.8001 214.31 87.5101 214.67 87.2101 215.02C86.9101 215.37 86.6401 215.74 86.3301 216.11L85.0501 217.73C82.8001 220.66 80.5501 223.66 78.3901 226.66C78.0001 227.25 77.5901 227.81 77.1801 228.38C76.7701 228.95 76.2901 229.64 75.8601 230.29L74.7901 231.82L74.6501 232L71.8101 230.17L71.6901 230.08C71.6901 230.08 71.5801 230.03 71.5301 229.99L68.8701 228.14L70.0601 226.42C70.4501 225.83 70.8301 225.3 71.2201 224.76C71.6101 224.18 72.0101 223.61 72.4401 223.06C74.7401 219.81 77.1301 216.62 79.5701 213.51C79.9901 212.94 80.4301 212.41 80.8601 211.87L81.7501 210.77C82.0401 210.43 82.3101 210.05 82.6101 209.71C83.0401 209.16 83.4801 208.63 83.9301 208.09C87.3401 203.91 90.8701 199.86 94.4801 195.94L95.8901 194.4L96.9801 193.24L97.8001 192.38C98.2901 191.88 98.8001 191.38 99.2501 190.86C102.82 187.11 106.55 183.44 110.37 179.86C110.87 179.36 111.37 178.86 111.87 178.41L113.12 177.26C113.38 177.01 113.65 176.76 113.92 176.53C114.44 176.03 114.92 175.53 115.47 175.12C119.197 171.713 123.017 168.38 126.93 165.12C127.45 164.66 128 164.21 128.54 163.79C129.08 163.37 129.43 163.04 129.91 162.68C130.16 162.45 130.45 162.23 130.7 162.02C131.25 161.55 131.8 161.13 132.34 160.68C136 157.77 139.78 154.86 143.81 151.86C144.38 151.45 144.92 151.02 145.49 150.61C145.95 151.13 146.44 151.61 146.9 152.18C147.36 152.75 147.6 152.95 147.9 153.33C148.2 153.71 148.52 153.86 148.79 154.17Z" fill="white"/>
<path d="M192.94 125.11V128.44L192.55 128.68C191.28 129.39 190.01 130.1 188.76 130.84C188.07 131.21 187.37 131.62 186.66 132.05C175.29 138.65 164.39 145.65 154.14 152.93C153.57 153.31 153.02 153.72 152.45 154.13C151.98 153.59 151.52 153.13 151.05 152.56C150.58 151.99 150.38 151.77 150.05 151.38C149.72 150.99 149.49 150.77 149.19 150.45C148.76 149.93 148.28 149.45 147.78 148.88C148.35 148.49 148.92 148.06 149.49 147.67C161.454 139.151 173.85 131.257 186.63 124.02C187.34 123.63 188.04 123.22 188.73 122.82L189.13 122.61L190.93 121.61L192.94 125.11Z" fill="white"/>
<path d="M147.95 153.22C148.23 153.54 148.52 153.86 148.79 154.22L147.11 155.47C143.11 158.38 139.42 161.23 135.83 164.11L134.19 165.43L133.01 166.43L132.01 167.24C131.45 167.68 130.92 168.13 130.38 168.57C126.527 171.75 122.767 175.01 119.1 178.35C118.57 178.82 118.05 179.28 117.53 179.76C117.01 180.24 116.78 180.44 116.43 180.76C116.08 181.08 115.78 181.35 115.48 181.65C114.96 182.12 114.48 182.65 113.95 183.08C110.18 186.63 106.5 190.27 102.95 193.97C102.45 194.47 101.95 194.97 101.5 195.5C101.15 195.84 100.83 196.2 100.5 196.5C100.17 196.8 99.8902 197.16 99.5902 197.5C99.1002 198.02 98.5902 198.5 98.1802 199.04C94.5902 202.93 91.0902 206.94 87.7202 211.04C87.2502 211.58 86.8202 212.12 86.3802 212.67C86.0702 213.03 85.7902 213.38 85.5002 213.74C85.2102 214.1 84.9102 214.47 84.6502 214.85C84.1802 215.38 83.7702 215.93 83.3402 216.47C81.0102 219.47 78.7002 222.56 76.4902 225.68C76.0602 226.25 75.6702 226.8 75.2902 227.37C74.9102 227.94 74.4402 228.57 74.0302 229.16L71.7302 227.57L72.9002 225.89L74.1002 224.2C76.3802 220.99 78.7602 217.83 81.1702 214.74C81.5902 214.19 82.0202 213.63 82.4502 213.1C82.7402 212.72 83.0402 212.35 83.3302 211.99C83.6202 211.63 83.9002 211.28 84.2002 210.92L85.5002 209.31C88.9102 205.17 92.4302 201.12 96.0502 197.21C96.5002 196.7 96.9602 196.21 97.4602 195.68C97.7802 195.32 98.1202 194.95 98.4602 194.59C98.8002 194.23 99.0502 193.96 99.3702 193.64C99.8302 193.13 100.37 192.64 100.82 192.11C104.37 188.38 108.08 184.7 111.88 181.11C112.38 180.63 112.88 180.11 113.4 179.68C113.76 179.35 114.13 178.99 114.51 178.68C114.89 178.37 115.13 178.11 115.45 177.82C115.95 177.34 116.45 176.88 116.99 176.41C120.68 173.04 124.5 169.74 128.39 166.54C128.93 166.08 129.46 165.63 130.01 165.2L131.19 164.2L132.19 163.4C132.73 162.95 133.28 162.51 133.85 162.08C137.46 159.17 141.23 156.28 145.22 153.33L146.9 152.08C147.29 152.45 147.63 152.84 147.95 153.22Z" fill="white"/>
<path d="M191.53 126.86C190.6 127.37 189.69 127.86 188.76 128.43C188.05 128.82 187.35 129.23 186.66 129.62C174.77 136.48 163.4 143.76 152.75 151.32L151.05 152.56C150.73 152.15 150.38 151.77 150.05 151.38C149.72 150.99 149.49 150.77 149.19 150.45C149.76 150.04 150.33 149.61 150.92 149.22C162.13 141.22 174.12 133.58 186.67 126.41C187.36 126 188.06 125.61 188.77 125.21L190.18 124.41L191.53 126.86Z" fill="white"/>
<path d="M192.94 153.36V156.73L192.59 156.93L188.76 159.17C188.07 159.59 187.37 159.98 186.66 160.42C180.587 164.047 174.683 167.787 168.95 171.64C168.36 172.04 167.76 172.42 167.21 172.81C166.77 173.09 166.38 173.39 165.96 173.66C165.54 173.93 165.27 174.14 164.96 174.4C164.38 174.75 163.81 175.15 163.23 175.55C159.74 177.99 156.23 180.49 152.86 183.02C152.29 183.42 151.73 183.84 151.18 184.27C150.63 184.7 150.35 184.89 149.93 185.18C149.51 185.47 149.27 185.7 148.93 185.94C148.37 186.35 147.84 186.79 147.28 187.21C143.61 190.06 140.03 192.94 136.6 195.79C136.06 196.23 135.52 196.7 134.99 197.14L133.8 198.14L132.87 198.95C132.33 199.39 131.87 199.85 131.28 200.32C127.593 203.507 124.023 206.747 120.57 210.04C120.06 210.51 119.57 211.04 119.07 211.49C118.71 211.82 118.33 212.16 118 212.49C117.67 212.82 117.36 213.08 117.06 213.4L115.58 214.83C112.05 218.32 108.58 221.96 105.15 225.69C104.67 226.21 104.2 226.69 103.74 227.24C103.42 227.57 103.15 227.89 102.83 228.24C102.51 228.59 102.19 228.95 101.9 229.24C101.42 229.78 100.9 230.24 100.51 230.83C99.5101 231.92 98.6101 233.01 97.6901 234.12C97.1801 234.71 96.6901 235.31 96.1901 235.9C95.3701 236.9 94.6001 237.83 93.8301 238.78L93.3101 239.43C92.4601 239.19 91.6301 238.96 90.7901 238.68L90.4801 238.58C90.0001 238.44 89.4801 238.26 89.0501 238.1V237.61L87.1101 236.04L88.4101 234.42C88.6101 234.18 88.8301 233.92 89.0301 233.66C89.4901 233.09 89.9401 232.53 90.4401 231.96C92.0201 230.027 93.6501 228.103 95.3301 226.19C95.7701 225.65 96.2501 225.14 96.7201 224.6C97.0201 224.24 97.3401 223.89 97.6501 223.53C97.9601 223.17 98.2701 222.86 98.5701 222.53C99.0201 222.01 99.5001 221.53 99.9701 220.98C103.44 217.17 106.97 213.47 110.6 209.92C111.1 209.4 111.6 208.92 112.09 208.45C112.45 208.09 112.82 207.74 113.18 207.45C113.54 207.16 113.75 206.88 114.07 206.58C114.57 206.12 115.07 205.58 115.58 205.13C119.11 201.8 122.76 198.47 126.52 195.2C127.04 194.74 127.52 194.28 128.11 193.83C128.51 193.47 128.9 193.13 129.3 192.83L130.23 192.03C130.77 191.6 131.23 191.14 131.84 190.71C135.35 187.77 139.01 184.8 142.84 181.86C143.4 181.45 143.95 181.01 144.51 180.59C144.92 180.26 145.34 179.94 145.78 179.59L146.78 178.88C147.35 178.44 147.91 178.03 148.46 177.63C151.97 174.99 155.58 172.41 159.17 169.92L160.89 168.73C161.33 168.43 161.75 168.13 162.18 167.85L163.18 167.14C163.76 166.76 164.35 166.37 164.93 165.97C171.93 161.25 179.3 156.65 186.82 152.25C187.53 151.83 188.23 151.44 188.92 151.02L189.28 150.82L191.08 149.77L192.94 153.36Z" fill="white"/>
<path d="M91.6802 238.17H91.0202V236.77L89.9402 235.91C92.8002 232.34 95.8802 228.71 99.1102 225.11C104.11 219.52 109.3 214.11 114.55 209.05C119.61 204.14 125.01 199.23 130.55 194.47C135.68 190.1 141.17 185.68 146.88 181.34C152.17 177.34 157.64 173.41 163.16 169.65C171.76 163.79 180.83 158.08 190.16 152.71L191.56 155.12C182.33 160.46 173.32 166.12 164.77 171.96C159.29 175.69 153.86 179.59 148.61 183.56C142.94 187.87 137.49 192.26 132.4 196.56C126.86 201.28 121.51 206.15 116.48 211.03C111.29 216.03 106.14 221.4 101.19 226.94C97.9902 230.5 94.9402 234.1 92.1102 237.62L91.6802 238.17Z" fill="white"/>
<path d="M192.17 67.35C191.87 67.46 191.55 67.6 191.23 67.75C191.067 67.8116 190.906 67.8817 190.75 67.9601C190.59 68.0301 190.42 68.1 190.25 68.19V68.14C189.79 68.39 189.31 68.66 188.82 68.91C188.33 69.16 187.82 69.44 187.41 69.66C187.307 69.7259 187.2 69.786 187.09 69.8401C186.972 69.9187 186.848 69.9889 186.72 70.05V165.55C186.709 169.988 186.274 174.415 185.42 178.77V178.77C185.26 179.77 185.04 180.66 184.81 181.59C184.74 181.93 184.67 182.25 184.58 182.59V182.82C184.35 183.71 184.1 184.55 183.85 185.44C183.6 186.33 183.23 187.44 182.85 188.44C182.47 189.44 182.23 190.26 181.85 191.18L180.85 193.59C180.42 194.59 179.96 195.66 179.46 196.66C179.316 196.981 179.156 197.295 178.98 197.6C178.78 198.03 178.53 198.44 178.32 198.83C176.441 202.344 174.263 205.689 171.81 208.83C171.36 209.38 170.88 209.97 170.43 210.56L168.67 212.56C168.6 212.56 168.58 212.63 168.52 212.7C168.05 213.23 167.57 213.77 167.05 214.29C164.33 217.135 161.376 219.748 158.22 222.1C157.68 222.53 157.13 222.94 156.54 223.33C156.2 223.58 155.83 223.82 155.47 224.07C155.11 224.32 154.63 224.6 154.22 224.89C153.63 225.26 153.06 225.64 152.45 225.98C148.715 228.258 144.77 230.174 140.67 231.7V231.7C140.01 231.95 139.33 232.19 138.67 232.42C138.648 232.412 138.623 232.412 138.6 232.42C137.67 232.76 136.71 233.04 135.76 233.33C135.01 233.54 134.31 233.76 133.54 233.95C129.519 234.971 125.417 235.64 121.28 235.95C120.28 236.02 119.18 236.1 118.12 236.13C117.52 236.13 116.94 236.13 116.34 236.13H115.42C114.97 236.13 114.47 236.13 114.01 236.13H113.17C112.49 236.13 111.79 236.13 111.17 236.02C110.55 235.91 109.69 235.93 108.98 235.86C107.82 235.77 106.73 235.65 105.58 235.47C102.915 235.133 100.27 234.646 97.6602 234.01C96.9102 233.81 96.1401 233.63 95.3901 233.42C94.3901 233.13 93.4702 232.87 92.4802 232.56C92.4338 232.523 92.3787 232.499 92.3202 232.49L92.0602 232.42C91.5202 232.24 90.9302 232.04 90.3802 231.83C86.2215 230.394 82.2044 228.576 78.3802 226.4C77.7802 226.07 77.1702 225.73 76.5802 225.4C76.1181 225.151 75.6737 224.87 75.2502 224.56L74.2502 223.94C73.6602 223.55 73.1202 223.15 72.5402 222.74C69.3186 220.555 66.2787 218.114 63.4502 215.44C62.9202 214.94 62.4002 214.44 61.9202 213.96L61.6302 213.68C61.0402 213.07 60.4702 212.5 59.9402 211.89C59.4402 211.39 58.9402 210.89 58.4802 210.33C55.9583 207.454 53.6615 204.388 51.6102 201.16L51.5402 201.07C51.5041 201.028 51.4739 200.98 51.4502 200.93C51.3402 200.77 51.2302 200.63 51.1402 200.48C51.0502 200.33 50.8602 200.04 50.7102 199.8C50.5602 199.56 50.4502 199.34 50.3202 199.13C49.7502 198.2 49.2202 197.27 48.7202 196.32C48.3102 195.59 47.9302 194.88 47.5602 194.11C46.7266 192.535 45.9788 190.916 45.3202 189.26C44.8702 188.19 44.4402 187.12 44.0502 186.03C43.5502 184.69 43.0502 183.32 42.6602 181.93C42.4402 181.2 42.2502 180.45 42.0302 179.74C41.9602 179.47 41.9102 179.27 41.8702 179.06C40.2433 172.783 39.4167 166.325 39.4102 159.84V67.3401C39.1837 67.2072 38.95 67.087 38.7102 66.98L38.0502 66.6201C37.9469 66.5542 37.8401 66.494 37.7302 66.44L37.3402 66.23C36.7302 65.91 36.1602 65.59 35.6302 65.28L34.8202 64.8401L34.0702 64.41L33.1502 66.2101V159.93C33.1433 166.889 34.0169 173.821 35.7502 180.56C35.7666 180.714 35.8036 180.866 35.8602 181.01C35.8602 181.15 35.9302 181.29 35.9702 181.45C36.1602 182.22 36.3902 182.97 36.6302 183.74C36.6302 183.9 36.7302 184.07 36.7902 184.24C38.5322 190.019 40.9312 195.578 43.9402 200.81V200.81C43.9402 200.81 43.9402 200.87 43.9402 200.9C43.9402 200.93 43.9402 200.96 43.9902 200.97C44.0402 200.98 44.0502 201.08 44.0602 201.12C44.0702 201.16 44.1902 201.33 44.2602 201.44C44.6202 202.06 44.9702 202.67 45.3702 203.28C45.4297 203.403 45.5 203.52 45.5802 203.63L45.6702 203.74C46.3302 204.83 47.0202 205.9 47.7602 206.95C48.5002 208 49.2402 209.06 50.0202 210.09C51.5843 212.157 53.2531 214.143 55.0202 216.04V216.04C55.7302 216.79 56.4302 217.52 57.1602 218.27C57.2102 218.35 57.3002 218.4 57.3402 218.45C61.6598 222.769 66.4419 226.599 71.6002 229.87C71.6502 229.87 71.7202 229.93 71.7602 229.96L71.8802 230.03L74.6702 231.96L74.8102 231.78C79.3301 234.365 84.0805 236.524 89.0002 238.23C89.4802 238.39 89.9402 238.55 90.4202 238.69L90.7302 238.78C91.5702 239.06 92.4102 239.31 93.2702 239.55C99.5616 241.328 106.046 242.336 112.58 242.55H113.15H114.68H116.42C123.659 242.513 130.855 241.442 137.79 239.37V239.37C138.74 239.09 139.67 238.79 140.6 238.46C140.741 238.427 140.878 238.38 141.01 238.32C146.258 236.529 151.289 234.158 156.01 231.25V231.25L156.1 231.34L158.94 229.34C159.42 229.02 159.94 228.68 160.38 228.34C160.63 228.18 160.85 228 161.1 227.84L161.81 227.34C161.97 227.2 162.15 227.08 162.31 226.95C163.17 226.29 163.99 225.65 164.81 224.95C166.81 223.31 168.66 221.59 170.47 219.81C171.36 218.9 172.23 217.99 173.09 217.04C173.16 216.94 173.25 216.88 173.3 216.81L174.3 215.67C174.62 215.28 174.95 214.9 175.3 214.51C178.78 210.346 181.798 205.816 184.3 201C184.339 200.9 184.386 200.803 184.44 200.71C184.44 200.71 184.5 200.61 184.53 200.55C184.557 200.519 184.58 200.486 184.6 200.45C184.8 200 185.02 199.57 185.23 199.16C185.44 198.75 185.62 198.3 185.84 197.88C187.895 193.477 189.52 188.886 190.69 184.17V183.93C190.69 183.86 190.69 183.79 190.74 183.74C191.19 181.9 191.56 180.04 191.88 178.17C192.554 174.011 192.888 169.804 192.88 165.59V68.89L192.17 67.35Z" fill="white"/>
<path d="M192.18 67.35C191.55 67.59 190.92 67.87 190.25 68.19L190.2 68.1201L188.76 68.89V165.54C188.752 169.504 188.418 173.461 187.76 177.37C187.62 178.3 187.46 179.21 187.25 180.12C187.04 181.03 186.83 182.12 186.6 183.12L186.53 183.4C186.504 183.585 186.457 183.766 186.39 183.94C186.13 184.94 185.86 185.94 185.58 186.94C184.887 189.219 184.079 191.462 183.16 193.66C182.827 194.473 182.493 195.263 182.16 196.03C181.74 196.96 181.3 197.91 180.81 198.82C180.773 198.912 180.726 198.999 180.67 199.08C180.3 199.8 179.93 200.54 179.51 201.24C177.591 204.659 175.408 207.922 172.98 211C172.49 211.59 172.05 212.14 171.56 212.7C171.09 213.24 170.67 213.7 170.21 214.26C170.05 214.47 169.84 214.66 169.65 214.87C169.18 215.43 168.65 215.92 168.18 216.43C165.463 219.225 162.534 221.806 159.42 224.15C158.88 224.57 158.3 224.96 157.74 225.36C157.37 225.63 157 225.89 156.63 226.12C156.26 226.35 155.81 226.68 155.42 226.91C154.84 227.31 154.25 227.68 153.65 228.03C149.959 230.269 146.078 232.177 142.05 233.73C141.37 234 140.68 234.26 139.96 234.47C139.754 234.582 139.536 234.669 139.31 234.73C138.58 234.98 137.86 235.19 137.14 235.42C136.42 235.65 135.7 235.84 134.96 236.05C129.735 237.466 124.369 238.294 118.96 238.52H118.33C117.54 238.52 116.75 238.52 115.94 238.52H115.4C114.31 238.52 113.22 238.52 112.1 238.42C111.84 238.42 111.61 238.42 111.38 238.42C110.68 238.42 110.03 238.33 109.38 238.26L108.15 238.16C104.126 237.77 100.137 237.071 96.22 236.07C95.5 235.88 94.76 235.65 94.04 235.47L91.8101 234.77L91.48 234.68C91.3657 234.653 91.2549 234.613 91.15 234.56C90.43 234.35 89.74 234.12 89.04 233.84C84.9714 232.359 81.0342 230.539 77.27 228.4C76.67 228.07 76.06 227.7 75.46 227.33C75.04 227.1 74.6 226.82 74.18 226.56L73.11 225.86C72.53 225.49 71.97 225.1 71.39 224.7C68.2008 222.536 65.191 220.118 62.39 217.47C61.856 217.009 61.3453 216.522 60.86 216.01C60.624 215.821 60.4064 215.61 60.21 215.38C59.75 214.92 59.3 214.48 58.86 213.99C58.42 213.5 57.86 212.99 57.4 212.39C54.8765 209.59 52.5667 206.605 50.49 203.46C50.03 202.78 49.61 202.11 49.19 201.46C49.12 201.35 49.05 201.26 48.98 201.14C48.47 200.33 47.98 199.56 47.54 198.72C47.14 198 46.75 197.3 46.37 196.56C44.8335 193.686 43.497 190.708 42.37 187.65C41.97 186.65 41.6 185.58 41.27 184.54C40.83 183.23 40.44 181.91 40.09 180.54C40.09 180.54 40.09 180.43 40.04 180.4C39.81 179.47 39.58 178.59 39.37 177.68C38.0388 171.871 37.3679 165.93 37.37 159.97V66.2701C36.18 65.6201 35.09 64.9901 34.11 64.4301L33.18 66.2401V159.97C33.1684 166.926 34.0455 173.856 35.79 180.59C35.79 180.89 35.93 181.17 35.99 181.47C36.25 182.4 36.5101 183.33 36.8101 184.26C38.5596 190.047 40.9617 195.616 43.97 200.86C44.43 201.7 44.92 202.51 45.43 203.33C45.5206 203.492 45.6243 203.645 45.74 203.79C48.4595 208.197 51.6045 212.327 55.13 216.12C55.83 216.86 56.52 217.6 57.27 218.35C57.3249 218.415 57.3851 218.475 57.45 218.53C61.7739 222.858 66.563 226.695 71.73 229.97C71.8298 230.015 71.9238 230.072 72.01 230.14C72.96 230.74 73.94 231.34 74.94 231.88C79.4547 234.466 84.2022 236.622 89.12 238.32C89.61 238.48 90.0701 238.64 90.5601 238.78L90.87 238.88C91.71 239.16 92.54 239.41 93.4 239.64C99.6936 241.424 106.182 242.431 112.72 242.64H113.28C113.79 242.64 114.28 242.64 114.82 242.64H116.42C123.665 242.589 130.866 241.516 137.81 239.45C138.76 239.18 139.69 238.87 140.62 238.55C140.74 238.5 140.88 238.48 141.02 238.41C146.263 236.609 151.293 234.238 156.02 231.34C157.02 230.74 158.02 230.13 158.94 229.46C159.43 229.13 159.94 228.81 160.39 228.46C160.84 228.11 161.32 227.76 161.8 227.46C165.888 224.408 169.672 220.969 173.1 217.19C173.17 217.09 173.27 217.03 173.31 216.96C173.99 216.19 174.64 215.44 175.31 214.65C178.792 210.491 181.81 205.964 184.31 201.15C184.404 200.958 184.507 200.771 184.62 200.59C185.03 199.73 185.45 198.89 185.85 198.03C187.914 193.58 189.536 188.938 190.69 184.17V183.94C190.69 183.87 190.69 183.8 190.74 183.75C191.18 181.91 191.55 180.05 191.88 178.17C192.548 174.01 192.883 169.803 192.88 165.59V68.89L192.18 67.35Z" fill="white"/>
<path d="M228.863 171H220.356L244.961 103.989H253.338L277.943 171H269.436L249.411 114.59H248.888L228.863 171ZM232.004 144.824H266.295V152.022H232.004V144.824ZM325.028 120.742C324.635 117.426 323.043 114.852 320.251 113.02C317.458 111.188 314.034 110.271 309.976 110.271C307.01 110.271 304.414 110.751 302.189 111.711C299.986 112.671 298.263 113.991 297.019 115.67C295.798 117.35 295.187 119.259 295.187 121.396C295.187 123.185 295.612 124.723 296.463 126.01C297.336 127.275 298.448 128.333 299.8 129.184C301.153 130.013 302.571 130.7 304.054 131.245C305.537 131.769 306.901 132.194 308.144 132.521L314.95 134.353C316.695 134.811 318.636 135.444 320.774 136.251C322.934 137.058 324.995 138.16 326.958 139.556C328.943 140.93 330.579 142.697 331.866 144.857C333.153 147.016 333.797 149.666 333.797 152.808C333.797 156.429 332.848 159.701 330.95 162.624C329.074 165.547 326.326 167.87 322.705 169.593C319.105 171.316 314.732 172.178 309.584 172.178C304.785 172.178 300.629 171.404 297.117 169.855C293.627 168.306 290.879 166.147 288.872 163.376C286.887 160.606 285.763 157.388 285.502 153.724H293.878C294.096 156.254 294.947 158.348 296.43 160.006C297.935 161.642 299.833 162.864 302.124 163.671C304.436 164.456 306.923 164.849 309.584 164.849C312.681 164.849 315.462 164.347 317.927 163.343C320.392 162.318 322.345 160.9 323.784 159.09C325.224 157.258 325.944 155.12 325.944 152.677C325.944 150.452 325.322 148.641 324.079 147.245C322.835 145.849 321.199 144.715 319.171 143.842C317.142 142.97 314.95 142.206 312.594 141.552L304.349 139.196C299.113 137.691 294.969 135.542 291.915 132.75C288.861 129.958 287.334 126.304 287.334 121.789C287.334 118.037 288.348 114.765 290.377 111.973C292.427 109.159 295.176 106.978 298.622 105.429C302.091 103.858 305.963 103.073 310.238 103.073C314.557 103.073 318.396 103.847 321.756 105.396C325.115 106.923 327.776 109.017 329.739 111.678C331.724 114.34 332.771 117.361 332.881 120.742H325.028ZM374.885 133.895V141.094H345.568V133.895H374.885ZM426.166 120.742C425.773 117.426 424.181 114.852 421.389 113.02C418.596 111.188 415.172 110.271 411.114 110.271C408.148 110.271 405.552 110.751 403.327 111.711C401.124 112.671 399.401 113.991 398.157 115.67C396.936 117.35 396.325 119.259 396.325 121.396C396.325 123.185 396.75 124.723 397.601 126.01C398.474 127.275 399.586 128.333 400.938 129.184C402.291 130.013 403.709 130.7 405.192 131.245C406.675 131.769 408.039 132.194 409.282 132.521L416.088 134.353C417.833 134.811 419.774 135.444 421.912 136.251C424.072 137.058 426.133 138.16 428.096 139.556C430.081 140.93 431.717 142.697 433.004 144.857C434.291 147.016 434.935 149.666 434.935 152.808C434.935 156.429 433.986 159.701 432.088 162.624C430.212 165.547 427.464 167.87 423.843 169.593C420.243 171.316 415.87 172.178 410.722 172.178C405.923 172.178 401.767 171.404 398.255 169.855C394.765 168.306 392.017 166.147 390.01 163.376C388.025 160.606 386.902 157.388 386.64 153.724H395.016C395.234 156.254 396.085 158.348 397.568 160.006C399.073 161.642 400.971 162.864 403.262 163.671C405.574 164.456 408.061 164.849 410.722 164.849C413.819 164.849 416.601 164.347 419.065 163.343C421.53 162.318 423.483 160.9 424.922 159.09C426.362 157.258 427.082 155.12 427.082 152.677C427.082 150.452 426.46 148.641 425.217 147.245C423.973 145.849 422.337 144.715 420.309 143.842C418.28 142.97 416.088 142.206 413.732 141.552L405.487 139.196C400.251 137.691 396.107 135.542 393.053 132.75C389.999 129.958 388.472 126.304 388.472 121.789C388.472 118.037 389.486 114.765 391.515 111.973C393.566 109.159 396.314 106.978 399.761 105.429C403.229 103.858 407.101 103.073 411.376 103.073C415.695 103.073 419.534 103.847 422.894 105.396C426.253 106.923 428.914 109.017 430.877 111.678C432.862 114.34 433.909 117.361 434.019 120.742H426.166ZM460.448 171L442.125 103.989H450.37L464.375 158.566H465.029L479.295 103.989H488.457L502.723 158.566H503.377L517.381 103.989H525.627L507.304 171H498.927L484.138 117.601H483.614L468.825 171H460.448ZM579.713 103.989H587.828V148.358C587.828 152.938 586.748 157.028 584.589 160.628C582.451 164.205 579.43 167.03 575.525 169.102C571.621 171.153 567.04 172.178 561.783 172.178C556.526 172.178 551.945 171.153 548.04 169.102C544.136 167.03 541.104 164.205 538.944 160.628C536.806 157.028 535.737 152.938 535.737 148.358V103.989H543.852V147.703C543.852 150.975 544.572 153.887 546.012 156.44C547.451 158.97 549.502 160.966 552.163 162.427C554.846 163.867 558.053 164.587 561.783 164.587C565.513 164.587 568.719 163.867 571.402 162.427C574.085 160.966 576.136 158.97 577.554 156.44C578.993 153.887 579.713 150.975 579.713 147.703V103.989ZM604.033 171V103.989H644.213V111.188H612.147V133.83H641.203V141.028H612.147V171H604.033ZM658.111 171V103.989H698.291V111.188H666.225V133.83H695.281V141.028H666.225V171H658.111ZM706.569 171H698.062L722.668 103.989H731.044L755.65 171H747.142L727.118 114.59H726.594L706.569 171ZM709.711 144.824H744.001V152.022H709.711V144.824ZM766.087 171V103.989H774.202V133.83H809.932V103.989H818.047V171H809.932V141.028H774.202V171H766.087Z" fill="white"/>
</svg>
