<svg width="610" height="343" viewBox="0 0 610 343" fill="none" xmlns="http://www.w3.org/2000/svg">
<g clip-path="url(#clip0_414_672)">
<path d="M231.51 158.49C230.51 157.87 229.51 157.3 228.51 156.69C226.69 155.55 224.847 154.437 222.98 153.35C222.921 153.187 222.874 153.02 222.84 152.85C222.6 152.08 222.37 151.33 222.18 150.56C222.18 150.4 222.1 150.26 222.07 150.12C222.029 149.972 221.999 149.822 221.98 149.67L224.17 145.94L225.55 146.76L225.96 146.99C226.67 147.44 227.37 147.85 228.08 148.26C228.08 148.47 228.17 148.67 228.24 148.94C228.46 149.65 228.65 150.4 228.87 151.13C229.3 152.52 229.76 153.89 230.26 155.23C230.63 156.35 231.06 157.42 231.51 158.49Z" fill="white"/>
<path d="M240.63 156.05C240.23 156.62 239.88 157.22 239.52 157.81C239.27 158.21 239 158.63 238.77 159.03C238.54 159.43 238.29 159.79 238.07 160.19C237.7 160.8 237.36 161.37 236.99 161.96L235.24 160.84C234.01 160.07 232.77 159.27 231.52 158.52C231.07 157.45 230.64 156.38 230.25 155.29C229.75 153.95 229.25 152.58 228.86 151.19C228.64 150.46 228.45 149.71 228.23 149C228.16 148.73 228.11 148.53 228.07 148.32C231.78 150.55 235.41 152.78 238.87 155.01L240.63 156.05Z" fill="white"/>
<path d="M305.68 208.7L303.34 211.25L302.75 211.78H301H299.47H298.9C297.44 210.26 295.9 208.78 294.37 207.28C293.53 206.46 292.72 205.67 291.88 204.87C290.21 203.26 288.51 201.68 286.76 200.12C286.24 199.64 285.76 199.12 285.23 198.71L284.17 197.71L283.17 196.8C282.65 196.34 282.17 195.87 281.6 195.44C278.3 192.5 274.87 189.62 271.41 186.82C270.85 186.39 270.32 185.97 269.78 185.52C269.41 185.22 269.05 184.95 268.7 184.65L267.61 183.79C267.05 183.34 266.52 182.93 265.96 182.5C262.68 179.95 259.38 177.5 256.06 175.03C255.51 174.62 254.93 174.22 254.38 173.83C253.99 173.53 253.63 173.24 253.22 172.97C252.81 172.7 252.49 172.44 252.12 172.21C251.56 171.78 250.99 171.37 250.4 170.99C250.813 170.417 251.213 169.847 251.6 169.28L252.4 168.14L253.21 167C253.63 166.44 254.03 165.87 254.44 165.32C255.01 165.71 255.6 166.1 256.15 166.51C256.53 166.76 256.9 167.07 257.28 167.32C257.66 167.57 258.04 167.85 258.42 168.14C258.99 168.53 259.56 168.94 260.11 169.37C263.54 171.83 266.97 174.44 270.34 177.08C270.89 177.51 271.43 177.94 271.96 178.38C272.34 178.65 272.68 178.94 273.03 179.22L274.18 180.11L275.8 181.42C279.35 184.29 282.8 187.25 286.26 190.23L287.85 191.63L288.85 192.54C289.19 192.84 289.55 193.16 289.85 193.48C290.38 193.94 290.85 194.39 291.38 194.85C294.313 197.517 297.163 200.22 299.93 202.96C300.43 203.42 300.93 203.96 301.39 204.4C301.76 204.78 302.12 205.13 302.48 205.51C302.84 205.89 303.05 206.08 303.35 206.36L304.21 207.26L304.49 207.54L304.8 207.84L305.68 208.7Z" fill="white"/>
<path d="M230.24 155.25L227.44 153.54C226.12 152.75 224.8 151.95 223.44 151.16L224.87 148.77L226.22 149.58C227.1 150.08 227.95 150.58 228.83 151.14C229.28 152.55 229.78 153.92 230.24 155.25Z" fill="white"/>
<path d="M302.78 208.75L301.83 209.75L300.83 210.68L297.63 207.47C296.86 206.7 296.11 205.97 295.33 205.2C292.17 202.13 288.91 199.1 285.59 196.14C281.43 192.41 277.09 188.73 272.68 185.14L271.08 183.86C270.7 183.55 270.35 183.25 269.97 182.96C269.59 182.67 269.26 182.39 268.88 182.11C268.5 181.83 267.79 181.25 267.24 180.82C263.96 178.25 260.6 175.72 257.24 173.29L255.53 172.06C255.15 171.77 254.76 171.51 254.39 171.24C254.02 170.97 253.64 170.7 253.26 170.45C252.69 170.02 252.12 169.63 251.55 169.24L252.35 168.1L253.16 166.96L254.89 168.17L256.01 168.97L257.14 169.79C257.71 170.19 258.28 170.62 258.85 171.03C262.263 173.51 265.637 176.053 268.97 178.66C269.52 179.09 270.08 179.52 270.61 179.95L271.68 180.81C272.06 181.09 272.43 181.4 272.79 181.7C273.34 182.13 273.88 182.56 274.41 183C278.86 186.59 283.23 190.3 287.41 194.05C291.59 197.8 295.66 201.6 299.55 205.47C300.26 206.17 300.96 206.86 301.66 207.59C302.06 207.98 302.43 208.37 302.78 208.75Z" fill="white"/>
<path d="M378.27 147.25C377.96 149.13 377.58 150.97 377.14 152.82C375.38 153.82 373.63 154.9 371.95 155.97L369.19 157.66L367.29 158.86C366.67 159.22 366.1 159.6 365.5 159.98L363.16 161.48L362.95 161.62C362.43 161.96 361.95 162.29 361.42 162.62C358.207 164.72 355.053 166.843 351.96 168.99C351.41 169.38 350.83 169.78 350.28 170.18C349.5 170.71 348.75 171.25 348 171.78L347.86 171.88C347.34 172.26 346.86 172.61 346.29 172.99C342.94 175.41 339.57 177.91 336.29 180.49C335.73 180.9 335.18 181.32 334.64 181.77L332.46 183.5C331.93 183.92 331.41 184.33 330.88 184.77C327.37 187.58 323.88 190.46 320.53 193.39C319.99 193.85 319.53 194.31 318.96 194.78C318.27 195.36 317.59 195.95 316.96 196.57C316.96 196.57 316.96 196.57 316.88 196.63C316.36 197.08 315.88 197.56 315.33 198.01C312.71 200.39 310.14 202.81 307.62 205.23C306.85 205.96 306.09 206.72 305.34 207.47C305.22 207.57 305.12 207.69 305 207.81C303.93 208.86 302.86 209.93 301.81 211L301.12 211.71C300.6 211.71 300.12 211.71 299.57 211.71L295.21 207.81L295.7 207.29L296.61 206.36L296.83 206.16C297.09 205.89 297.35 205.61 297.63 205.35L298.56 204.35C299.07 203.85 299.56 203.35 300.04 202.9C303.43 199.51 306.98 196.18 310.59 192.9C311.11 192.42 311.59 191.97 312.16 191.51L312.26 191.39C312.93 190.82 313.59 190.22 314.26 189.65C314.93 189.08 315.26 188.73 315.83 188.28C319.3 185.28 322.83 182.28 326.45 179.42C327.01 178.98 327.55 178.54 328.08 178.11C328.79 177.53 329.53 176.96 330.26 176.4C330.8 175.95 331.33 175.53 331.89 175.09C335.32 172.44 338.81 169.84 342.28 167.34C342.79 166.94 343.28 166.59 343.84 166.21C343.875 166.177 343.916 166.15 343.96 166.13L346.24 164.51C346.8 164.11 347.37 163.71 347.95 163.32C351.14 161.09 354.43 158.85 357.8 156.67C358.26 156.34 358.73 156.04 359.21 155.74C359.31 155.66 359.43 155.6 359.55 155.5C360.3 155.03 361.09 154.5 361.89 154L363.65 152.89C366.31 151.22 369.02 149.54 371.82 147.89C372.61 147.43 373.41 146.96 374.2 146.48L375.11 145.95L376.92 144.88L378.27 147.25Z" fill="white"/>
<path d="M300.2 209.63L298.12 207.77L298.22 207.67C303.08 202.67 308.22 197.78 313.59 193.01C318.64 188.49 323.94 184.01 329.33 179.77C334.46 175.67 339.74 171.69 345 167.94C349.88 164.46 355 160.94 360.29 157.52C365.29 154.26 370.64 150.96 376.13 147.71L377.55 150.11C372.1 153.34 366.8 156.62 361.81 159.86C356.58 163.26 351.47 166.75 346.62 170.21C341.4 173.94 336.16 177.89 331.06 181.95C325.71 186.19 320.46 190.61 315.45 195.09C310.16 199.82 305.03 204.71 300.2 209.63Z" fill="white"/>
<path d="M225.6 36.42V39.54C225.4 39.45 224.6 39.04 223.53 38.49C222.62 37.99 221.71 37.49 220.8 37.06V37.01L222.03 34.58C222.22 34.6874 222.417 34.781 222.62 34.86C222.9 35.03 223.19 35.19 223.49 35.35C223.628 35.4004 223.759 35.4676 223.88 35.55L224.2 35.71L224.86 36.07C225.113 36.1723 225.36 36.2892 225.6 36.42V36.42Z" fill="#003038"/>
<path d="M320.51 107.66C319.96 108.09 319.39 108.52 318.85 108.98L317.33 107.48C317.12 107.25 316.91 107.06 316.67 106.84C316.23 106.39 315.8 105.98 315.34 105.52C314.84 105.06 314.34 104.58 313.82 104.08C314.39 103.65 314.91 103.2 315.46 102.77C315.98 103.27 316.46 103.77 316.98 104.24L318.14 105.34L319.01 106.2C319.53 106.68 320.01 107.18 320.51 107.66Z" fill="white"/>
<path d="M324.42 104.66C323.85 105.07 323.3 105.5 322.74 105.95L321.23 104.45C320.85 104.07 320.48 103.7 320.08 103.33C319.68 102.96 319.51 102.77 319.21 102.49C318.71 102 318.21 101.49 317.67 101.02C318.23 100.58 318.8 100.15 319.37 99.74C319.89 100.22 320.37 100.74 320.89 101.18L321.55 101.83C321.98 102.27 322.44 102.7 322.9 103.15C323.4 103.66 323.9 104.16 324.42 104.66Z" fill="white"/>
<path d="M335.15 123.25L336.52 124.84C335.95 125.25 335.41 125.66 334.84 126.09C334.4 125.55 333.92 125.02 333.47 124.5C333.216 124.235 332.979 123.955 332.76 123.66L331.61 122.39C331.15 121.86 330.67 121.39 330.2 120.82C330.77 120.41 331.31 119.98 331.88 119.57C332.34 120.09 332.83 120.57 333.29 121.14C333.75 121.71 333.99 121.91 334.29 122.29C334.59 122.67 334.88 122.94 335.15 123.25Z" fill="white"/>
<path d="M339.13 120.42C339.61 120.94 340.05 121.48 340.5 122.01C339.93 122.39 339.38 122.8 338.81 123.21C338.34 122.67 337.88 122.21 337.41 121.64C336.94 121.07 336.74 120.85 336.41 120.46C336.08 120.07 335.85 119.85 335.55 119.53C335.12 119.01 334.64 118.53 334.14 117.96C334.71 117.57 335.28 117.14 335.85 116.75C336.33 117.27 336.78 117.75 337.24 118.32L337.94 119.09C338.33 119.55 338.7 119.96 339.08 120.42H339.13Z" fill="white"/>
<path d="M350.01 141.8C350.46 142.38 350.87 142.95 351.24 143.52C350.67 143.87 350.1 144.27 349.53 144.66L348.3 143C348.03 142.66 347.78 142.32 347.53 142C347.28 141.68 346.94 141.2 346.62 140.81C346.21 140.22 345.8 139.69 345.36 139.13L347.09 137.96C347.51 138.51 347.94 139.06 348.35 139.62C348.66 140.01 348.92 140.38 349.23 140.78C349.54 141.18 349.78 141.43 350.01 141.8Z" fill="white"/>
<path d="M354.06 139.06C354.46 139.61 354.89 140.16 355.31 140.75C354.73 141.14 354.12 141.52 353.57 141.91C353.17 141.34 352.76 140.79 352.34 140.23C352.07 139.82 351.78 139.43 351.48 139.06C351.18 138.69 350.94 138.34 350.68 137.98C350.27 137.41 349.84 136.86 349.41 136.31L351.16 135.13L352.43 136.82L353.16 137.82C353.46 138.25 353.78 138.65 354.06 139.06Z" fill="white"/>
<path d="M362.58 160.47C362.77 160.81 362.97 161.13 363.17 161.47C363.102 161.527 363.028 161.577 362.95 161.62C362.44 161.96 361.95 162.29 361.42 162.62C361.22 162.26 361.01 161.91 360.79 161.55C360.57 161.19 360.49 161.07 360.33 160.84C359.85 160.02 359.33 159.23 358.87 158.46C358.51 157.85 358.13 157.28 357.76 156.71C358.21 156.37 358.69 156.06 359.15 155.78C359.268 155.703 359.382 155.62 359.49 155.53C359.85 156.14 360.22 156.72 360.61 157.31C361.1 158.1 361.61 158.88 362.08 159.67C362.26 159.94 362.42 160.25 362.58 160.47Z" fill="white"/>
<path d="M364.95 159.03L364.42 158.17C363.95 157.4 363.47 156.6 362.95 155.83C362.6 155.24 362.22 154.62 361.83 154.03L363.6 152.92C363.97 153.51 364.36 154.1 364.74 154.69C365.22 155.48 365.74 156.24 366.2 157.05C366.38 157.34 366.56 157.62 366.74 157.93C366.92 158.24 367.11 158.53 367.29 158.84C366.68 159.2 366.09 159.57 365.5 159.94C365.33 159.63 365.15 159.35 364.95 159.03Z" fill="white"/>
<path d="M372.11 167.17C371.91 167.59 371.72 168.02 371.52 168.45L370.88 169.74L370.82 169.84C370.82 169.9 370.75 169.95 370.73 170C370.71 170.05 370.63 170.2 370.57 170.29L366.97 172.29L365.97 170.47L365.84 170.25C365.45 169.54 365.04 168.84 364.63 168.13C364.84 167.74 365.09 167.33 365.29 166.9C365.466 166.595 365.626 166.281 365.77 165.96C366.27 164.96 366.77 163.96 367.16 162.89L368.16 160.48C368.62 161.24 369.05 161.97 369.52 162.74L372.03 167.18L372.11 167.17Z" fill="white"/>
<path d="M225.6 36.42V39.54C225.4 39.45 224.6 39.04 223.53 38.49L222.16 37.76C221.71 37.51 221.28 37.24 220.84 37.01L219.36 36.13V35.25L220.28 33.45C220.533 33.59 220.783 33.74 221.03 33.9L221.84 34.34L222.66 34.82C222.94 34.99 223.23 35.15 223.53 35.31C223.668 35.3604 223.799 35.4276 223.92 35.51L224.24 35.67L224.9 36.03C225.14 36.1467 225.374 36.2769 225.6 36.42V36.42Z" fill="#003038"/>
<path d="M370.22 168.11L367.78 169.45C367.51 169 367.28 168.54 366.99 168.09C366.6 167.37 366.21 166.64 365.78 165.91C366.28 164.91 366.78 163.91 367.17 162.84C367.64 163.59 368.06 164.3 368.48 165.04C369.09 166.06 369.66 167.09 370.22 168.11Z" fill="white"/>
<path d="M378.84 28.41L378.28 28.74C374.56 30.74 370.91 32.85 367.28 34.97C346.755 46.9042 327.266 60.5386 309.02 75.73C308.46 76.19 307.86 76.68 307.3 77.17C307.3 77.17 307.23 77.17 307.23 77.26C306.72 77.66 306.23 78.1 305.72 78.54C305.65 78.54 305.58 78.66 305.51 78.7C305.44 78.74 305.18 79 305.02 79.12L303.34 80.59C303.34 80.59 303.27 80.59 303.25 80.66C302.69 81.14 302.14 81.66 301.58 82.14C301.18 81.79 300.79 81.42 300.37 81.07C300.218 80.9203 300.054 80.7832 299.88 80.66C299.49 80.31 299.07 79.93 298.67 79.61C298.433 79.4223 298.209 79.2185 298 79C297.872 78.9171 297.748 78.827 297.63 78.73C297.21 78.35 296.79 78.01 296.39 77.66C296.23 77.54 296.09 77.38 295.93 77.28C295.51 76.89 295.09 76.56 294.67 76.21C274.64 59.5297 253.124 44.7211 230.39 31.97C226.99 30.06 223.55 28.16 220.06 26.3C219.97 26.23 219.85 26.2 219.76 26.13L220.39 18.13C229.057 22.69 237.463 27.4333 245.61 32.36C264.871 43.8836 283.182 56.925 300.37 71.36C300.76 71.69 301.16 72.04 301.55 72.36C301.55 72.36 301.6 72.36 301.62 72.31L302.69 71.38C302.9 71.19 303.14 71.03 303.34 70.84L305.34 69.19C320.542 56.5691 336.619 45.0402 353.45 34.69C361.45 29.69 369.74 24.88 378.3 20.25C378.44 20.16 378.56 20.11 378.72 20.02L378.84 28.41Z" fill="#A97C50"/>
<path d="M379.07 10.32L378.51 10.63C374.79 12.7 371.14 14.76 367.51 16.88C346.969 28.8048 327.47 42.4397 309.22 57.64L307.5 59.08C307.5 59.08 307.5 59.13 307.43 59.17C306.94 59.54 306.5 59.96 306.01 60.36C306.01 60.36 305.94 60.36 305.92 60.43C305.867 60.5027 305.794 60.5583 305.71 60.59C305.55 60.75 305.41 60.89 305.24 61.03L303.55 62.47C303.512 62.4981 303.478 62.5318 303.45 62.57L301.78 64.05L300.57 62.96C300.424 62.8214 300.271 62.6912 300.11 62.57C299.85 62.33 299.57 62.08 299.29 61.85L298.9 61.52C298.64 61.31 298.43 61.1 298.2 60.92C298.072 60.83 297.955 60.726 297.85 60.61C297.43 60.27 297.01 59.89 296.62 59.61C296.43 59.47 296.29 59.33 296.13 59.21C295.71 58.84 295.29 58.51 294.87 58.21C274.853 41.5098 253.335 26.6967 230.59 13.96C229.94 13.61 229.31 13.24 228.66 12.89C226.45 11.64 224.22 10.43 221.96 9.22C221.4 8.89 220.85 8.59001 220.26 8.29001C220.168 8.22315 220.067 8.16931 219.96 8.13L220.61 0.0799866C221.06 0.309987 221.52 0.549988 221.96 0.799988C224.22 1.98999 226.45 3.17 228.66 4.41C234.49 7.61 240.24 10.92 245.84 14.29C264.607 25.5638 282.477 38.2682 299.29 52.29L300.57 53.36C300.97 53.67 301.36 54.04 301.76 54.36C301.783 54.3676 301.807 54.3676 301.83 54.36C302.38 53.87 302.99 53.36 303.55 52.9C304.36 52.2 305.17 51.52 306.01 50.85C321.077 38.389 336.989 26.9851 353.63 16.72C361.67 11.72 369.953 6.91332 378.48 2.29999C378.616 2.21569 378.756 2.13892 378.9 2.07001L379.07 10.32Z" fill="#A97C50"/>
<path d="M223.53 60.99C224.23 61.33 224.9 61.71 225.6 62.08V70.02C224.92 69.65 224.24 69.24 223.53 68.9C222.32 68.24 221.09 67.56 219.82 66.9L219.36 66.67V63.25L221.21 59.7L223.09 60.7L223.53 60.95V60.99Z" fill="#003038"/>
<path d="M361.6 183.78L360.6 184.96L359.6 186.1C359.55 186.17 359.46 186.23 359.39 186.33L356.16 188.33L355.07 186.54L354.43 185.54C354.07 184.91 353.7 184.32 353.3 183.72C351.13 180.22 348.73 176.65 346.24 173.1C346.06 172.83 345.86 172.53 345.65 172.24C345.44 171.95 345.27 171.69 345.06 171.4C344.52 170.64 343.99 169.89 343.43 169.14C343.01 168.58 342.61 168.03 342.2 167.46C339.44 163.75 336.54 160.05 333.55 156.46C333.12 155.93 332.67 155.41 332.23 154.87L331.42 153.87C331.1 153.48 330.78 153.1 330.42 152.71C329.98 152.18 329.51 151.66 329.05 151.13C325.62 147.13 322.05 143.13 318.18 139.2C317.72 138.7 317.23 138.2 316.73 137.7C316.5 137.44 316.23 137.19 315.98 136.9C315.73 136.61 315.16 136.12 314.77 135.72L313.29 134.22C309.58 130.57 305.76 126.94 301.83 123.43C301.31 122.94 300.83 122.5 300.28 122.02C300.05 121.78 299.78 121.59 299.55 121.34C299.07 120.95 298.64 120.55 298.17 120.18C297.63 119.68 297.11 119.23 296.58 118.79C297.1 118.31 297.63 117.79 298.15 117.38C298.67 116.97 299.08 116.54 299.56 116.15L300.26 115.5C300.79 115.06 301.33 114.58 301.86 114.13C302.41 114.58 302.93 115.06 303.47 115.5C303.7 115.74 303.93 115.93 304.18 116.15L305.57 117.38C306.07 117.82 306.57 118.31 307.13 118.81C311.13 122.39 315 126.09 318.73 129.81L320.24 131.31C320.48 131.56 320.71 131.81 320.98 132.06C321.37 132.47 321.78 132.9 322.19 133.31C322.6 133.72 323.19 134.31 323.65 134.81C327.47 138.81 331.17 142.86 334.65 146.94C335.11 147.46 335.56 148 336 148.53L336.77 149.44C337.13 149.87 337.47 150.28 337.77 150.67C338.23 151.23 338.68 151.74 339.12 152.3C342.12 155.97 345.12 159.74 347.85 163.51C348.3 164.06 348.69 164.61 349.08 165.18C349.67 165.95 350.21 166.7 350.74 167.45L351.33 168.29C351.542 168.57 351.738 168.86 351.92 169.16C354.08 172.22 356.13 175.25 358.08 178.28C358.47 178.89 358.84 179.53 359.25 180.14C359.86 181.14 360.43 182.04 361.02 183.01L361.6 183.78Z" fill="white"/>
<path d="M223.53 63.35L225.6 64.45V67.61C224.9 67.26 224.23 66.88 223.53 66.51L220.78 65.04L222.08 62.58C222.57 62.83 223.05 63.1 223.53 63.35Z" fill="#003038"/>
<path d="M359.28 183.96L356.88 185.41L355.96 183.89C355.58 183.28 355.19 182.67 354.81 182.05C352.49 178.39 350.01 174.66 347.39 170.95C342.96 164.68 338.15 158.46 333.06 152.42C328.94 147.52 324.51 142.59 319.85 137.75C319.37 137.25 318.85 136.75 318.39 136.24L317.5 135.33L314.93 132.76C311.21 129.08 307.38 125.44 303.43 121.9C302.91 121.42 302.43 120.9 301.86 120.49C301.56 120.21 301.24 119.92 300.93 119.66C300.62 119.4 300.13 118.96 299.74 118.66C299.2 118.18 298.68 117.71 298.15 117.27C298.61 116.86 299.08 116.43 299.56 116.04L300.26 115.39C300.79 115.84 301.33 116.3 301.86 116.79C302.18 117.05 302.49 117.32 302.79 117.59C303.09 117.86 303.59 118.3 303.99 118.66C304.39 119.02 304.99 119.61 305.56 120.07C309.5 123.66 313.36 127.32 317.09 131.07L318.58 132.55C318.89 132.84 319.17 133.14 319.48 133.44C319.79 133.74 320.19 134.17 320.55 134.55C320.91 134.93 321.55 135.55 322.01 136.07C326.65 140.9 331.08 145.81 335.18 150.72C340.32 156.8 345.18 163.1 349.66 169.42C352.16 172.94 354.51 176.42 356.72 179.95C357.12 180.56 357.51 181.18 357.87 181.79C358.37 182.48 358.83 183.25 359.28 183.96Z" fill="white"/>
<path d="M269.56 117.94C269.08 118.46 268.63 119 268.15 119.51C267.88 119.82 267.59 120.14 267.33 120.46C267.07 120.78 266.65 121.23 266.33 121.6C265.87 122.13 265.44 122.65 264.98 123.19C264.42 122.78 263.85 122.39 263.28 121.99C251.155 113.416 238.598 105.469 225.66 98.18V90.25C240.239 98.2621 254.348 107.1 267.92 116.72C268.43 117.12 269 117.55 269.56 117.94Z" fill="white"/>
<path d="M225.6 90.25V98.19C224.9 97.82 224.23 97.43 223.53 97.07C222.28 96.38 221.02 95.66 219.77 94.98L219.36 94.77V91.4L221.28 87.86L223.1 88.86C223.249 88.9297 223.392 89.0099 223.53 89.1V89.1C224.23 89.44 224.9 89.85 225.6 90.25Z" fill="white"/>
<path d="M348.14 196.61L347.43 197.11C347.18 197.27 346.96 197.45 346.71 197.61C346.25 197.95 345.71 198.29 345.27 198.61L342.43 200.61L342.34 200.52L341.25 198.92C340.84 198.29 340.4 197.7 339.97 197.1L338.78 195.35C336.23 191.81 333.57 188.3 330.84 184.85C330.61 184.6 330.43 184.33 330.24 184.1C330.05 183.87 329.79 183.53 329.52 183.23C328.93 182.51 328.36 181.78 327.75 181.05C327.31 180.53 326.88 179.98 326.42 179.46C323.56 176.04 320.6 172.68 317.63 169.46C317.15 168.92 316.71 168.46 316.21 167.94C315.92 167.64 315.64 167.34 315.35 167.02C315.06 166.7 314.64 166.27 314.35 165.89C314.06 165.51 313.35 164.89 312.9 164.39C309.39 160.72 305.73 157.09 301.96 153.56C301.46 153.06 300.96 152.56 300.43 152.13C300.16 151.86 299.87 151.61 299.61 151.35C299.18 150.97 298.78 150.58 298.39 150.22C298 149.86 297.39 149.28 296.84 148.83C293.2 145.497 289.453 142.253 285.6 139.1C285.08 138.66 284.52 138.21 283.99 137.78C283.72 137.53 283.44 137.34 283.17 137.11C282.72 136.73 282.3 136.39 281.85 136.04C281.4 135.69 280.76 135.16 280.21 134.7C280.69 134.22 281.15 133.7 281.67 133.2C282.19 132.7 282.47 132.36 282.88 131.95L283.62 131.2C284.12 130.72 284.62 130.2 285.1 129.7C285.65 130.15 286.22 130.59 286.76 131.04C287.03 131.27 287.31 131.47 287.56 131.7L288.92 132.81C289.46 133.27 290 133.7 290.53 134.14C294.437 137.373 298.25 140.707 301.97 144.14C302.49 144.57 302.97 145.05 303.51 145.55C303.79 145.78 304.08 146.03 304.35 146.28C304.62 146.53 305.18 147.05 305.58 147.43C306.12 147.92 306.58 148.38 307.1 148.88C310.92 152.47 314.65 156.16 318.22 159.88C318.68 160.38 319.17 160.88 319.65 161.4C319.91 161.71 320.18 161.96 320.45 162.26C320.72 162.56 321.2 163.03 321.56 163.42L322.98 164.96C325.98 168.26 328.98 171.68 331.92 175.16L333.25 176.77C333.85 177.49 334.42 178.2 335.01 178.93C335.24 179.21 335.47 179.48 335.69 179.77L336.31 180.55C339.15 184.12 341.94 187.8 344.56 191.48C344.99 192.07 345.4 192.63 345.77 193.2C346.14 193.77 346.61 194.34 347 194.95L348.18 196.61H348.14Z" fill="white"/>
<path d="M225.6 92.62V95.79C224.92 95.4 224.23 95.03 223.53 94.65C222.6 94.13 221.69 93.65 220.76 93.12L222.1 90.67C222.58 90.94 223.1 91.19 223.53 91.46C224.23 91.83 224.92 92.25 225.6 92.62Z" fill="white"/>
<path d="M284.98 129.65C284.5 130.15 283.98 130.65 283.5 131.15L282.76 131.9C282.35 132.31 281.93 132.74 281.55 133.15C281.17 133.56 280.55 134.15 280.09 134.65C276.52 131.83 272.81 128.99 268.88 126.1C268.33 125.67 267.79 125.26 267.22 124.85C267.65 124.33 268.11 123.85 268.58 123.28C268.85 122.96 269.14 122.64 269.4 122.28L270.4 121.15C270.85 120.62 271.33 120.1 271.81 119.58C272.38 119.97 272.94 120.4 273.49 120.81C277.55 123.81 281.32 126.72 284.98 129.65Z" fill="white"/>
<path d="M345.23 196.11L342.95 197.7C342.54 197.11 342.14 196.54 341.71 195.95C341.28 195.36 340.93 194.83 340.5 194.26C337.733 190.4 334.837 186.58 331.81 182.8C327.04 176.86 321.99 171.06 316.81 165.56C312.52 160.99 308.01 156.47 303.37 152.1C302.87 151.62 302.37 151.1 301.83 150.67C301.53 150.37 301.21 150.07 300.89 149.78L299.78 148.78C299.26 148.3 298.78 147.84 298.21 147.37C294.55 144.04 290.77 140.75 286.93 137.59C286.39 137.13 285.86 136.68 285.3 136.26C284.98 135.97 284.66 135.72 284.3 135.45L283.11 134.45C282.57 134 282.03 133.57 281.48 133.13C281.86 132.72 282.28 132.29 282.69 131.88L283.43 131.13C283.98 131.58 284.53 132 285.07 132.45L286.07 133.25L287.25 134.25C287.8 134.68 288.34 135.13 288.87 135.59C292.74 138.79 296.56 142.09 300.26 145.46C300.78 145.91 301.26 146.39 301.81 146.87L302.76 147.73L303.86 148.73C304.38 149.2 304.86 149.73 305.38 150.18C310.02 154.53 314.54 159.05 318.82 163.62C324.03 169.15 329.12 175.01 333.94 181.02C336.94 184.84 339.94 188.75 342.77 192.67C343.18 193.25 343.59 193.8 343.98 194.37C344.37 194.94 344.84 195.54 345.23 196.11Z" fill="white"/>
<path d="M225.6 118.46V126.51C224.9 126.1 224.23 125.67 223.53 125.31C222.28 124.57 221.02 123.86 219.75 123.15L219.36 122.91V119.55L221.36 116.03L223.18 117.03L223.57 117.24C224.23 117.66 224.9 118.07 225.6 118.46Z" fill="white"/>
<path d="M254.32 136.32C253.89 136.88 253.48 137.43 253.07 137.98C252.933 138.139 252.806 138.306 252.69 138.48L252.25 139.06C251.96 139.45 251.67 139.82 251.39 140.23C251.11 140.64 250.57 141.34 250.18 141.91C249.63 141.52 249.04 141.13 248.45 140.75C241.11 135.81 233.45 131.04 225.64 126.51V118.46C234.94 123.74 243.99 129.35 252.64 135.13L254.32 136.32Z" fill="white"/>
<path d="M330.29 205.25L327.35 207.62C327.218 207.68 327.081 207.727 326.94 207.76C326.13 208.03 325.35 208.3 324.53 208.55L324.13 208.67L323.56 207.96C322.813 207.033 322.043 206.093 321.25 205.14C320.77 204.55 320.25 203.98 319.77 203.39C318.33 201.64 316.77 199.89 315.24 198.16C315.02 197.93 314.83 197.72 314.65 197.5C314.47 197.28 314.1 196.91 313.85 196.61C313.2 195.91 312.58 195.22 311.96 194.54L310.53 193C307.69 189.95 304.78 186.95 301.87 184.06C301.37 183.58 300.87 183.06 300.37 182.62C300.09 182.3 299.75 181.99 299.44 181.69C299.13 181.39 298.73 181.01 298.37 180.69C297.86 180.19 297.37 179.69 296.86 179.25C293.39 175.94 289.86 172.71 286.17 169.5L284.6 168.16C284.28 167.91 283.99 167.6 283.65 167.35C283.31 167.1 282.88 166.71 282.49 166.35C281.98 165.93 281.42 165.44 280.89 165.02C277.46 162.16 273.89 159.29 270.18 156.43C269.64 156 269.09 155.58 268.54 155.16L267.54 154.4C267.12 154.09 266.71 153.79 266.3 153.47C265.89 153.15 265.16 152.61 264.61 152.22L265.93 150.61C266.28 150.21 266.62 149.8 266.93 149.37C267.2 149.09 267.43 148.79 267.72 148.48C268.15 147.95 268.63 147.41 269.08 146.88L270.75 148.12L271.7 148.84C272.14 149.16 272.55 149.48 272.96 149.84C273.52 150.25 274.07 150.69 274.61 151.11C278.43 154.03 282.08 157.01 285.61 159.94L287.22 161.28C287.52 161.55 287.82 161.8 288.13 162.06C288.44 162.32 288.95 162.74 289.34 163.06C289.73 163.38 290.41 163.97 290.93 164.43C294.69 167.7 298.34 171.04 301.85 174.36C302.37 174.86 302.85 175.36 303.35 175.82C303.67 176.12 303.98 176.43 304.28 176.69C304.58 176.95 304.99 177.41 305.39 177.77C305.79 178.13 306.39 178.77 306.87 179.25C309.87 182.19 312.87 185.25 315.72 188.4C316.22 188.92 316.72 189.4 317.15 189.92C317.79 190.62 318.4 191.29 319.02 191.99C319.27 192.27 319.54 192.56 319.79 192.86C320.04 193.16 320.21 193.31 320.41 193.54C322.69 196.07 324.87 198.61 326.91 201.11C327.4 201.69 327.84 202.24 328.29 202.81C328.52 203.06 328.74 203.35 328.95 203.61L330.29 205.25Z" fill="white"/>
<path d="M225.6 120.87V124.08C224.9 123.67 224.23 123.28 223.53 122.89L220.78 121.32L222.13 118.87L223.56 119.69C224.23 120.07 224.9 120.46 225.6 120.87Z" fill="white"/>
<path d="M327.37 204.88L325.19 206.63C324.62 205.91 324.03 205.18 323.44 204.47C322.98 203.88 322.44 203.29 322 202.72C320.14 200.5 318.21 198.27 316.21 196.06C311.21 190.51 306.11 185.16 300.92 180.14C296.67 176.04 292.21 171.93 287.59 167.91C287.07 167.45 286.59 166.99 286.02 166.54L285.02 165.67C284.64 165.34 284.29 165.04 283.91 164.74C283.38 164.27 282.84 163.81 282.29 163.38C278.84 160.49 275.24 157.6 271.53 154.74C270.97 154.31 270.42 153.88 269.87 153.47C269.53 153.18 269.17 152.92 268.81 152.65L267.63 151.77C267.08 151.34 266.51 150.92 265.94 150.52C266.29 150.12 266.63 149.71 266.94 149.28C267.21 149 267.44 148.7 267.73 148.39C268.3 148.8 268.85 149.23 269.41 149.64C269.76 149.91 270.12 150.16 270.46 150.43L271.64 151.34C272.19 151.75 272.74 152.18 273.28 152.6C277.05 155.51 280.69 158.46 284.18 161.37C284.72 161.81 285.26 162.26 285.79 162.72C286.13 162.99 286.45 163.28 286.79 163.56C287.13 163.84 287.54 164.2 287.91 164.56C288.45 165.01 288.97 165.46 289.49 165.92C294.13 169.92 298.61 174.06 302.85 178.18C308.08 183.23 313.28 188.64 318.27 194.23C320.58 196.78 322.77 199.33 324.86 201.85C325.34 202.42 325.8 202.99 326.25 203.54C326.7 204.09 326.99 204.43 327.37 204.88Z" fill="white"/>
<path d="M286.05 101L284.53 102.49L283.66 103.33L282.51 104.45C281.99 104.95 281.51 105.45 281.01 105.93C280.45 105.46 279.9 105.05 279.35 104.64C262.339 91.7506 244.374 80.1706 225.61 70V62.06C246.193 72.9923 265.848 85.5875 284.38 99.72L286.05 101Z" fill="white"/>
<path d="M301.86 113.98C301.33 114.43 300.79 114.91 300.26 115.35L299.56 116C299.08 116.39 298.61 116.82 298.15 117.23C297.69 117.64 297.15 118.16 296.58 118.64C292.76 115.3 288.83 112.07 284.87 108.96C284.34 108.52 283.78 108.09 283.25 107.64C283.73 107.16 284.25 106.64 284.73 106.18C285.03 105.91 285.3 105.61 285.6 105.32L286.78 104.25C287.28 103.75 287.78 103.25 288.32 102.78C288.87 103.19 289.43 103.64 289.96 104.09C293.97 107.25 297.95 110.59 301.86 113.98Z" fill="white"/>
<path d="M269.08 146.77C268.63 147.3 268.15 147.84 267.72 148.37C267.43 148.68 267.2 148.98 266.93 149.26C266.61 149.69 266.27 150.1 265.93 150.5L264.61 152.11C261.2 149.58 257.74 147.11 254.22 144.65C253.65 144.24 253.1 143.86 252.53 143.47C252.92 142.9 253.31 142.33 253.72 141.78C253.856 141.613 253.982 141.44 254.1 141.26L254.54 140.69C254.81 140.31 255.11 139.92 255.4 139.55C255.81 138.99 256.22 138.44 256.67 137.89C257.24 138.28 257.81 138.65 258.38 139.06C261.99 141.57 265.58 144.16 269.08 146.77Z" fill="white"/>
<path d="M254.39 165.31C253.98 165.86 253.58 166.43 253.16 166.99L252.35 168.13L251.55 169.27C251.163 169.843 250.763 170.413 250.35 170.98C247.35 168.84 244.21 166.73 241.09 164.65C240.52 164.25 239.91 163.88 239.34 163.5C239.7 162.92 240.06 162.29 240.43 161.7C240.66 161.29 240.91 160.88 241.16 160.47L241.88 159.33C242.24 158.72 242.61 158.15 242.99 157.58C243.59 157.94 244.16 158.33 244.73 158.72C248 160.88 251.26 163.1 254.39 165.31Z" fill="white"/>
<path d="M305.64 87.33C305.09 87.78 304.56 88.23 304.02 88.69C304.56 89.14 305.09 89.58 305.63 90.06C309.8 93.67 313.84 97.36 317.63 101.06C318.15 101.54 318.63 102.06 319.17 102.53C319.47 102.81 319.74 103.1 320.04 103.37C320.34 103.64 320.81 104.11 321.19 104.49L322.7 105.99C326.7 109.93 330.48 113.99 334.09 117.99C334.59 118.51 335.09 119.04 335.5 119.56C335.8 119.88 336.09 120.17 336.36 120.49C336.63 120.81 337.05 121.26 337.36 121.67C337.67 122.08 338.29 122.67 338.76 123.24C342.47 127.57 346.02 131.95 349.34 136.34C349.77 136.89 350.2 137.44 350.61 138.01C350.87 138.37 351.16 138.73 351.41 139.09C351.66 139.45 352 139.85 352.27 140.26C352.69 140.82 353.1 141.37 353.5 141.94C356.39 145.94 359.15 149.94 361.78 154.06C362.17 154.65 362.55 155.27 362.9 155.86C363.42 156.63 363.9 157.43 364.37 158.2L364.9 159.06C365.1 159.38 365.28 159.66 365.45 159.98C366.03 160.93 366.6 161.89 367.13 162.82C366.7 163.82 366.24 164.89 365.74 165.89C364.9 164.44 364.03 162.98 363.12 161.46C362.92 161.14 362.72 160.82 362.53 160.46C362.34 160.1 362.21 159.93 362.03 159.66C361.55 158.87 361.03 158.09 360.56 157.3C360.17 156.71 359.8 156.13 359.44 155.52C356.83 151.52 354.07 147.43 351.19 143.52C350.82 142.95 350.41 142.38 349.96 141.8C349.713 141.427 349.453 141.067 349.18 140.72C348.87 140.32 348.61 139.95 348.3 139.56C347.89 139 347.46 138.45 347.04 137.9C343.72 133.52 340.18 129.17 336.49 124.9L335.15 123.25C334.88 122.93 334.59 122.61 334.31 122.25C334.03 121.89 333.65 121.48 333.31 121.1C332.97 120.72 332.31 120.1 331.9 119.53C328.3 115.53 324.48 111.53 320.53 107.61C320.03 107.13 319.53 106.61 319.03 106.13L318.16 105.27L316.98 104.25C316.5 103.75 315.98 103.25 315.46 102.78C311.63 99.13 307.63 95.48 303.46 91.91C302.92 91.43 302.39 90.99 301.85 90.52C301.32 90.99 300.78 91.47 300.25 91.91C296.1 95.5 292.07 99.16 288.25 102.78C287.73 103.28 287.25 103.78 286.71 104.25L285.57 105.35C285.27 105.64 285 105.94 284.7 106.21C284.2 106.69 283.7 107.21 283.22 107.67C279.22 111.6 275.44 115.62 271.81 119.67C271.33 120.19 270.81 120.67 270.4 121.24L269.4 122.37C269.14 122.69 268.85 123.01 268.58 123.37C268.11 123.9 267.65 124.42 267.22 124.94C263.51 129.28 259.96 133.63 256.66 137.94C256.21 138.49 255.8 139.04 255.39 139.6C255.1 139.97 254.8 140.36 254.53 140.74L254.09 141.31C253.972 141.49 253.846 141.663 253.71 141.83C253.3 142.38 252.91 142.95 252.52 143.52C249.2 148.13 246.01 152.86 243.03 157.62C242.65 158.19 242.28 158.76 241.92 159.37L241.2 160.51C240.95 160.92 240.7 161.33 240.47 161.74C240.1 162.33 239.74 162.96 239.38 163.54C238.44 165.17 237.49 166.79 236.58 168.42C236.01 167.49 235.48 166.56 234.98 165.61C235.65 164.4 236.35 163.21 237.05 161.99C237.42 161.4 237.76 160.83 238.13 160.22C238.35 159.82 238.58 159.45 238.83 159.06C239.08 158.67 239.33 158.24 239.58 157.84C239.94 157.25 240.29 156.65 240.69 156.08C243.69 151.29 246.88 146.56 250.24 141.94C250.63 141.37 251.04 140.82 251.45 140.26C251.86 139.7 252.02 139.48 252.31 139.09L252.75 138.51C252.866 138.336 252.993 138.169 253.13 138.01C253.54 137.46 253.95 136.91 254.38 136.35C257.69 131.98 261.24 127.59 264.99 123.24C265.45 122.7 265.88 122.18 266.34 121.65C266.68 121.28 267.02 120.88 267.34 120.51C267.66 120.14 267.89 119.87 268.16 119.56C268.64 119.05 269.09 118.51 269.57 117.99C273.19 113.99 277.05 109.94 281.01 105.99C281.51 105.49 282.01 104.99 282.51 104.51L283.66 103.39L284.53 102.55L286.05 101.06C289.89 97.42 293.9 93.75 298.1 90.12C298.63 89.66 299.17 89.21 299.7 88.73C299.17 88.25 298.61 87.8 298.08 87.39C275.653 68.975 251.361 52.9578 225.6 39.6V36.48C252.156 50.1291 277.178 66.5757 300.24 85.54C300.79 86 301.33 86.45 301.86 86.91L303.5 85.54C325.052 67.7804 348.344 52.2447 373.02 39.17V42.25C349.151 55.0554 326.585 70.1532 305.64 87.33V87.33Z" fill="#A97C50"/>
<path d="M237.78 170.43C237.4 171.11 237.03 171.81 236.65 172.5C236.562 172.63 236.485 172.767 236.42 172.91L235.42 174.73L231.91 172.84C231.894 172.799 231.87 172.762 231.84 172.73C231.76 172.62 231.689 172.503 231.63 172.38C231.23 171.77 230.88 171.16 230.52 170.54C230.45 170.43 230.39 170.32 230.32 170.22C230.25 170.12 230.27 170.13 230.25 170.07C230.23 170.01 230.25 170.02 230.2 170C230.182 169.968 230.162 169.938 230.14 169.91L230.3 169.62C231.02 168.28 231.78 166.93 232.53 165.57C232.93 164.84 233.34 164.12 233.77 163.39C234.14 164.16 234.52 164.87 234.93 165.6C235.43 166.55 235.93 167.48 236.53 168.41C236.66 168.62 236.78 168.85 236.92 169.08C237.06 169.31 237.21 169.55 237.35 169.76C237.49 169.97 237.55 170.05 237.66 170.21C237.684 170.26 237.714 170.307 237.75 170.35C237.755 170.378 237.766 170.405 237.78 170.43V170.43Z" fill="#A97C50"/>
<path d="M377.86 39.66C377.52 39.86 377.16 40.04 376.78 40.23C376.4 40.42 375.71 40.82 375.12 41.13L373.02 42.23V39.11C373.148 39.0488 373.272 38.9787 373.39 38.9C373.5 38.846 373.607 38.7859 373.71 38.72C374.09 38.5 374.57 38.25 375.12 37.97C375.67 37.69 376.12 37.45 376.55 37.2V37.25L377.86 39.66Z" fill="#A97C50"/>
<path d="M379.3 37.91V38.91C378.87 39.15 378.37 39.4 377.86 39.66C377.52 39.86 377.16 40.04 376.78 40.23C376.4 40.42 375.71 40.82 375.12 41.13L373.02 42.23V39.11C373.148 39.0488 373.272 38.9787 373.39 38.9C373.5 38.846 373.607 38.7859 373.71 38.72C374.09 38.5 374.57 38.25 375.12 37.97L376.59 37.25L377.09 37.04C377.246 36.9617 377.406 36.8915 377.57 36.83C377.89 36.68 378.21 36.54 378.51 36.43L379.3 37.91Z" fill="#A97C50"/>
<path d="M320.51 107.66C319.96 108.09 319.39 108.52 318.85 108.98C314.89 112.087 310.983 115.313 307.13 118.66C306.59 119.08 306.13 119.53 305.56 120.03C305.11 120.4 304.65 120.8 304.2 121.19C303.93 121.44 303.7 121.63 303.47 121.87C302.94 122.34 302.47 122.78 301.9 123.27C297.99 126.78 294.14 130.41 290.46 134.06C289.96 134.56 289.46 135.06 288.96 135.56C288.46 136.06 288.18 136.37 287.77 136.76L287 137.54C286.52 138.06 286 138.54 285.54 139.04C281.75 142.99 278.11 146.99 274.67 150.97L273.31 152.55C272.99 152.95 272.65 153.34 272.31 153.73C271.97 154.12 271.78 154.37 271.53 154.73C271.04 155.27 270.63 155.79 270.17 156.32C266.67 160.61 263.28 164.96 260.1 169.32C259.69 169.87 259.26 170.44 258.89 171.02C258.59 171.37 258.35 171.75 258.09 172.12C257.83 172.49 257.55 172.91 257.28 173.3C256.87 173.85 256.48 174.42 256.07 175C253.89 178.19 251.77 181.46 249.75 184.72C249.36 185.31 248.98 185.94 248.63 186.53C248.38 186.9 248.16 187.29 247.93 187.67L246.86 189.47L243.67 187.56C243.67 187.51 243.54 187.46 243.49 187.38C242.76 186.63 242.06 185.9 241.35 185.15L241.97 184.09C242.49 183.2 243.04 182.31 243.63 181.43C243.99 180.81 244.38 180.2 244.76 179.61C246.58 176.71 248.47 173.83 250.41 171.01C250.823 170.437 251.223 169.867 251.61 169.3L252.41 168.16L253.22 167.02C253.64 166.46 254.04 165.89 254.45 165.34C257.66 160.91 261.07 156.49 264.64 152.15L265.96 150.54C266.31 150.14 266.65 149.73 266.96 149.3C267.23 149.02 267.46 148.72 267.75 148.41C268.18 147.88 268.66 147.34 269.11 146.81C272.603 142.737 276.27 138.697 280.11 134.69C280.59 134.21 281.05 133.69 281.57 133.19C282.09 132.69 282.37 132.35 282.78 131.94L283.52 131.19C284.02 130.71 284.52 130.19 285 129.69C288.75 125.98 292.64 122.28 296.6 118.69C297.12 118.21 297.65 117.69 298.17 117.28C298.69 116.87 299.1 116.44 299.58 116.05L300.28 115.4C300.81 114.96 301.35 114.48 301.88 114.03C305.78 110.59 309.78 107.25 313.78 104.06C314.35 103.63 314.87 103.18 315.42 102.75C315.94 103.25 316.42 103.75 316.94 104.22L318.1 105.32L318.97 106.18C319.53 106.68 320.01 107.18 320.51 107.66Z" fill="white"/>
<path d="M379.3 65.97V69.34L378.87 69.58C377.62 70.25 376.37 70.95 375.12 71.65L373.02 72.81C356.1 82.2857 339.861 92.9281 324.42 104.66C323.85 105.07 323.3 105.5 322.74 105.95L321.23 104.45C320.85 104.07 320.48 103.7 320.08 103.33C319.68 102.96 319.51 102.77 319.21 102.49C318.71 102 318.21 101.49 317.67 101.02C318.23 100.58 318.8 100.15 319.37 99.74C336.345 86.7732 354.28 75.1131 373.02 64.86C373.73 64.47 374.43 64.06 375.12 63.69L375.55 63.45L377.37 62.45L379.3 65.97Z" fill="white"/>
<path d="M319.01 106.18L317.33 107.48C313.33 110.62 309.41 113.87 305.57 117.23C305.04 117.67 304.57 118.14 303.99 118.62C303.41 119.1 303.18 119.3 302.79 119.62C302.4 119.94 302.16 120.17 301.86 120.45C301.34 120.9 300.86 121.36 300.31 121.85C296.37 125.38 292.53 129.02 288.83 132.72L287.33 134.21L286.26 135.29C285.95 135.59 285.67 135.89 285.36 136.2C284.88 136.7 284.36 137.2 283.9 137.69C280.12 141.69 276.46 145.69 273.01 149.69C272.55 150.21 272.1 150.74 271.66 151.28C271.34 151.65 271.02 152.01 270.66 152.38C270.3 152.75 270.09 153.06 269.81 153.38L268.47 154.98C264.93 159.27 261.54 163.66 258.35 168.05C257.94 168.6 257.53 169.17 257.12 169.74L256.31 170.87C256.04 171.24 255.78 171.64 255.51 172.03C255.1 172.6 254.71 173.17 254.31 173.76C252.17 176.873 250.113 180.013 248.14 183.18C247.76 183.79 247.39 184.4 247.03 185C246.69 185.52 246.39 186 246.03 186.54L243.64 185.09C244.07 184.38 244.51 183.65 244.96 182.93C245.41 182.21 245.73 181.7 246.1 181.09C248.01 178.09 249.97 175.09 252.01 172.09C252.4 171.51 252.79 170.94 253.2 170.37C253.47 169.98 253.74 169.61 254.01 169.21C254.28 168.81 254.54 168.44 254.83 168.07C255.22 167.5 255.63 166.95 256.04 166.37C259.25 161.95 262.64 157.56 266.21 153.24C266.64 152.7 267.09 152.17 267.53 151.63C267.97 151.09 268.16 150.87 268.48 150.49C268.8 150.11 269.03 149.83 269.34 149.49C269.77 148.96 270.23 148.42 270.69 147.88C274.157 143.88 277.823 139.88 281.69 135.88C282.15 135.36 282.64 134.88 283.14 134.36C283.64 133.84 283.85 133.63 284.21 133.25C284.57 132.87 284.79 132.65 285.1 132.36C285.6 131.86 286.1 131.36 286.6 130.88C290.333 127.167 294.177 123.5 298.13 119.88C298.64 119.42 299.13 118.93 299.7 118.47L300.89 117.4C301.2 117.13 301.5 116.86 301.82 116.6C302.36 116.11 302.89 115.65 303.43 115.2C307.3 111.83 311.28 108.53 315.3 105.37C315.83 104.92 316.38 104.48 316.94 104.07L318.1 105.17L319.01 106.18Z" fill="white"/>
<path d="M377.87 67.74C376.95 68.24 376.03 68.74 375.12 69.25L373.02 70.41C355.567 80.1247 338.825 91.0654 322.92 103.15V103.15C322.37 103.59 321.8 104.02 321.25 104.45C320.87 104.07 320.5 103.7 320.1 103.33C319.7 102.96 319.53 102.77 319.23 102.49C319.78 102.04 320.35 101.61 320.91 101.18C337.43 88.6153 354.846 77.2751 373.02 67.25L375.12 66.09C375.59 65.82 376.07 65.57 376.55 65.3L377.87 67.74Z" fill="white"/>
<path d="M335.15 123.25L336.52 124.84C335.95 125.25 335.41 125.66 334.84 126.09C330.9 128.96 327.2 131.82 323.65 134.64L322.01 135.98C321.55 136.33 321.14 136.67 320.69 137.05C320.42 137.28 320.14 137.47 319.87 137.72C319.32 138.15 318.78 138.6 318.25 139.04C314.43 142.22 310.68 145.47 307.04 148.77C306.52 149.22 306.04 149.7 305.49 150.16C305.1 150.55 304.69 150.89 304.3 151.27L303.46 152.05C302.96 152.52 302.46 152.98 301.92 153.48C298.17 157.01 294.51 160.64 291 164.31C290.5 164.79 290 165.31 289.55 165.81C289.15 166.18 288.85 166.54 288.49 166.92C288.13 167.3 287.9 167.54 287.64 167.84C287.15 168.33 286.71 168.84 286.23 169.36C282.597 173.287 279.113 177.303 275.78 181.41C275.32 181.94 274.89 182.5 274.44 183.03C274.16 183.39 273.87 183.75 273.57 184.1C273.27 184.45 273 184.82 272.69 185.19L271.41 186.81C269.16 189.74 266.91 192.74 264.75 195.74C264.36 196.33 263.95 196.89 263.54 197.46C263.13 198.03 262.65 198.72 262.22 199.37L261.15 200.9L261.01 201.08L258.17 199.25L258.05 199.16C258.05 199.16 257.94 199.11 257.89 199.07L255.23 197.22L256.42 195.5C256.81 194.91 257.19 194.38 257.58 193.84C257.97 193.26 258.37 192.69 258.8 192.14C261.1 188.89 263.49 185.7 265.93 182.59C266.35 182.02 266.79 181.49 267.22 180.95L268.11 179.85C268.4 179.51 268.67 179.13 268.97 178.79C269.4 178.24 269.84 177.71 270.29 177.17C273.7 172.99 277.23 168.94 280.84 165.02L282.25 163.48L283.34 162.32L284.16 161.46C284.65 160.96 285.16 160.46 285.61 159.94C289.18 156.19 292.91 152.52 296.73 148.94C297.23 148.44 297.73 147.94 298.23 147.49L299.48 146.34C299.74 146.09 300.01 145.84 300.28 145.61C300.8 145.11 301.28 144.61 301.83 144.2C305.557 140.793 309.377 137.46 313.29 134.2C313.81 133.74 314.36 133.29 314.9 132.87C315.44 132.45 315.79 132.12 316.27 131.76C316.52 131.53 316.81 131.31 317.06 131.1C317.61 130.63 318.16 130.21 318.7 129.76C322.36 126.85 326.14 123.94 330.17 120.94C330.74 120.53 331.28 120.1 331.85 119.69C332.31 120.21 332.8 120.69 333.26 121.26C333.72 121.83 333.96 122.03 334.26 122.41C334.56 122.79 334.88 122.94 335.15 123.25Z" fill="white"/>
<path d="M379.3 94.19V97.52L378.91 97.76C377.64 98.47 376.37 99.18 375.12 99.92C374.43 100.29 373.73 100.7 373.02 101.13C361.65 107.73 350.75 114.73 340.5 122.01C339.93 122.39 339.38 122.8 338.81 123.21C338.34 122.67 337.88 122.21 337.41 121.64C336.94 121.07 336.74 120.85 336.41 120.46C336.08 120.07 335.85 119.85 335.55 119.53C335.12 119.01 334.64 118.53 334.14 117.96C334.71 117.57 335.28 117.14 335.85 116.75C347.814 108.231 360.21 100.337 372.99 93.1C373.7 92.71 374.4 92.3 375.09 91.9L375.49 91.69L377.29 90.69L379.3 94.19Z" fill="white"/>
<path d="M334.31 122.3C334.59 122.62 334.88 122.94 335.15 123.3L333.47 124.55C329.47 127.46 325.78 130.31 322.19 133.19L320.55 134.51L319.37 135.51L318.37 136.32C317.81 136.76 317.28 137.21 316.74 137.65C312.887 140.83 309.127 144.09 305.46 147.43C304.93 147.9 304.41 148.36 303.89 148.84C303.37 149.32 303.14 149.52 302.79 149.84C302.44 150.16 302.14 150.43 301.84 150.73C301.32 151.2 300.84 151.73 300.31 152.16C296.54 155.71 292.86 159.35 289.31 163.05C288.81 163.55 288.31 164.05 287.86 164.58C287.51 164.92 287.19 165.28 286.86 165.58C286.53 165.88 286.25 166.24 285.95 166.58C285.46 167.1 284.95 167.58 284.54 168.12C280.95 172.01 277.45 176.02 274.08 180.12C273.61 180.66 273.18 181.2 272.74 181.75C272.43 182.11 272.15 182.46 271.86 182.82C271.57 183.18 271.27 183.55 271.01 183.93C270.54 184.46 270.13 185.01 269.7 185.55C267.37 188.55 265.06 191.64 262.85 194.76C262.42 195.33 262.03 195.88 261.65 196.45C261.27 197.02 260.8 197.65 260.39 198.24L258.09 196.65L259.26 194.97L260.46 193.28C262.74 190.07 265.12 186.91 267.53 183.82C267.95 183.27 268.38 182.71 268.81 182.18C269.1 181.8 269.4 181.43 269.69 181.07C269.98 180.71 270.26 180.36 270.56 180L271.86 178.39C275.27 174.25 278.79 170.2 282.41 166.29C282.86 165.78 283.32 165.29 283.82 164.76C284.14 164.4 284.48 164.03 284.82 163.67C285.16 163.31 285.41 163.04 285.73 162.72C286.19 162.21 286.73 161.72 287.18 161.19C290.73 157.46 294.44 153.78 298.24 150.19C298.74 149.71 299.24 149.19 299.76 148.76C300.12 148.43 300.49 148.07 300.87 147.76C301.25 147.45 301.49 147.19 301.81 146.9C302.31 146.42 302.81 145.96 303.35 145.49C307.04 142.12 310.86 138.82 314.75 135.62C315.29 135.16 315.82 134.71 316.37 134.28L317.55 133.28L318.55 132.48C319.09 132.03 319.64 131.59 320.21 131.16C323.82 128.25 327.59 125.36 331.58 122.41L333.26 121.16C333.65 121.53 333.99 121.92 334.31 122.3Z" fill="white"/>
<path d="M377.89 95.94C376.96 96.45 376.05 96.94 375.12 97.51C374.41 97.9 373.71 98.31 373.02 98.7C361.13 105.56 349.76 112.84 339.11 120.4L337.41 121.64C337.09 121.23 336.74 120.85 336.41 120.46C336.08 120.07 335.85 119.85 335.55 119.53C336.12 119.12 336.69 118.69 337.28 118.3C348.49 110.3 360.48 102.66 373.03 95.49C373.72 95.08 374.42 94.69 375.13 94.29L376.54 93.49L377.89 95.94Z" fill="white"/>
<path d="M379.3 122.44V125.81L378.95 126.01L375.12 128.25C374.43 128.67 373.73 129.06 373.02 129.5C366.947 133.127 361.043 136.867 355.31 140.72C354.72 141.12 354.12 141.5 353.57 141.89C353.13 142.17 352.74 142.47 352.32 142.74C351.9 143.01 351.63 143.22 351.32 143.48C350.74 143.83 350.17 144.23 349.59 144.63C346.1 147.07 342.59 149.57 339.22 152.1C338.65 152.5 338.09 152.92 337.54 153.35C336.99 153.78 336.71 153.97 336.29 154.26C335.87 154.55 335.63 154.78 335.29 155.02C334.73 155.43 334.2 155.87 333.64 156.29C329.97 159.14 326.39 162.02 322.96 164.87C322.42 165.31 321.88 165.78 321.35 166.22L320.16 167.22L319.23 168.03C318.69 168.47 318.23 168.93 317.64 169.4C313.953 172.587 310.383 175.827 306.93 179.12C306.42 179.59 305.93 180.12 305.43 180.57C305.07 180.9 304.69 181.24 304.36 181.57C304.03 181.9 303.72 182.16 303.42 182.48L301.94 183.91C298.41 187.4 294.94 191.04 291.51 194.77C291.03 195.29 290.56 195.77 290.1 196.32C289.78 196.65 289.51 196.97 289.19 197.32C288.87 197.67 288.55 198.03 288.26 198.32C287.78 198.86 287.26 199.32 286.87 199.91C285.87 201 284.97 202.09 284.05 203.2C283.54 203.79 283.05 204.39 282.55 204.98C281.73 205.98 280.96 206.91 280.19 207.86L279.67 208.51C278.82 208.27 277.99 208.04 277.15 207.76L276.84 207.66C276.36 207.52 275.84 207.34 275.41 207.18V206.69L273.47 205.12L274.77 203.5C274.97 203.26 275.19 203 275.39 202.74C275.85 202.17 276.3 201.61 276.8 201.04C278.38 199.107 280.01 197.183 281.69 195.27C282.13 194.73 282.61 194.22 283.08 193.68C283.38 193.32 283.7 192.97 284.01 192.61C284.32 192.25 284.63 191.94 284.93 191.61C285.38 191.09 285.86 190.61 286.33 190.06C289.8 186.25 293.33 182.55 296.96 179C297.46 178.48 297.96 178 298.45 177.53C298.81 177.17 299.18 176.82 299.54 176.53C299.9 176.24 300.11 175.96 300.43 175.66C300.93 175.2 301.43 174.66 301.94 174.21C305.47 170.88 309.12 167.55 312.88 164.28C313.4 163.82 313.88 163.36 314.47 162.91C314.87 162.55 315.26 162.21 315.66 161.91L316.59 161.11C317.13 160.68 317.59 160.22 318.2 159.79C321.71 156.85 325.37 153.88 329.2 150.94C329.76 150.53 330.31 150.09 330.87 149.67C331.28 149.34 331.7 149.02 332.14 148.67L333.14 147.96C333.71 147.52 334.27 147.11 334.82 146.71C338.33 144.07 341.94 141.49 345.53 139L347.25 137.81C347.69 137.51 348.11 137.21 348.54 136.93L349.54 136.22C350.12 135.84 350.71 135.45 351.29 135.05C358.29 130.33 365.66 125.73 373.18 121.33C373.89 120.91 374.59 120.52 375.28 120.1L375.64 119.9L377.44 118.85L379.3 122.44Z" fill="white"/>
<path d="M278.04 207.25H277.38V205.85L276.3 204.99C279.16 201.42 282.24 197.79 285.47 194.19C290.47 188.6 295.66 183.19 300.91 178.13C305.97 173.22 311.37 168.31 316.91 163.55C322.04 159.18 327.53 154.76 333.24 150.42C338.53 146.42 344 142.49 349.52 138.73C358.12 132.87 367.19 127.16 376.52 121.79L377.92 124.2C368.69 129.54 359.68 135.2 351.13 141.04C345.65 144.77 340.22 148.67 334.97 152.64C329.3 156.95 323.85 161.34 318.76 165.64C313.22 170.36 307.87 175.23 302.84 180.11C297.65 185.11 292.5 190.48 287.55 196.02C284.35 199.58 281.3 203.18 278.47 206.7L278.04 207.25Z" fill="white"/>
<path d="M378.53 36.43C378.23 36.54 377.91 36.68 377.59 36.83C377.426 36.8915 377.266 36.9617 377.11 37.04C376.95 37.11 376.78 37.18 376.61 37.27V37.22C376.15 37.47 375.67 37.74 375.18 37.99C374.69 38.24 374.18 38.52 373.77 38.74C373.667 38.8059 373.56 38.866 373.45 38.92C373.332 38.9987 373.208 39.0688 373.08 39.13V134.63C373.069 139.068 372.634 143.495 371.78 147.85V147.85C371.62 148.85 371.4 149.74 371.17 150.67C371.1 151.01 371.03 151.33 370.94 151.67V151.9C370.71 152.79 370.46 153.63 370.21 154.52C369.96 155.41 369.59 156.52 369.21 157.52C368.83 158.52 368.59 159.34 368.21 160.26L367.21 162.67C366.78 163.67 366.32 164.74 365.82 165.74C365.676 166.061 365.516 166.375 365.34 166.68C365.14 167.11 364.89 167.52 364.68 167.91C362.801 171.424 360.623 174.769 358.17 177.91C357.72 178.46 357.24 179.05 356.79 179.64L355.03 181.64C354.96 181.64 354.94 181.71 354.88 181.78C354.41 182.31 353.93 182.85 353.41 183.37C350.69 186.215 347.736 188.828 344.58 191.18C344.04 191.61 343.49 192.02 342.9 192.41C342.56 192.66 342.19 192.9 341.83 193.15C341.47 193.4 340.99 193.68 340.58 193.97C339.99 194.34 339.42 194.72 338.81 195.06C335.075 197.338 331.13 199.254 327.03 200.78V200.78C326.37 201.03 325.69 201.27 325.03 201.5C325.007 201.492 324.983 201.492 324.96 201.5C324.03 201.84 323.07 202.12 322.12 202.41C321.37 202.62 320.67 202.84 319.9 203.03C315.879 204.051 311.777 204.72 307.64 205.03C306.64 205.1 305.54 205.18 304.48 205.21C303.88 205.21 303.3 205.21 302.7 205.21H301.78C301.33 205.21 300.83 205.21 300.37 205.21H299.53C298.85 205.21 298.15 205.21 297.53 205.1C296.91 204.99 296.05 205.01 295.34 204.94C294.18 204.85 293.09 204.73 291.94 204.55C289.275 204.213 286.63 203.726 284.02 203.09C283.27 202.89 282.5 202.71 281.75 202.5C280.75 202.21 279.83 201.95 278.84 201.64C278.794 201.603 278.739 201.579 278.68 201.57L278.42 201.5C277.88 201.32 277.29 201.12 276.74 200.91C272.581 199.473 268.564 197.656 264.74 195.48C264.14 195.15 263.53 194.81 262.94 194.48C262.478 194.231 262.034 193.95 261.61 193.64L260.61 193.02C260.02 192.63 259.48 192.23 258.9 191.82C255.678 189.635 252.639 187.194 249.81 184.52C249.28 184.02 248.76 183.52 248.28 183.04L247.99 182.76C247.4 182.15 246.83 181.58 246.3 180.97C245.8 180.47 245.3 179.97 244.84 179.41C242.318 176.534 240.021 173.468 237.97 170.24L237.9 170.15C237.864 170.108 237.834 170.06 237.81 170.01C237.7 169.85 237.59 169.71 237.5 169.56C237.41 169.41 237.22 169.12 237.07 168.88C236.92 168.64 236.81 168.42 236.68 168.21C236.11 167.28 235.58 166.35 235.08 165.4C234.67 164.67 234.29 163.96 233.92 163.19C233.086 161.615 232.339 159.996 231.68 158.34C231.23 157.27 230.8 156.2 230.41 155.11C229.91 153.77 229.41 152.4 229.02 151.01C228.8 150.28 228.61 149.53 228.39 148.82C228.32 148.55 228.27 148.35 228.23 148.14C226.603 141.863 225.777 135.405 225.77 128.92V36.42C225.544 36.2871 225.31 36.1669 225.07 36.06L224.41 35.7C224.307 35.6341 224.2 35.574 224.09 35.52L223.7 35.31C223.09 34.99 222.52 34.67 221.99 34.36L221.18 33.92L220.43 33.49L219.51 35.29V129.01C219.503 135.969 220.377 142.901 222.11 149.64C222.126 149.794 222.163 149.946 222.22 150.09C222.22 150.23 222.29 150.37 222.33 150.53C222.52 151.3 222.75 152.05 222.99 152.82C222.99 152.98 223.09 153.15 223.15 153.32C224.892 159.099 227.291 164.658 230.3 169.89V169.89C230.3 169.89 230.3 169.95 230.3 169.98C230.3 170.01 230.3 170.04 230.35 170.05C230.4 170.06 230.41 170.16 230.42 170.2C230.43 170.24 230.55 170.41 230.62 170.52C230.98 171.14 231.33 171.75 231.73 172.36C231.79 172.483 231.86 172.6 231.94 172.71L232.03 172.82C232.69 173.91 233.38 174.98 234.12 176.03C234.86 177.08 235.6 178.14 236.38 179.17C237.944 181.237 239.613 183.223 241.38 185.12V185.12C242.09 185.87 242.79 186.6 243.52 187.35C243.57 187.43 243.66 187.48 243.7 187.53C248.02 191.849 252.802 195.678 257.96 198.95C258.01 198.95 258.08 199.01 258.12 199.04L258.24 199.11L261.03 201.04L261.17 200.86C265.69 203.445 270.44 205.604 275.36 207.31C275.84 207.47 276.3 207.63 276.78 207.77L277.09 207.86C277.93 208.14 278.77 208.39 279.63 208.63C285.921 210.408 292.406 211.416 298.94 211.63H299.51H301.04H302.78C310.018 211.593 317.214 210.522 324.15 208.45V208.45C325.1 208.17 326.03 207.87 326.96 207.54C327.101 207.507 327.238 207.46 327.37 207.4C332.618 205.609 337.649 203.238 342.37 200.33V200.33L342.46 200.42L345.3 198.42C345.78 198.1 346.3 197.76 346.74 197.42C346.99 197.26 347.21 197.08 347.46 196.92L348.17 196.42C348.33 196.28 348.51 196.16 348.67 196.03C349.53 195.37 350.35 194.73 351.17 194.03C353.17 192.39 355.02 190.67 356.83 188.89C357.72 187.98 358.59 187.07 359.45 186.12C359.52 186.02 359.61 185.96 359.66 185.89L360.66 184.75C360.98 184.36 361.31 183.98 361.66 183.59C365.14 179.426 368.158 174.896 370.66 170.08C370.699 169.98 370.746 169.883 370.8 169.79C370.8 169.79 370.86 169.69 370.89 169.63C370.917 169.599 370.94 169.566 370.96 169.53C371.16 169.08 371.38 168.65 371.59 168.24C371.8 167.83 371.98 167.38 372.2 166.96C374.255 162.557 375.879 157.966 377.05 153.25V153.01C377.05 152.94 377.05 152.87 377.1 152.82C377.55 150.98 377.92 149.12 378.24 147.25C378.913 143.091 379.248 138.884 379.24 134.67V37.97L378.53 36.43Z" fill="white"/>
<path d="M378.54 36.43C377.91 36.67 377.28 36.95 376.61 37.27L376.56 37.2L375.12 37.97V134.62C375.112 138.584 374.778 142.541 374.12 146.45C373.98 147.38 373.82 148.29 373.61 149.2C373.4 150.11 373.19 151.2 372.96 152.2L372.89 152.48C372.864 152.665 372.817 152.846 372.75 153.02C372.49 154.02 372.22 155.02 371.94 156.02C371.247 158.299 370.439 160.542 369.52 162.74C369.187 163.553 368.853 164.343 368.52 165.11C368.1 166.04 367.66 166.99 367.17 167.9C367.133 167.992 367.086 168.079 367.03 168.16C366.66 168.88 366.29 169.62 365.87 170.32C363.951 173.739 361.768 177.002 359.34 180.08C358.85 180.67 358.41 181.22 357.92 181.78C357.45 182.32 357.03 182.78 356.57 183.34C356.41 183.55 356.2 183.74 356.01 183.95C355.54 184.51 355.01 185 354.54 185.51C351.823 188.305 348.894 190.886 345.78 193.23C345.24 193.65 344.66 194.04 344.1 194.44C343.73 194.71 343.36 194.97 342.99 195.2C342.62 195.43 342.17 195.76 341.78 195.99C341.2 196.39 340.61 196.76 340.01 197.11C336.319 199.349 332.437 201.257 328.41 202.81C327.73 203.08 327.04 203.34 326.32 203.55C326.114 203.662 325.896 203.749 325.67 203.81C324.94 204.06 324.22 204.27 323.5 204.5C322.78 204.73 322.06 204.92 321.32 205.13C316.095 206.546 310.728 207.374 305.32 207.6H304.69C303.9 207.6 303.11 207.6 302.3 207.6H301.76C300.67 207.6 299.58 207.6 298.46 207.5C298.2 207.5 297.97 207.5 297.74 207.5C297.04 207.5 296.39 207.41 295.74 207.34L294.51 207.24C290.486 206.85 286.497 206.151 282.58 205.15C281.86 204.96 281.12 204.73 280.4 204.55L278.17 203.85L277.84 203.76C277.726 203.733 277.615 203.693 277.51 203.64C276.79 203.43 276.1 203.2 275.4 202.92C271.331 201.439 267.394 199.619 263.63 197.48C263.03 197.15 262.42 196.78 261.82 196.41C261.4 196.18 260.96 195.9 260.54 195.64L259.47 194.94C258.89 194.57 258.33 194.18 257.75 193.78C254.561 191.616 251.551 189.198 248.75 186.55C248.216 186.089 247.705 185.602 247.22 185.09C246.984 184.901 246.766 184.69 246.57 184.46C246.11 184 245.66 183.56 245.22 183.07C244.78 182.58 244.22 182.07 243.76 181.47C241.236 178.67 238.927 175.685 236.85 172.54C236.39 171.86 235.97 171.19 235.55 170.54C235.48 170.43 235.41 170.34 235.34 170.22C234.83 169.41 234.34 168.64 233.9 167.8C233.5 167.08 233.11 166.38 232.73 165.64C231.193 162.766 229.857 159.788 228.73 156.73C228.33 155.73 227.96 154.66 227.63 153.62C227.19 152.31 226.8 150.99 226.45 149.62C226.45 149.62 226.45 149.51 226.4 149.48C226.17 148.55 225.94 147.67 225.73 146.76C224.399 140.951 223.728 135.01 223.73 129.05V35.35C222.54 34.7 221.45 34.07 220.47 33.51L219.54 35.32V129.05C219.528 136.006 220.405 142.936 222.15 149.67C222.15 149.97 222.29 150.25 222.35 150.55C222.61 151.48 222.87 152.41 223.17 153.34C224.92 159.127 227.322 164.696 230.33 169.94C230.79 170.78 231.28 171.59 231.79 172.41C231.88 172.572 231.984 172.725 232.1 172.87C234.819 177.277 237.964 181.407 241.49 185.2C242.19 185.94 242.88 186.68 243.63 187.43C243.685 187.495 243.745 187.555 243.81 187.61C248.134 191.938 252.923 195.775 258.09 199.05C258.19 199.095 258.284 199.152 258.37 199.22C259.32 199.82 260.3 200.42 261.3 200.96C265.815 203.546 270.562 205.702 275.48 207.4C275.97 207.56 276.43 207.72 276.92 207.86L277.23 207.96C278.07 208.24 278.9 208.49 279.76 208.72C286.053 210.504 292.542 211.511 299.08 211.72H299.64C300.15 211.72 300.64 211.72 301.18 211.72H302.78C310.025 211.669 317.226 210.596 324.17 208.53C325.12 208.26 326.05 207.95 326.98 207.63C327.1 207.58 327.24 207.56 327.38 207.49C332.623 205.689 337.653 203.318 342.38 200.42C343.38 199.82 344.38 199.21 345.3 198.54C345.79 198.21 346.3 197.89 346.75 197.54C347.2 197.19 347.68 196.84 348.16 196.54C352.248 193.488 356.032 190.049 359.46 186.27C359.53 186.17 359.63 186.11 359.67 186.04C360.35 185.27 361 184.52 361.67 183.73C365.152 179.571 368.17 175.044 370.67 170.23C370.763 170.038 370.867 169.851 370.98 169.67C371.39 168.81 371.81 167.97 372.21 167.11C374.274 162.66 375.895 158.018 377.05 153.25V153.02C377.05 152.95 377.05 152.88 377.1 152.83C377.54 150.99 377.91 149.13 378.24 147.25C378.908 143.09 379.243 138.883 379.24 134.67V37.97L378.54 36.43Z" fill="white"/>
<path d="M17.1832 298.55H8.67592L33.2815 231.539H41.6579L66.2634 298.55H57.7562L37.7314 242.14H37.2079L17.1832 298.55ZM20.3243 272.374H54.615V279.572H20.3243V272.374ZM113.348 248.292C112.955 244.976 111.363 242.402 108.571 240.57C105.778 238.738 102.354 237.821 98.2965 237.821C95.3298 237.821 92.734 238.301 90.5091 239.261C88.3059 240.221 86.5826 241.541 85.3393 243.22C84.1177 244.9 83.507 246.809 83.507 248.946C83.507 250.735 83.9323 252.273 84.783 253.56C85.6556 254.825 86.7681 255.883 88.1205 256.734C89.4729 257.563 90.8908 258.25 92.3741 258.795C93.8574 259.319 95.2208 259.744 96.4641 260.071L103.27 261.903C105.015 262.361 106.956 262.994 109.094 263.801C111.254 264.608 113.315 265.71 115.278 267.106C117.263 268.48 118.899 270.247 120.186 272.407C121.473 274.566 122.117 277.216 122.117 280.358C122.117 283.979 121.168 287.251 119.27 290.174C117.394 293.097 114.646 295.42 111.025 297.143C107.425 298.866 103.052 299.728 97.9038 299.728C93.1049 299.728 88.9494 298.954 85.4374 297.405C81.9473 295.856 79.1988 293.697 77.192 290.926C75.2069 288.156 74.0835 284.938 73.8218 281.274H82.1981C82.4163 283.804 83.267 285.898 84.7503 287.556C86.2554 289.192 88.1532 290.414 90.4436 291.221C92.7559 292.006 95.2426 292.399 97.9038 292.399C101.001 292.399 103.783 291.897 106.247 290.893C108.712 289.868 110.665 288.45 112.104 286.64C113.544 284.808 114.264 282.67 114.264 280.227C114.264 278.002 113.642 276.191 112.399 274.795C111.155 273.399 109.519 272.265 107.491 271.392C105.462 270.52 103.27 269.756 100.914 269.102L92.6686 266.746C87.4334 265.241 83.2888 263.092 80.2349 260.3C77.181 257.508 75.6541 253.854 75.6541 249.339C75.6541 245.587 76.6684 242.315 78.6971 239.523C80.7475 236.709 83.496 234.528 86.9426 232.979C90.4109 231.408 94.2828 230.623 98.5582 230.623C102.877 230.623 106.716 231.397 110.076 232.946C113.435 234.473 116.096 236.567 118.059 239.228C120.044 241.89 121.092 244.911 121.201 248.292H113.348ZM163.205 261.445V268.644H133.888V261.445H163.205ZM214.486 248.292C214.093 244.976 212.501 242.402 209.709 240.57C206.917 238.738 203.492 237.821 199.435 237.821C196.468 237.821 193.872 238.301 191.647 239.261C189.444 240.221 187.721 241.541 186.477 243.22C185.256 244.9 184.645 246.809 184.645 248.946C184.645 250.735 185.07 252.273 185.921 253.56C186.794 254.825 187.906 255.883 189.259 256.734C190.611 257.563 192.029 258.25 193.512 258.795C194.995 259.319 196.359 259.744 197.602 260.071L204.408 261.903C206.153 262.361 208.094 262.994 210.232 263.801C212.392 264.608 214.453 265.71 216.416 267.106C218.401 268.48 220.037 270.247 221.324 272.407C222.611 274.566 223.255 277.216 223.255 280.358C223.255 283.979 222.306 287.251 220.408 290.174C218.532 293.097 215.784 295.42 212.163 297.143C208.563 298.866 204.19 299.728 199.042 299.728C194.243 299.728 190.087 298.954 186.575 297.405C183.085 295.856 180.337 293.697 178.33 290.926C176.345 288.156 175.222 284.938 174.96 281.274H183.336C183.554 283.804 184.405 285.898 185.888 287.556C187.393 289.192 189.291 290.414 191.582 291.221C193.894 292.006 196.381 292.399 199.042 292.399C202.139 292.399 204.921 291.897 207.386 290.893C209.85 289.868 211.803 288.45 213.242 286.64C214.682 284.808 215.402 282.67 215.402 280.227C215.402 278.002 214.78 276.191 213.537 274.795C212.294 273.399 210.658 272.265 208.629 271.392C206.6 270.52 204.408 269.756 202.052 269.102L193.807 266.746C188.571 265.241 184.427 263.092 181.373 260.3C178.319 257.508 176.792 253.854 176.792 249.339C176.792 245.587 177.806 242.315 179.835 239.523C181.886 236.709 184.634 234.528 188.081 232.979C191.549 231.408 195.421 230.623 199.696 230.623C204.015 230.623 207.854 231.397 211.214 232.946C214.573 234.473 217.234 236.567 219.197 239.228C221.183 241.89 222.23 244.911 222.339 248.292H214.486ZM248.768 298.55L230.445 231.539H238.691L252.695 286.116H253.349L267.615 231.539H276.777L291.043 286.116H291.697L305.701 231.539H313.947L295.624 298.55H287.247L272.458 245.151H271.934L257.145 298.55H248.768ZM368.033 231.539H376.148V275.908C376.148 280.488 375.068 284.578 372.909 288.178C370.771 291.755 367.75 294.58 363.845 296.652C359.941 298.703 355.36 299.728 350.103 299.728C344.846 299.728 340.265 298.703 336.36 296.652C332.456 294.58 329.424 291.755 327.264 288.178C325.126 284.578 324.057 280.488 324.057 275.908V231.539H332.172V275.253C332.172 278.525 332.892 281.437 334.332 283.99C335.771 286.52 337.822 288.516 340.483 289.977C343.166 291.417 346.373 292.137 350.103 292.137C353.833 292.137 357.039 291.417 359.722 289.977C362.406 288.516 364.456 286.52 365.874 283.99C367.314 281.437 368.033 278.525 368.033 275.253V231.539ZM392.353 298.55V231.539H432.533V238.738H400.467V261.38H429.523V268.578H400.467V298.55H392.353ZM446.431 298.55V231.539H486.611V238.738H454.545V261.38H483.601V268.578H454.545V298.55H446.431ZM494.889 298.55H486.382L510.988 231.539H519.364L543.97 298.55H535.462L515.438 242.14H514.914L494.889 298.55ZM498.031 272.374H532.321V279.572H498.031V272.374ZM554.407 298.55V231.539H562.522V261.38H598.252V231.539H606.367V298.55H598.252V268.578H562.522V298.55H554.407Z" fill="white"/>
</g>
<defs>
<clipPath id="clip0_414_672">
<rect width="609.56" height="342.5" fill="white"/>
</clipPath>
</defs>
</svg>
