<svg width="145" height="87" viewBox="0 0 145 87" fill="none" xmlns="http://www.w3.org/2000/svg">
<path d="M49.4887 40.0411C49.2361 39.8845 48.9834 39.7405 48.7308 39.5864C48.271 39.2984 47.8053 39.0171 47.3337 38.7425C47.3187 38.7014 47.3069 38.6592 47.2983 38.6162C47.2377 38.4217 47.1796 38.2322 47.1316 38.0377C47.1316 37.9973 47.1114 37.9619 47.1038 37.9265C47.0936 37.8892 47.086 37.8512 47.0811 37.8128L47.6343 36.8705L47.983 37.0777L48.0866 37.1358C48.2659 37.2494 48.4428 37.353 48.6222 37.4566C48.6222 37.5097 48.6449 37.5602 48.6626 37.6284C48.7182 37.8078 48.7662 37.9973 48.8217 38.1817C48.9304 38.5329 49.0466 38.879 49.1729 39.2175C49.2664 39.5005 49.375 39.7708 49.4887 40.0411Z" fill="white"/>
<path d="M51.7928 39.4246C51.6917 39.5686 51.6033 39.7202 51.5124 39.8692C51.4492 39.9703 51.381 40.0764 51.3229 40.1775C51.2648 40.2785 51.2016 40.3695 51.146 40.4705C51.0526 40.6246 50.9667 40.7687 50.8732 40.9177L50.4311 40.6348C50.1203 40.4402 49.807 40.2381 49.4912 40.0486C49.3775 39.7783 49.2689 39.508 49.1704 39.2326C49.0441 38.894 48.9177 38.5479 48.8192 38.1968C48.7636 38.0123 48.7156 37.8228 48.6601 37.6435C48.6424 37.5753 48.6297 37.5247 48.6196 37.4717C49.5569 38.0351 50.474 38.5985 51.3482 39.1619L51.7928 39.4246Z" fill="white"/>
<path d="M68.2275 52.7262L67.6363 53.3704L67.4872 53.5043H67.0451H66.6586H66.5146C66.1457 53.1203 65.7567 52.7464 65.3701 52.3674C65.1579 52.1603 64.9532 51.9607 64.741 51.7586C64.3191 51.3518 63.8896 50.9526 63.4475 50.5585C63.3161 50.4372 63.1949 50.3059 63.061 50.2023L62.7932 49.9497L62.5405 49.7197C62.4092 49.6035 62.2879 49.4848 62.1439 49.3762C61.3102 48.6334 60.4436 47.9058 59.5695 47.1984C59.428 47.0898 59.2941 46.9836 59.1577 46.87C59.0642 46.7942 58.9732 46.726 58.8848 46.6502L58.6094 46.4329C58.4679 46.3192 58.3341 46.2156 58.1926 46.107C57.3639 45.4627 56.5302 44.8438 55.6914 44.2198C55.5525 44.1162 55.4059 44.0151 55.267 43.9166C55.1685 43.8408 55.0775 43.7675 54.9739 43.6993C54.8703 43.6311 54.7895 43.5654 54.696 43.5073C54.5545 43.3987 54.4105 43.2951 54.2615 43.1991C54.3659 43.0542 54.467 42.9102 54.5646 42.7671L54.7668 42.4791L54.9714 42.191C55.0775 42.0496 55.1786 41.9056 55.2821 41.7666C55.4262 41.8651 55.5752 41.9637 55.7142 42.0672C55.8102 42.1304 55.9036 42.2087 55.9996 42.2719C56.0957 42.335 56.1917 42.4058 56.2877 42.4791C56.4317 42.5776 56.5757 42.6812 56.7146 42.7898C57.5812 43.4113 58.4477 44.0707 59.2991 44.7377C59.4381 44.8463 59.5745 44.9549 59.7084 45.0661C59.8044 45.1343 59.8903 45.2076 59.9787 45.2783L60.2693 45.5032L60.6786 45.8341C61.5754 46.5592 62.447 47.307 63.3212 48.0599L63.7229 48.4136L63.9755 48.6435C64.0614 48.7193 64.1524 48.8001 64.2282 48.881C64.3621 48.9972 64.4808 49.1109 64.6147 49.2271C65.3558 49.9008 66.0758 50.5838 66.7748 51.276C66.9011 51.3922 67.0274 51.5287 67.1437 51.6398C67.2371 51.7358 67.3281 51.8243 67.419 51.9203C67.51 52.0163 67.563 52.0643 67.6388 52.135L67.8561 52.3624L67.9268 52.4331L68.0052 52.5089L68.2275 52.7262Z" fill="white"/>
<path d="M49.1679 39.2225L48.4605 38.7905C48.127 38.5909 47.7935 38.3888 47.45 38.1892L47.8112 37.5854L48.1523 37.79C48.3746 37.9163 48.5894 38.0427 48.8117 38.1841C48.9254 38.5404 49.0517 38.8865 49.1679 39.2225Z" fill="white"/>
<path d="M67.4948 52.7389L67.2548 52.9915L67.0022 53.2265L66.1937 52.4155C65.9992 52.221 65.8097 52.0366 65.6126 51.842C64.8143 51.0664 63.9907 50.3009 63.1519 49.5531C62.1009 48.6108 61.0045 47.681 59.8903 46.774L59.4861 46.4507C59.3901 46.3723 59.3017 46.2966 59.2057 46.2233C59.1097 46.15 59.0263 46.0793 58.9303 46.0085C58.8343 45.9378 58.6549 45.7913 58.5159 45.6826C57.6873 45.0333 56.8384 44.3942 55.9895 43.7802L55.5575 43.4695C55.4615 43.3962 55.363 43.3305 55.2695 43.2623C55.176 43.1941 55.08 43.1259 54.984 43.0627C54.84 42.9541 54.696 42.8556 54.552 42.757L54.7541 42.469L54.9588 42.181L55.3958 42.4867L55.6788 42.6888L55.9643 42.896C56.1083 42.9971 56.2523 43.1057 56.3963 43.2093C57.2586 43.8358 58.1109 44.4784 58.953 45.1369C59.092 45.2456 59.2334 45.3542 59.3673 45.4628L59.6377 45.6801C59.7337 45.7508 59.8272 45.8292 59.9181 45.905C60.0571 46.0136 60.1935 46.1222 60.3274 46.2334C61.4516 47.1404 62.5557 48.0777 63.6117 49.0251C64.6678 49.9725 65.696 50.9325 66.6788 51.9102C66.8582 52.0871 67.035 52.2614 67.2119 52.4458C67.3129 52.5444 67.4064 52.6429 67.4948 52.7389Z" fill="white"/>
<path d="M86.5664 37.2014C86.4881 37.6764 86.3921 38.1412 86.2809 38.6086C85.8363 38.8613 85.3942 39.1341 84.9697 39.4044L84.2724 39.8314L83.7924 40.1346C83.6358 40.2255 83.4918 40.3215 83.3402 40.4175L82.749 40.7965L82.6959 40.8319C82.5646 40.9178 82.4433 41.0011 82.3094 41.0845C81.4976 41.6151 80.7009 42.1515 79.9194 42.6938C79.7805 42.7924 79.6339 42.8934 79.495 42.9945C79.2979 43.1284 79.1084 43.2648 78.919 43.3987L78.8836 43.424C78.7522 43.52 78.631 43.6084 78.487 43.7044C77.6406 44.3158 76.7892 44.9474 75.9605 45.5992C75.8191 45.7028 75.6801 45.8089 75.5437 45.9226L74.9929 46.3597C74.859 46.4658 74.7276 46.5694 74.5937 46.6805C73.707 47.3904 72.8253 48.1181 71.9789 48.8583C71.8425 48.9745 71.7263 49.0907 71.5823 49.2095C71.4079 49.356 71.2361 49.5051 71.077 49.6617C71.077 49.6617 71.077 49.6617 71.0568 49.6768C70.9254 49.7905 70.8041 49.9118 70.6652 50.0255C70.0033 50.6268 69.354 51.2382 68.7173 51.8496C68.5228 52.034 68.3308 52.226 68.1413 52.4155C68.111 52.4407 68.0857 52.4711 68.0554 52.5014C67.7851 52.7667 67.5147 53.037 67.2495 53.3073L67.0751 53.4867C66.9438 53.4867 66.8225 53.4867 66.6835 53.4867L65.582 52.5014L65.7058 52.37L65.9357 52.135L65.9913 52.0845C66.057 52.0163 66.1227 51.9456 66.1934 51.8799L66.4284 51.6272C66.5572 51.5009 66.681 51.3746 66.8023 51.2609C67.6587 50.4045 68.5556 49.5632 69.4677 48.7345C69.599 48.6132 69.7203 48.4995 69.8643 48.3833L69.8896 48.353C70.0588 48.209 70.2256 48.0574 70.3948 47.9134C70.5641 47.7694 70.6475 47.681 70.7915 47.5673C71.6682 46.8094 72.56 46.0514 73.4745 45.3289C73.616 45.2177 73.7524 45.1066 73.8863 44.9979C74.0657 44.8514 74.2527 44.7074 74.4371 44.5659C74.5735 44.4522 74.7074 44.3461 74.8489 44.235C75.7155 43.5655 76.5972 42.9086 77.4739 42.277C77.6027 42.1759 77.7265 42.0875 77.868 41.9915C77.8768 41.9831 77.8871 41.9762 77.8983 41.9713L78.4743 41.562C78.6158 41.461 78.7598 41.3599 78.9063 41.2614C79.7123 40.698 80.5435 40.1321 81.3949 39.5813C81.5111 39.4979 81.6298 39.4221 81.7511 39.3463C81.7763 39.3261 81.8067 39.311 81.837 39.2857C82.0265 39.167 82.226 39.0331 82.4282 38.9067L82.8728 38.6263C83.5448 38.2044 84.2295 37.78 84.9369 37.3631C85.1365 37.2469 85.3386 37.1281 85.5382 37.0069L85.7681 36.873L86.2254 36.6027L86.5664 37.2014Z" fill="white"/>
<path d="M66.8431 52.9612L66.3176 52.4913L66.3429 52.4661C67.5707 51.2028 68.8693 49.9674 70.226 48.7623C71.5018 47.6204 72.8408 46.4886 74.2025 45.4174C75.4986 44.3815 76.8325 43.376 78.1614 42.4286C79.3943 41.5494 80.6879 40.6601 82.0243 39.7961C83.2875 38.9725 84.6392 38.1388 86.0262 37.3177L86.3849 37.924C85.008 38.74 83.669 39.5687 82.4083 40.3873C81.087 41.2463 79.796 42.128 78.5707 43.0021C77.2519 43.9445 75.9281 44.9424 74.6396 45.9681C73.288 47.0393 71.9616 48.156 70.6959 49.2878C69.3594 50.4828 68.0634 51.7182 66.8431 52.9612Z" fill="white"/>
<path d="M47.9961 9.20119V9.98943C47.9456 9.9667 47.7435 9.86311 47.4732 9.72416C47.2433 9.59784 47.0134 9.47152 46.7834 9.36288V9.35025L47.0942 8.73633C47.1421 8.76346 47.1919 8.7871 47.2433 8.80707C47.314 8.85002 47.3873 8.89044 47.4631 8.93087C47.4978 8.94361 47.5309 8.96058 47.5616 8.98139L47.6424 9.02181L47.8092 9.11277C47.8731 9.13862 47.9356 9.16814 47.9961 9.20119Z" fill="white"/>
<path d="M71.9739 27.1994C71.8349 27.308 71.6909 27.4167 71.5545 27.5329L71.1705 27.1539C71.1174 27.0958 71.0644 27.0478 71.0037 26.9922C70.8926 26.8786 70.7839 26.775 70.6677 26.6588C70.5414 26.5425 70.4151 26.4213 70.2837 26.2949C70.4277 26.1863 70.5591 26.0726 70.698 25.964C70.8294 26.0903 70.9507 26.2166 71.082 26.3354L71.3751 26.6133L71.5949 26.8306C71.7263 26.9518 71.8475 27.0781 71.9739 27.1994Z" fill="white"/>
<path d="M72.9617 26.4414C72.8177 26.5449 72.6787 26.6536 72.5372 26.7673L72.1557 26.3883C72.0597 26.2923 71.9663 26.1988 71.8652 26.1053C71.7641 26.0119 71.7212 25.9639 71.6454 25.8931C71.5191 25.7693 71.3928 25.6405 71.2563 25.5217C71.3978 25.4106 71.5418 25.3019 71.6858 25.1984C71.8172 25.3196 71.9385 25.451 72.0698 25.5622L72.2366 25.7264C72.3452 25.8375 72.4614 25.9462 72.5777 26.0599C72.704 26.1887 72.8303 26.315 72.9617 26.4414Z" fill="white"/>
<path d="M75.6727 31.138L76.0188 31.5397C75.8748 31.6433 75.7384 31.7469 75.5944 31.8555C75.4832 31.7191 75.3619 31.5852 75.2483 31.4538C75.1841 31.3869 75.1242 31.316 75.0689 31.2416L74.7784 30.9208C74.6621 30.7869 74.5409 30.6681 74.4221 30.5241C74.5661 30.4205 74.7025 30.3119 74.8466 30.2083C74.9628 30.3397 75.0866 30.461 75.2028 30.605C75.319 30.749 75.3796 30.7995 75.4554 30.8955C75.5312 30.9915 75.6045 31.0597 75.6727 31.138Z" fill="white"/>
<path d="M76.6782 30.423C76.7994 30.5544 76.9106 30.6908 77.0243 30.8247C76.8803 30.9207 76.7413 31.0243 76.5973 31.1279C76.4786 30.9915 76.3624 30.8753 76.2436 30.7313C76.1249 30.5873 76.0744 30.5317 75.991 30.4331C75.9076 30.3346 75.8495 30.279 75.7737 30.1982C75.6651 30.0668 75.5438 29.9455 75.4175 29.8015C75.5615 29.703 75.7055 29.5944 75.8495 29.4958C75.9708 29.6272 76.0845 29.7485 76.2007 29.8925L76.3775 30.087C76.476 30.2032 76.5695 30.3068 76.6655 30.423H76.6782Z" fill="white"/>
<path d="M79.427 35.8246C79.5407 35.9712 79.6443 36.1152 79.7377 36.2592C79.5937 36.3476 79.4497 36.4487 79.3057 36.5472L78.995 36.1278C78.9267 36.0419 78.8636 35.956 78.8004 35.8752C78.7373 35.7943 78.6514 35.6731 78.5705 35.5745C78.4669 35.4255 78.3634 35.2916 78.2522 35.1501L78.6893 34.8545C78.7954 34.9934 78.904 35.1324 79.0076 35.2739C79.0859 35.3724 79.1516 35.4659 79.2299 35.5669C79.3082 35.668 79.3689 35.7312 79.427 35.8246Z" fill="white"/>
<path d="M80.4504 35.1323C80.5515 35.2712 80.6601 35.4102 80.7662 35.5592C80.6197 35.6578 80.4656 35.7538 80.3266 35.8523C80.2256 35.7083 80.122 35.5694 80.0159 35.4279C79.9477 35.3243 79.8744 35.2258 79.7986 35.1323C79.7228 35.0388 79.6622 34.9504 79.5965 34.8594C79.4929 34.7154 79.3843 34.5765 79.2756 34.4375L79.7178 34.1394L80.0386 34.5664L80.223 34.819C80.2988 34.9276 80.3797 35.0287 80.4504 35.1323Z" fill="white"/>
<path d="M82.6025 40.5413C82.6505 40.6272 82.701 40.7081 82.7516 40.7939C82.7343 40.8083 82.7156 40.821 82.696 40.8319C82.5671 40.9177 82.4433 41.0011 82.3094 41.0845C82.2589 40.9935 82.2059 40.9051 82.1503 40.8142C82.0947 40.7232 82.0745 40.6929 82.0341 40.6348C81.9128 40.4276 81.7814 40.228 81.6652 40.0335C81.5743 39.8794 81.4782 39.7354 81.3848 39.5914C81.4985 39.5055 81.6197 39.4272 81.7359 39.3564C81.7658 39.337 81.7944 39.3159 81.8218 39.2933C81.9128 39.4474 82.0063 39.5939 82.1048 39.743C82.2286 39.9426 82.3574 40.1396 82.4762 40.3392C82.5217 40.4074 82.5621 40.4857 82.6025 40.5413Z" fill="white"/>
<path d="M83.2011 40.1775L83.0672 39.9602C82.9484 39.7657 82.8272 39.5636 82.6958 39.369C82.6074 39.22 82.5114 39.0634 82.4128 38.9143L82.86 38.6339C82.9535 38.7829 83.052 38.932 83.148 39.081C83.2693 39.2806 83.4007 39.4726 83.5169 39.6773C83.5624 39.7505 83.6078 39.8213 83.6533 39.8996C83.6988 39.9779 83.7468 40.0512 83.7923 40.1295C83.6382 40.2204 83.4891 40.3139 83.34 40.4074C83.2971 40.3291 83.2516 40.2583 83.2011 40.1775Z" fill="white"/>
<path d="M85.0104 42.234C84.9598 42.3401 84.9118 42.4487 84.8613 42.5574L84.6996 42.8833L84.6845 42.9086C84.6845 42.9237 84.6668 42.9363 84.6617 42.949C84.6567 42.9616 84.6365 42.9995 84.6213 43.0222L83.7118 43.5275L83.4592 43.0677L83.4263 43.0121C83.3278 42.8328 83.2242 42.6559 83.1206 42.4765C83.1737 42.378 83.2368 42.2744 83.2874 42.1658C83.3318 42.0887 83.3722 42.0095 83.4086 41.9283C83.5349 41.6757 83.6613 41.423 83.7598 41.1527L84.0124 40.5438C84.1287 40.7358 84.2373 40.9203 84.356 41.1148L84.9902 42.2365L85.0104 42.234Z" fill="white"/>
<path d="M47.9959 9.20127V9.98951C47.9454 9.96677 47.7433 9.86319 47.473 9.72423L47.1268 9.53981C47.0131 9.47665 46.9045 9.40844 46.7933 9.35033L46.4194 9.128V8.90568L46.6519 8.45093C46.7159 8.4863 46.779 8.52419 46.8413 8.56461L47.046 8.67577L47.2532 8.79705C47.3239 8.83999 47.3972 8.88041 47.473 8.92084C47.5077 8.93358 47.5408 8.95055 47.5715 8.97137L47.6523 9.01179L47.8191 9.10274C47.8798 9.13222 47.9389 9.16512 47.9959 9.20127Z" fill="white"/>
<path d="M84.5329 42.4715L83.9164 42.8101C83.8482 42.6964 83.7901 42.5802 83.7168 42.4665C83.6183 42.2846 83.5198 42.1002 83.4111 41.9157C83.5375 41.6631 83.6638 41.4105 83.7623 41.1401C83.881 41.3296 83.9872 41.509 84.0933 41.6959C84.2474 41.9536 84.3914 42.2139 84.5329 42.4715Z" fill="white"/>
<path d="M86.7107 7.17747L86.5692 7.26084C85.6294 7.76612 84.7072 8.2992 83.7901 8.8348C78.6046 11.8499 73.6811 15.2945 69.0713 19.1325C68.9298 19.2487 68.7782 19.3725 68.6367 19.4963C68.6367 19.4963 68.619 19.4963 68.619 19.519C68.4902 19.6201 68.3664 19.7312 68.2375 19.8424C68.2199 19.8424 68.2022 19.8727 68.1845 19.8828C68.1668 19.8929 68.1011 19.9586 68.0607 19.9889L67.6363 20.3603C67.6363 20.3603 67.6186 20.3603 67.6135 20.378C67.472 20.4992 67.3331 20.6306 67.1916 20.7519C67.0906 20.6635 66.992 20.57 66.8859 20.4816C66.8475 20.4437 66.8061 20.4091 66.7621 20.378C66.6636 20.2896 66.5575 20.1935 66.4564 20.1127C66.3965 20.0653 66.34 20.0138 66.2871 19.9586C66.2547 19.9377 66.2235 19.9149 66.1937 19.8904C66.0876 19.7944 65.9815 19.7085 65.8804 19.6201C65.84 19.5897 65.8046 19.5493 65.7642 19.5241C65.6581 19.4255 65.552 19.3421 65.4459 19.2537C60.3856 15.0396 54.9496 11.2983 49.2061 8.07688C48.3471 7.59433 47.478 7.11431 46.5963 6.6444C46.5736 6.62671 46.5432 6.61914 46.5205 6.60145L46.6797 4.58032C48.8692 5.73237 50.9931 6.93072 53.0513 8.1754C57.9174 11.0868 62.5436 14.3815 66.8859 18.0284C66.9845 18.1118 67.0855 18.2002 67.184 18.2811C67.184 18.2811 67.1967 18.2811 67.2017 18.2684L67.472 18.0335C67.5251 17.9855 67.5857 17.945 67.6363 17.897L68.1415 17.4802C71.9823 14.2916 76.044 11.379 80.2961 8.76406C82.3172 7.50085 84.4116 6.28565 86.5743 5.11592C86.6096 5.09318 86.6399 5.08055 86.6804 5.05781L86.7107 7.17747Z" fill="#A97C50"/>
<path d="M86.7685 2.60719L86.6271 2.68551C85.6872 3.20848 84.7651 3.72892 83.848 4.26452C78.6586 7.27721 73.7323 10.722 69.1216 14.5622L68.687 14.926C68.687 14.926 68.687 14.9386 68.6693 14.9487C68.5455 15.0422 68.4344 15.1483 68.3106 15.2494C68.3106 15.2494 68.2929 15.2494 68.2878 15.267C68.2745 15.2854 68.256 15.2995 68.2348 15.3075C68.1944 15.3479 68.159 15.3833 68.1161 15.4186L67.6891 15.7824C67.6794 15.7895 67.6709 15.7981 67.6638 15.8077L67.2419 16.1816L66.9362 15.9062C66.8994 15.8712 66.8606 15.8383 66.82 15.8077C66.7543 15.7471 66.6836 15.6839 66.6128 15.6258L66.5143 15.5424C66.4486 15.4894 66.3956 15.4363 66.3375 15.3908C66.3052 15.3681 66.2755 15.3418 66.249 15.3125C66.1429 15.2266 66.0368 15.1306 65.9383 15.0599C65.8903 15.0245 65.8549 14.9891 65.8145 14.9588C65.7084 14.8653 65.6023 14.782 65.4962 14.7062C60.4391 10.487 55.0027 6.74463 49.2564 3.5268C49.0922 3.43838 48.933 3.34491 48.7688 3.25648C48.2104 2.94068 47.6471 2.63498 47.0761 2.32929C46.9346 2.24592 46.7957 2.17013 46.6466 2.09433C46.6233 2.07744 46.5978 2.06384 46.5708 2.05391L46.735 0.0201416C46.8487 0.0782491 46.9649 0.138883 47.0761 0.202044C47.6471 0.502687 48.2104 0.800808 48.7688 1.11408C50.2417 1.92254 51.6944 2.75878 53.1092 3.61018C57.8505 6.45842 62.3651 9.66806 66.6128 13.2106L66.9362 13.4809C67.0373 13.5592 67.1358 13.6527 67.2369 13.7335C67.2426 13.7354 67.2488 13.7354 67.2545 13.7335C67.3935 13.6097 67.5476 13.4809 67.6891 13.3647C67.8937 13.1878 68.0984 13.016 68.3106 12.8467C72.1172 9.69857 76.1371 6.81748 80.3414 4.2241C82.3726 2.96089 84.4653 1.74652 86.6195 0.581006C86.6538 0.559707 86.6892 0.540314 86.7256 0.522903L86.7685 2.60719Z" fill="#A97C50"/>
<path d="M47.473 15.4087C47.6498 15.4946 47.8191 15.5906 47.9959 15.684V17.69C47.8241 17.5965 47.6523 17.493 47.473 17.4071C47.1673 17.2403 46.8565 17.0685 46.5357 16.9018L46.4194 16.8437V15.9796L46.8868 15.0828L47.3618 15.3354L47.473 15.3986V15.4087Z" fill="white"/>
<path d="M82.3552 46.4304L82.1026 46.7285L81.8499 47.0165C81.8373 47.0342 81.8145 47.0494 81.7969 47.0746L80.9808 47.5799L80.7055 47.1277L80.5438 46.875C80.4528 46.7159 80.3593 46.5668 80.2583 46.4152C79.7101 45.531 79.1037 44.6291 78.4746 43.7322C78.4292 43.664 78.3786 43.5882 78.3256 43.5149C78.2725 43.4416 78.2296 43.376 78.1765 43.3027C78.0401 43.1107 77.9062 42.9212 77.7647 42.7317C77.6586 42.5902 77.5575 42.4513 77.454 42.3073C76.7567 41.37 76.024 40.4352 75.2686 39.5282C75.16 39.3943 75.0463 39.263 74.9351 39.1265L74.7305 38.8739C74.6496 38.7754 74.5688 38.6794 74.4779 38.5808C74.3667 38.4469 74.248 38.3156 74.1317 38.1817C73.2652 37.1711 72.3632 36.1605 71.3855 35.1676C71.2693 35.0413 71.1455 34.915 71.0192 34.7887C70.9611 34.723 70.8929 34.6598 70.8297 34.5866C70.7666 34.5133 70.6225 34.3895 70.524 34.2884L70.1501 33.9095C69.2128 32.9873 68.2477 32.0703 67.2548 31.1835C67.1235 31.0597 67.0022 30.9485 66.8632 30.8273C66.8051 30.7666 66.7369 30.7186 66.6788 30.6555C66.5576 30.5569 66.4489 30.4559 66.3302 30.3624C66.1937 30.2361 66.0624 30.1224 65.9285 30.0112C66.0598 29.89 66.1937 29.7586 66.3251 29.655C66.4565 29.5514 66.5601 29.4428 66.6813 29.3443L66.8582 29.18C66.9921 29.0689 67.1285 28.9476 67.2624 28.8339C67.4014 28.9476 67.5327 29.0689 67.6692 29.18C67.7273 29.2407 67.7854 29.2887 67.8485 29.3443L68.1997 29.655C68.326 29.7662 68.4523 29.89 68.5938 30.0163C69.6044 30.9207 70.5821 31.8555 71.5245 32.7953L71.906 33.1743C71.9666 33.2375 72.0247 33.3006 72.0929 33.3638C72.1914 33.4674 72.295 33.576 72.3986 33.6796C72.5022 33.7832 72.6513 33.9322 72.7675 34.0585C73.7326 35.0691 74.6673 36.0923 75.5465 37.1231C75.6627 37.2545 75.7764 37.3909 75.8876 37.5248L76.0821 37.7547C76.1731 37.8633 76.259 37.9669 76.3348 38.0654C76.451 38.2069 76.5647 38.3358 76.6758 38.4772C77.4338 39.4044 78.1917 40.3569 78.8814 41.3094C78.9951 41.4483 79.0936 41.5873 79.1921 41.7313C79.3412 41.9258 79.4776 42.1153 79.6115 42.3048L79.7606 42.517C79.814 42.5876 79.8638 42.661 79.9096 42.7368C80.4553 43.5098 80.9733 44.2754 81.4659 45.0409C81.5644 45.195 81.6579 45.3567 81.7615 45.5108C81.9156 45.7634 82.0596 45.9908 82.2087 46.2359L82.3552 46.4304Z" fill="white"/>
<path d="M47.4731 16.0047L47.9961 16.2826V17.081C47.8192 16.9925 47.6499 16.8965 47.4731 16.8031L46.7783 16.4317L47.1068 15.8102C47.2305 15.8733 47.3518 15.9416 47.4731 16.0047Z" fill="white"/>
<path d="M81.7692 46.4759L81.1628 46.8422L80.9304 46.4582C80.8344 46.3041 80.7359 46.15 80.6399 45.9933C80.0537 45.0687 79.4272 44.1263 78.7653 43.189C77.646 41.605 76.4309 40.0335 75.1449 38.5076C74.104 37.2696 72.9848 36.0241 71.8075 34.8013C71.6862 34.675 71.5549 34.5487 71.4387 34.4198L71.2138 34.1899L70.5645 33.5407C69.6247 32.6109 68.6571 31.6913 67.6591 30.797C67.5278 30.6757 67.4065 30.5443 67.2625 30.4407C67.1867 30.37 67.1059 30.2967 67.0275 30.2311C66.9492 30.1654 66.8254 30.0542 66.7269 29.9784C66.5905 29.8571 66.4591 29.7384 66.3252 29.6272C66.4414 29.5237 66.5602 29.415 66.6814 29.3165L66.8583 29.1523C66.9922 29.266 67.1286 29.3822 67.2625 29.506C67.3433 29.5717 67.4217 29.6399 67.4975 29.7081C67.5732 29.7763 67.6996 29.8875 67.8006 29.9784C67.9017 30.0694 68.0533 30.2184 68.1973 30.3346C69.1927 31.2416 70.1679 32.1663 71.1102 33.1137L71.4867 33.4876C71.565 33.5609 71.6357 33.6367 71.714 33.7125C71.7924 33.7882 71.8934 33.8969 71.9844 33.9929C72.0753 34.0889 72.237 34.2455 72.3532 34.3769C73.5255 35.5972 74.6447 36.8376 75.6805 38.0781C76.9791 39.6141 78.2069 41.2058 79.3388 42.8025C79.9704 43.6918 80.5641 44.571 81.1224 45.4628C81.2235 45.6169 81.322 45.7735 81.4129 45.9277C81.5393 46.102 81.6555 46.2965 81.7692 46.4759Z" fill="white"/>
<path d="M59.1019 29.7965C58.9807 29.9279 58.867 30.0643 58.7457 30.1932C58.6775 30.2715 58.6042 30.3523 58.5385 30.4332C58.4729 30.514 58.3667 30.6277 58.2859 30.7212C58.1697 30.8551 58.0611 30.9865 57.9448 31.1229C57.8034 31.0193 57.6594 30.9208 57.5153 30.8197C54.452 28.6537 51.2797 26.6459 48.011 24.8043V22.8009C51.6942 24.8251 55.2589 27.0579 58.6876 29.4883C58.8165 29.5894 58.9605 29.698 59.1019 29.7965Z" fill="white"/>
<path d="M47.9959 22.8008V24.8068C47.8191 24.7133 47.6498 24.6148 47.473 24.5239C47.1571 24.3495 46.8388 24.1676 46.523 23.9958L46.4194 23.9428V23.0914L46.9045 22.197L47.3643 22.4497C47.4019 22.4673 47.4382 22.4875 47.473 22.5103C47.6498 22.5962 47.8191 22.6998 47.9959 22.8008Z" fill="white"/>
<path d="M78.9546 49.6718L78.7753 49.7981C78.7121 49.8385 78.6565 49.884 78.5934 49.9244C78.4772 50.0103 78.3407 50.0962 78.2296 50.1771L77.5121 50.6824L77.4893 50.6596L77.2139 50.2554C77.1104 50.0962 76.9992 49.9472 76.8906 49.7956L76.5899 49.3535C75.9457 48.4591 75.2737 47.5724 74.584 46.7007C74.5258 46.6376 74.4804 46.5694 74.4324 46.5113C74.3844 46.4532 74.3187 46.3673 74.2505 46.2915C74.1014 46.1096 73.9574 45.9251 73.8033 45.7407C73.6921 45.6093 73.5835 45.4704 73.4673 45.339C72.7447 44.475 71.9969 43.6261 71.2466 42.8126C71.1253 42.6762 71.0141 42.56 70.8878 42.4286C70.8145 42.3528 70.7438 42.277 70.6705 42.1962C70.5973 42.1153 70.4912 42.0067 70.4179 41.9107C70.3446 41.8147 70.1653 41.658 70.0516 41.5317C69.1648 40.6045 68.2401 39.6874 67.2877 38.7956C67.1614 38.6693 67.035 38.543 66.9011 38.4343C66.8329 38.3661 66.7597 38.3029 66.694 38.2373C66.5853 38.1413 66.4843 38.0427 66.3857 37.9518C66.2872 37.8608 66.1331 37.7143 65.9942 37.6006C65.0745 36.7585 64.128 35.9391 63.1545 35.1424C63.0231 35.0312 62.8816 34.9176 62.7477 34.8089C62.6795 34.7458 62.6088 34.6978 62.5405 34.6396C62.4269 34.5436 62.3207 34.4577 62.2071 34.3693C62.0934 34.2809 61.9317 34.147 61.7927 34.0308C61.914 33.9095 62.0302 33.7781 62.1616 33.6518C62.293 33.5255 62.3637 33.4396 62.4673 33.336L62.6542 33.1465C62.7806 33.0253 62.9069 32.8939 63.0281 32.7676C63.1671 32.8813 63.3111 32.9924 63.4475 33.1061C63.5157 33.1642 63.5865 33.2148 63.6496 33.2729L63.9932 33.5533C64.1297 33.6695 64.2661 33.7781 64.4 33.8893C65.387 34.7062 66.3504 35.5483 67.2902 36.4157C67.4216 36.5244 67.5428 36.6456 67.6793 36.7719C67.75 36.83 67.8233 36.8932 67.8915 36.9564C67.9597 37.0195 68.1012 37.1509 68.2022 37.2469C68.3387 37.3707 68.4549 37.4869 68.5863 37.6132C69.5513 38.5202 70.4937 39.4525 71.3956 40.3923C71.5118 40.5186 71.6356 40.6449 71.7569 40.7763C71.8226 40.8546 71.8908 40.9178 71.959 40.9936C72.0272 41.0694 72.1485 41.1881 72.2395 41.2866L72.5982 41.6757C73.3561 42.5094 74.114 43.3735 74.8568 44.2526L75.1928 44.6594C75.3444 44.8413 75.4884 45.0207 75.6375 45.2051C75.6956 45.2758 75.7537 45.3441 75.8093 45.4173L75.9659 45.6144C76.6834 46.5163 77.3883 47.446 78.0502 48.3758C78.1588 48.5248 78.2624 48.6663 78.3559 48.8103C78.4494 48.9543 78.5681 49.0983 78.6666 49.2524L78.9648 49.6718H78.9546Z" fill="white"/>
<path d="M47.9957 23.3996V24.2005C47.8239 24.102 47.6496 24.0085 47.4728 23.9125C47.2378 23.7811 47.0079 23.6598 46.7729 23.5259L47.1115 22.907C47.2328 22.9752 47.3641 23.0384 47.4728 23.1066C47.6496 23.2 47.8239 23.3062 47.9957 23.3996Z" fill="white"/>
<path d="M62.9977 32.7549C62.8764 32.8812 62.745 33.0076 62.6237 33.1339L62.4368 33.3234C62.3332 33.4269 62.2271 33.5356 62.1311 33.6392C62.0351 33.7427 61.8784 33.8918 61.7622 34.0181C60.8603 33.3057 59.923 32.5882 58.9301 31.858C58.7912 31.7494 58.6547 31.6458 58.5107 31.5422C58.6194 31.4109 58.7356 31.2896 58.8543 31.1456C58.9225 31.0647 58.9958 30.9839 59.0615 30.8929L59.3141 30.6075C59.4278 30.4736 59.5491 30.3422 59.6704 30.2108C59.8144 30.3093 59.9558 30.418 60.0948 30.5216C61.1205 31.2795 62.073 32.0147 62.9977 32.7549Z" fill="white"/>
<path d="M78.2194 49.5455L77.6434 49.9472C77.5398 49.7982 77.4387 49.6542 77.3301 49.5051C77.2215 49.3561 77.133 49.2222 77.0244 49.0782C76.3254 48.103 75.5936 47.1379 74.829 46.1829C73.6239 44.6822 72.348 43.2169 71.0393 41.8273C69.9555 40.6728 68.8161 39.5308 67.6438 38.4268C67.5175 38.3055 67.3912 38.1741 67.2548 38.0655C67.179 37.9897 67.0981 37.9139 67.0173 37.8407L66.7369 37.588C66.6055 37.4668 66.4842 37.3505 66.3402 37.2318C65.4155 36.3905 64.4606 35.5593 63.4904 34.761C63.354 34.6448 63.2201 34.5311 63.0786 34.425C62.9978 34.3517 62.9169 34.2885 62.826 34.2203L62.5253 33.9677C62.3889 33.854 62.2525 33.7454 62.1135 33.6342C62.2095 33.5306 62.3156 33.422 62.4192 33.3184L62.6062 33.1289C62.7451 33.2426 62.8841 33.3487 63.0205 33.4624L63.2731 33.6645L63.5713 33.9171C63.7102 34.0258 63.8466 34.1395 63.9805 34.2557C64.9583 35.0641 65.9233 35.8979 66.8581 36.7493C66.9895 36.8629 67.1108 36.9842 67.2497 37.1055L67.4897 37.3227L67.7676 37.5754C67.899 37.6941 68.0203 37.828 68.1516 37.9417C69.3239 39.0407 70.4658 40.1826 71.5471 41.3372C72.8634 42.7343 74.1493 44.2148 75.3671 45.7332C76.125 46.6983 76.8829 47.6861 77.5979 48.6764C77.7015 48.823 77.8051 48.9619 77.9036 49.1059C78.0021 49.2499 78.1209 49.4015 78.2194 49.5455Z" fill="white"/>
<path d="M47.9959 29.9279V31.9617C47.8191 31.8581 47.6498 31.7495 47.473 31.6585C47.1571 31.4716 46.8388 31.2922 46.518 31.1128L46.4194 31.0522V30.2033L46.9247 29.314L47.3845 29.5667L47.4831 29.6197C47.6498 29.7258 47.8191 29.8294 47.9959 29.9279Z" fill="white"/>
<path d="M55.2519 34.4401C55.1432 34.5816 55.0396 34.7205 54.9361 34.8595C54.9015 34.8996 54.8694 34.9418 54.8401 34.9858L54.7289 35.1323C54.6556 35.2309 54.5824 35.3243 54.5116 35.4279C54.4409 35.5315 54.3045 35.7084 54.2059 35.8524C54.067 35.7538 53.9179 35.6553 53.7689 35.5593C51.9145 34.3112 49.9792 33.1061 48.0061 31.9617V29.9279C50.3557 31.2619 52.6421 32.6792 54.8274 34.1395L55.2519 34.4401Z" fill="white"/>
<path d="M74.4448 51.8546L73.702 52.4534C73.6687 52.4685 73.634 52.4804 73.5984 52.4888C73.3938 52.557 73.1968 52.6252 72.9896 52.6884L72.8885 52.7187L72.7445 52.5393C72.5559 52.3052 72.3613 52.0677 72.1609 51.8269C72.0396 51.6778 71.9083 51.5338 71.787 51.3847C71.4232 50.9426 71.0291 50.5005 70.6426 50.0634C70.587 50.0053 70.539 49.9523 70.4935 49.8967C70.448 49.8411 70.3545 49.7476 70.2914 49.6718C70.1272 49.495 69.9705 49.3206 69.8139 49.1488L69.4526 48.7598C68.7351 47.9892 67.9999 47.2313 67.2647 46.5012C67.1384 46.3799 67.0121 46.2485 66.8858 46.1374C66.815 46.0565 66.7291 45.9782 66.6508 45.9024C66.5725 45.8266 66.4714 45.7306 66.3805 45.6498C66.2517 45.5235 66.1279 45.3971 65.999 45.286C65.1223 44.4497 64.2305 43.6337 63.2983 42.8227L62.9016 42.4842C62.8208 42.421 62.7475 42.3427 62.6616 42.2795C62.5757 42.2164 62.4671 42.1178 62.3686 42.0269C62.2397 41.9208 62.0982 41.797 61.9643 41.6909C61.0978 40.9683 60.1958 40.2432 59.2585 39.5207C59.1221 39.4121 58.9832 39.3059 58.8442 39.1998L58.5916 39.0078C58.4855 38.9295 58.3819 38.8537 58.2783 38.7729C58.1747 38.692 57.9903 38.5556 57.8513 38.4571L58.1848 38.0503C58.2732 37.9493 58.3591 37.8457 58.4374 37.737C58.5057 37.6663 58.5638 37.5905 58.637 37.5122C58.7457 37.3783 58.8669 37.2419 58.9806 37.108L59.4025 37.4212L59.6426 37.6032C59.7537 37.684 59.8573 37.7648 59.9609 37.8558C60.1024 37.9594 60.2413 38.0705 60.3777 38.1766C61.3428 38.9144 62.265 39.6672 63.1568 40.4075L63.5635 40.746C63.6393 40.8142 63.7151 40.8774 63.7934 40.9431C63.8718 41.0088 64.0006 41.1149 64.0991 41.1957C64.1977 41.2766 64.3695 41.4256 64.5008 41.5418C65.4508 42.368 66.3729 43.2118 67.2597 44.0505C67.3911 44.1769 67.5123 44.3032 67.6386 44.4194C67.7195 44.4952 67.7978 44.5735 67.8736 44.6392C67.9494 44.7049 68.053 44.8211 68.154 44.9121C68.2551 45.003 68.4067 45.1647 68.5279 45.286C69.2859 46.0287 70.0438 46.8018 70.7638 47.5976C70.8901 47.729 71.0165 47.8503 71.1251 47.9816C71.2868 48.1585 71.4409 48.3278 71.5975 48.5046C71.6607 48.5754 71.7289 48.6486 71.7921 48.7244C71.8552 48.8002 71.8982 48.8381 71.9487 48.8962C72.5247 49.5354 73.0755 50.1771 73.5909 50.8087C73.7147 50.9552 73.8258 51.0942 73.9395 51.2382C73.9976 51.3014 74.0532 51.3746 74.1063 51.4403L74.4448 51.8546Z" fill="white"/>
<path d="M47.9961 30.5368V31.3478C47.8192 31.2442 47.6499 31.1456 47.4731 31.0471L46.7783 30.6505L47.1194 30.0315L47.4807 30.2387C47.6499 30.3347 47.8192 30.4332 47.9961 30.5368Z" fill="white"/>
<path d="M73.707 51.7611L73.1562 52.2033C73.0122 52.0214 72.8632 51.8369 72.7141 51.6576C72.5979 51.5085 72.4615 51.3594 72.3503 51.2154C71.8804 50.6546 71.3928 50.0912 70.8875 49.5328C69.6243 48.1307 68.3359 46.7791 67.0247 45.5108C65.9509 44.475 64.8241 43.4366 63.6569 42.421C63.5256 42.3048 63.4043 42.1886 63.2603 42.0749L63.0076 41.8551C62.9116 41.7717 62.8232 41.6959 62.7272 41.6201C62.5933 41.5014 62.4569 41.3852 62.3179 41.2765C61.4463 40.5464 60.5368 39.8163 59.5995 39.0937C59.458 38.9851 59.3191 38.8764 59.1801 38.7728C59.0942 38.6996 59.0033 38.6339 58.9123 38.5657L58.6142 38.3434C58.4753 38.2347 58.3313 38.1286 58.1873 38.0276C58.2757 37.9265 58.3616 37.8229 58.4399 37.7143C58.5081 37.6436 58.5662 37.5678 58.6395 37.4894C58.7835 37.593 58.9224 37.7017 59.0639 37.8052C59.1523 37.8735 59.2433 37.9366 59.3292 38.0048L59.6273 38.2347C59.7663 38.3383 59.9052 38.4469 60.0416 38.5531C60.9941 39.2882 61.9137 40.0335 62.7954 40.7687C62.9319 40.8799 63.0683 40.9936 63.2022 41.1098C63.2881 41.178 63.3689 41.2513 63.4548 41.322C63.5407 41.3927 63.6443 41.4837 63.7378 41.5746C63.8742 41.6883 64.0056 41.802 64.137 41.9182C65.3092 42.9288 66.441 43.9747 67.5122 45.0156C68.8336 46.2915 70.1473 47.6582 71.408 49.0705C71.9916 49.7147 72.5449 50.359 73.0729 50.9956C73.1942 51.1396 73.3104 51.2836 73.424 51.4226C73.5377 51.5616 73.611 51.6475 73.707 51.7611Z" fill="white"/>
<path d="M63.2682 25.5168L62.8842 25.8932L62.6644 26.1055L62.3738 26.3884C62.2424 26.5147 62.1212 26.6411 61.9949 26.7623C61.8534 26.6436 61.7144 26.54 61.5755 26.4364C57.2777 23.18 52.739 20.2544 47.9985 17.6849V15.679C53.1986 18.4409 58.1643 21.623 62.8463 25.1934L63.2682 25.5168Z" fill="white"/>
<path d="M67.2625 28.796C67.1286 28.9097 66.9921 29.031 66.8582 29.1421L66.6814 29.3063C66.5601 29.4049 66.4414 29.5135 66.3252 29.6171C66.2089 29.7207 66.0725 29.8521 65.9285 29.9733C64.9634 29.1295 63.9705 28.3135 62.9701 27.5278C62.8362 27.4166 62.6947 27.308 62.5608 27.1943C62.6821 27.073 62.8134 26.9416 62.9347 26.8254C63.0105 26.7572 63.0787 26.6814 63.1545 26.6081L63.4526 26.3378C63.5789 26.2115 63.7053 26.0852 63.8417 25.9664C63.9806 26.07 64.1221 26.1837 64.256 26.2974C65.2691 27.0957 66.2746 27.9396 67.2625 28.796Z" fill="white"/>
<path d="M58.9808 37.0802C58.8671 37.2141 58.7458 37.3505 58.6372 37.4844C58.5639 37.5627 58.5058 37.6385 58.4376 37.7093C58.3567 37.8179 58.2709 37.9215 58.185 38.0225L57.8515 38.4293C56.99 37.7901 56.1158 37.1661 55.2265 36.5446C55.0825 36.441 54.9436 36.345 54.7996 36.2465C54.8981 36.1025 54.9966 35.9585 55.1002 35.8195C55.1344 35.7774 55.1665 35.7335 55.1962 35.6881L55.3074 35.5441C55.3756 35.4481 55.4514 35.3496 55.5246 35.2561C55.6282 35.1146 55.7318 34.9757 55.8455 34.8367C55.9895 34.9353 56.1335 35.0287 56.2775 35.1323C57.1895 35.7664 58.0965 36.4208 58.9808 37.0802Z" fill="white"/>
<path d="M55.2695 41.7641C55.1659 41.9031 55.0649 42.0471 54.9588 42.1886L54.7542 42.4766L54.552 42.7646C54.4543 42.9094 54.3533 43.0534 54.2489 43.1966C53.4909 42.656 52.6976 42.1229 51.9094 41.5974C51.7654 41.4963 51.6113 41.4029 51.4673 41.3069C51.5582 41.1603 51.6492 41.0012 51.7427 40.8521C51.8008 40.7485 51.8639 40.6449 51.9271 40.5413L52.109 40.2533C52.1999 40.0992 52.2934 39.9552 52.3894 39.8112C52.541 39.9022 52.685 40.0007 52.829 40.0992C53.6552 40.6449 54.4788 41.2058 55.2695 41.7641Z" fill="white"/>
<path d="M68.2175 22.0632C68.0785 22.1769 67.9446 22.2906 67.8082 22.4068C67.9446 22.5205 68.0785 22.6317 68.215 22.7529C69.2685 23.665 70.2892 24.5972 71.2467 25.532C71.378 25.6533 71.4993 25.7846 71.6357 25.9034C71.7115 25.9741 71.7797 26.0474 71.8555 26.1156C71.9313 26.1838 72.0501 26.3026 72.1461 26.3986L72.5276 26.7775C73.5381 27.7729 74.4931 28.7987 75.4051 29.8092C75.5315 29.9406 75.6578 30.0745 75.7614 30.2059C75.8372 30.2867 75.9104 30.36 75.9786 30.4408C76.0469 30.5217 76.153 30.6354 76.2313 30.7389C76.3096 30.8425 76.4662 30.9916 76.585 31.1356C77.5223 32.2295 78.4192 33.3361 79.2579 34.4452C79.3666 34.5841 79.4752 34.7231 79.5788 34.8671C79.6445 34.9581 79.7177 35.049 79.7809 35.14C79.8441 35.2309 79.9299 35.332 79.9982 35.4355C80.1043 35.577 80.2078 35.716 80.3089 35.86C81.039 36.8705 81.7363 37.8811 82.4008 38.922C82.4993 39.0711 82.5953 39.2277 82.6837 39.3767C82.8151 39.5713 82.9364 39.7734 83.0551 39.9679L83.189 40.1852C83.2396 40.266 83.285 40.3368 83.328 40.4176C83.4745 40.6576 83.6185 40.9002 83.7524 41.1351C83.6438 41.3878 83.5276 41.6581 83.4012 41.9107C83.189 41.5444 82.9692 41.1756 82.7393 40.7915C82.6888 40.7107 82.6383 40.6299 82.5903 40.5389C82.5423 40.448 82.5094 40.405 82.4639 40.3368C82.3427 40.1372 82.2113 39.9401 82.0926 39.7405C81.994 39.5915 81.9005 39.445 81.8096 39.2909C81.1502 38.2803 80.4529 37.247 79.7253 36.2592C79.6318 36.1152 79.5282 35.9711 79.4146 35.8246C79.3522 35.7303 79.2866 35.6393 79.2175 35.5518C79.1392 35.4507 79.0735 35.3572 78.9952 35.2587C78.8916 35.1172 78.783 34.9783 78.6769 34.8393C77.8381 33.7327 76.9437 32.6338 76.0115 31.555L75.6729 31.1381C75.6047 31.0573 75.5315 30.9764 75.4607 30.8855C75.39 30.7945 75.294 30.6909 75.2081 30.5949C75.1222 30.4989 74.9554 30.3423 74.8519 30.1983C73.9424 29.1877 72.9773 28.1772 71.9793 27.1868C71.853 27.0655 71.7267 26.9342 71.6004 26.8129L71.3806 26.5956L71.0825 26.3379C70.9612 26.2116 70.8298 26.0853 70.6984 25.9665C69.7308 25.0444 68.7203 24.1223 67.6667 23.2203C67.5303 23.0991 67.3964 22.9879 67.26 22.8692C67.1261 22.9879 66.9897 23.1092 66.8558 23.2203C65.8073 24.1273 64.7892 25.052 63.8241 25.9665C63.6927 26.0929 63.5714 26.2192 63.435 26.3379L63.147 26.6158C63.0712 26.6891 63.003 26.7649 62.9272 26.8331C62.8009 26.9544 62.6746 27.0858 62.5533 27.202C61.5427 28.1948 60.5877 29.2105 59.6706 30.2337C59.5494 30.365 59.418 30.4863 59.3144 30.6303L59.0618 30.9158C58.9961 30.9966 58.9228 31.0775 58.8546 31.1684C58.7359 31.3023 58.6197 31.4337 58.511 31.5651C57.5737 32.6615 56.6768 33.7605 55.8431 34.8494C55.7294 34.9884 55.6259 35.1273 55.5223 35.2688C55.449 35.3623 55.3732 35.4608 55.305 35.5568L55.1938 35.7008C55.1641 35.7462 55.1321 35.7901 55.0978 35.8322C54.9943 35.9711 54.8957 36.1152 54.7972 36.2592C53.9584 37.4238 53.1525 38.6188 52.3996 39.8214C52.3036 39.9654 52.2102 40.1094 52.1192 40.2635L51.9373 40.5515C51.8741 40.6551 51.811 40.7587 51.7529 40.8623C51.6594 41.0113 51.5684 41.1705 51.4775 41.317C51.24 41.7288 51 42.1381 50.7701 42.5499C50.6261 42.315 50.4922 42.08 50.3659 41.84C50.5351 41.5343 50.712 41.2337 50.8888 40.9254C50.9823 40.7764 51.0682 40.6324 51.1617 40.4783C51.2173 40.3772 51.2754 40.2837 51.3385 40.1852C51.4017 40.0867 51.4649 39.978 51.528 39.877C51.619 39.7279 51.7074 39.5763 51.8084 39.4323C52.5664 38.2222 53.3723 37.0272 54.2212 35.86C54.3197 35.716 54.4233 35.577 54.5269 35.4355C54.6305 35.2941 54.6709 35.2385 54.7441 35.14L54.8553 34.9934C54.8847 34.9494 54.9167 34.9072 54.9513 34.8671C55.0549 34.7282 55.1585 34.5892 55.2671 34.4477C56.1034 33.3437 57.0002 32.2346 57.9476 31.1356C58.0638 30.9992 58.1725 30.8678 58.2887 30.7339C58.3746 30.6404 58.4605 30.5394 58.5413 30.4459C58.6222 30.3524 58.6803 30.2842 58.7485 30.2059C58.8698 30.077 58.9835 29.9406 59.1047 29.8092C60.0193 28.7987 60.9945 27.7755 61.9949 26.7775C62.1213 26.6512 62.2476 26.5249 62.3739 26.4036L62.6644 26.1207L62.8842 25.9084L63.2683 25.532C64.2384 24.6124 65.2515 23.6852 66.3126 22.7681C66.4465 22.6519 66.5829 22.5382 66.7168 22.4169C66.5829 22.2957 66.4414 22.182 66.3075 22.0784C60.6416 17.426 54.5044 13.3794 47.9961 10.0047V9.21643C54.7052 12.6648 61.0268 16.8198 66.8532 21.611C66.9922 21.7272 67.1286 21.8409 67.2625 21.9571L67.6768 21.611C73.1217 17.1242 79.0061 13.1992 85.2405 9.89604V10.6742C79.2101 13.9093 73.5089 17.7237 68.2175 22.0632Z" fill="#A97C50"/>
<path d="M51.0732 43.0576C50.9772 43.2294 50.8838 43.4062 50.7878 43.5806C50.7655 43.6134 50.7461 43.648 50.7297 43.6841L50.477 44.1439L49.5902 43.6665C49.5862 43.6561 49.5802 43.6467 49.5726 43.6387C49.5523 43.6108 49.5345 43.5812 49.5195 43.5502C49.4185 43.3961 49.33 43.242 49.2391 43.0854C49.2214 43.0576 49.2062 43.0298 49.1885 43.0045C49.1709 42.9793 49.1759 42.9818 49.1709 42.9666C49.1658 42.9515 49.1709 42.954 49.1582 42.9489C49.1538 42.941 49.1487 42.9334 49.1431 42.9262L49.1835 42.8529C49.3654 42.5144 49.5574 42.1733 49.7469 41.8297C49.8479 41.6453 49.9515 41.4634 50.0602 41.279C50.1536 41.4735 50.2496 41.6529 50.3532 41.8373C50.4795 42.0773 50.6059 42.3123 50.7574 42.5472C50.7903 42.6003 50.8206 42.6584 50.856 42.7165C50.8914 42.7746 50.9292 42.8353 50.9646 42.8883C51 42.9414 51.0151 42.9616 51.0429 43.002C51.0489 43.0148 51.0566 43.0266 51.0657 43.0374C51.0671 43.0445 51.0696 43.0513 51.0732 43.0576Z" fill="#A97C50"/>
<path d="M86.4628 10.0198C86.3769 10.0703 86.2859 10.1158 86.1899 10.1638C86.0939 10.2118 85.9196 10.3129 85.7705 10.3912L85.24 10.6691V9.88085C85.2724 9.8654 85.3036 9.84768 85.3335 9.8278C85.3612 9.81415 85.3882 9.79897 85.4143 9.78233C85.5103 9.72675 85.6316 9.66359 85.7705 9.59285C85.9095 9.52211 86.0232 9.46148 86.1318 9.39832V9.41094L86.4628 10.0198Z" fill="#A97C50"/>
<path d="M86.8266 9.57765V9.83029C86.7179 9.89092 86.5916 9.95408 86.4628 10.0198C86.3769 10.0703 86.2859 10.1158 86.1899 10.1638C86.0939 10.2118 85.9196 10.3128 85.7705 10.3912L85.24 10.6691V9.88081C85.2724 9.86536 85.3036 9.84763 85.3335 9.82776C85.3612 9.81411 85.3882 9.79893 85.4143 9.78229C85.5103 9.72671 85.6316 9.66354 85.7705 9.59281L86.1419 9.4109L86.2682 9.35785C86.3077 9.33806 86.3482 9.32034 86.3895 9.30479C86.4704 9.26689 86.5512 9.23153 86.627 9.20374L86.8266 9.57765Z" fill="#A97C50"/>
<path d="M71.9742 27.1993C71.8352 27.308 71.6912 27.4166 71.5548 27.5328C70.5543 28.3177 69.5673 29.1329 68.5938 29.9784C68.4574 30.0845 68.3412 30.1982 68.1972 30.3245C68.0835 30.418 67.9673 30.519 67.8536 30.6176C67.7854 30.6807 67.7273 30.7287 67.6692 30.7894C67.5353 30.9081 67.4165 31.0193 67.2725 31.1431C66.2847 32.0298 65.312 32.9469 64.3823 33.8691C64.256 33.9954 64.1297 34.1217 64.0033 34.248C63.877 34.3743 63.8063 34.4527 63.7027 34.5512L63.5082 34.7483C63.3869 34.8796 63.2555 35.0009 63.1393 35.1272C62.1818 36.1252 61.2622 37.1357 60.3931 38.1412L60.0495 38.5404C59.9687 38.6415 59.8828 38.74 59.7969 38.8385C59.711 38.937 59.663 39.0002 59.5998 39.0912C59.476 39.2276 59.3724 39.359 59.2562 39.4929C58.372 40.5767 57.5155 41.6757 56.7121 42.7772C56.6085 42.9161 56.4999 43.0602 56.4064 43.2067C56.3306 43.2951 56.27 43.3911 56.2043 43.4846C56.1386 43.5781 56.0679 43.6842 55.9997 43.7827C55.8961 43.9217 55.7976 44.0657 55.694 44.2122C55.1432 45.0181 54.6076 45.8443 54.0973 46.6679C53.9988 46.8169 53.9028 46.9761 53.8143 47.1252C53.7512 47.2186 53.6956 47.3172 53.6375 47.4132L53.3671 47.8679L52.5612 47.3854C52.5612 47.3727 52.5284 47.3601 52.5157 47.3399C52.3313 47.1504 52.1545 46.966 51.9751 46.7765L52.1317 46.5087C52.2631 46.2839 52.4021 46.059 52.5511 45.8367C52.6421 45.68 52.7406 45.5259 52.8366 45.3769C53.2964 44.6442 53.7739 43.9166 54.264 43.2042C54.3685 43.0593 54.4695 42.9153 54.5672 42.7721L54.7693 42.4841L54.9739 42.1961C55.0801 42.0546 55.1811 41.9106 55.2847 41.7717C56.0957 40.6525 56.9572 39.5358 57.8591 38.4394L58.1926 38.0326C58.281 37.9315 58.3669 37.8279 58.4452 37.7193C58.5135 37.6486 58.5716 37.5728 58.6448 37.4945C58.7535 37.3606 58.8747 37.2241 58.9884 37.0902C59.871 36.0611 60.7973 35.0405 61.7675 34.0282C61.8887 33.907 62.0049 33.7756 62.1363 33.6493C62.2677 33.5229 62.3384 33.437 62.442 33.3335L62.629 33.144C62.7553 33.0227 62.8816 32.8913 63.0029 32.765C63.9503 31.8277 64.9331 30.8929 65.9335 29.986C66.0649 29.8647 66.1988 29.7333 66.3302 29.6297C66.4616 29.5262 66.5651 29.4175 66.6864 29.319L66.8632 29.1548C66.9971 29.0436 67.1336 28.9223 67.2675 28.8087C68.2528 27.9396 69.2633 27.0957 70.2739 26.2898C70.4179 26.1812 70.5493 26.0675 70.6882 25.9589C70.8196 26.0852 70.9409 26.2115 71.0722 26.3302L71.3653 26.6082L71.5851 26.8254C71.7266 26.9517 71.8479 27.0781 71.9742 27.1993Z" fill="white"/>
<path d="M86.8266 16.6666V17.518L86.718 17.5787C86.4022 17.7479 86.0864 17.9248 85.7706 18.1016L85.24 18.3947C80.9654 20.7887 76.8627 23.4774 72.9617 26.4413C72.8177 26.5449 72.6787 26.6536 72.5372 26.7672L72.1558 26.3883C72.0597 26.2923 71.9663 26.1988 71.8652 26.1053C71.7641 26.0118 71.7212 25.9638 71.6454 25.8931C71.5191 25.7693 71.3928 25.6405 71.2563 25.5217C71.3978 25.4106 71.5418 25.3019 71.6858 25.1983C75.9745 21.9224 80.5056 18.9766 85.24 16.3862C85.4194 16.2877 85.5963 16.1841 85.7706 16.0906L85.8792 16.03L86.339 15.7773L86.8266 16.6666Z" fill="white"/>
<path d="M71.5948 26.8254L71.1704 27.1538C70.1598 27.9471 69.1694 28.7682 68.1993 29.6171C68.0654 29.7282 67.9467 29.847 67.8001 29.9682C67.6536 30.0895 67.5955 30.14 67.497 30.2209C67.3984 30.3017 67.3378 30.3598 67.262 30.4306C67.1306 30.5443 67.0094 30.6605 66.8704 30.7843C65.875 31.6761 64.9049 32.5957 63.9701 33.5305L63.5911 33.9069L63.3208 34.1798C63.2425 34.2556 63.1717 34.3313 63.0934 34.4097C62.9722 34.536 62.8408 34.6623 62.7246 34.7861C61.7696 35.7967 60.8449 36.8072 59.9733 37.8178C59.8571 37.9492 59.7434 38.0831 59.6322 38.2195C59.5514 38.313 59.4705 38.4039 59.3796 38.4974C59.2886 38.5909 59.2356 38.6692 59.1648 38.75L58.8263 39.1543C57.932 40.2381 57.0755 41.3472 56.2696 42.4563C56.166 42.5952 56.0624 42.7392 55.9588 42.8833L55.7542 43.1687C55.686 43.2622 55.6203 43.3633 55.5521 43.4618C55.4485 43.6058 55.35 43.7498 55.2489 43.8989C54.7083 44.6854 54.1887 45.4787 53.6901 46.2788C53.5941 46.4329 53.5006 46.587 53.4097 46.7386C53.3238 46.8699 53.248 46.9912 53.157 47.1276L52.5532 46.7613C52.6619 46.5819 52.773 46.3975 52.8867 46.2156C53.0004 46.0337 53.0812 45.9049 53.1747 45.7507C53.6573 44.9928 54.1524 44.2349 54.6678 43.477C54.7664 43.3304 54.8649 43.1864 54.9685 43.0424C55.0367 42.9439 55.1049 42.8504 55.1731 42.7494C55.2413 42.6483 55.307 42.5548 55.3803 42.4613C55.4788 42.3173 55.5824 42.1784 55.686 42.0319C56.497 40.9152 57.3534 39.8061 58.2553 38.7147C58.364 38.5782 58.4777 38.4443 58.5888 38.3079C58.7 38.1715 58.748 38.1159 58.8288 38.0199C58.9097 37.9239 58.9678 37.8532 59.0461 37.7673C59.1547 37.6334 59.271 37.4969 59.3872 37.3605C60.263 36.3499 61.1893 35.3394 62.1662 34.3288C62.2824 34.1974 62.4062 34.0762 62.5326 33.9448C62.6589 33.8134 62.7119 33.7604 62.8029 33.6644C62.8938 33.5684 62.9494 33.5128 63.0277 33.4395C63.1541 33.3132 63.2804 33.1869 63.4067 33.0656C64.3499 32.1275 65.3209 31.2011 66.3196 30.2866C66.4485 30.1703 66.5723 30.0465 66.7163 29.9303L67.0169 29.66C67.0953 29.5918 67.171 29.5236 67.2519 29.4579C67.3883 29.3341 67.5222 29.2179 67.6587 29.1042C68.6364 28.2528 69.6419 27.4191 70.6575 26.6207C70.7914 26.507 70.9303 26.3959 71.0718 26.2923L71.3649 26.5702L71.5948 26.8254Z" fill="white"/>
<path d="M86.4655 17.1139C86.2331 17.2402 86.0007 17.3665 85.7708 17.4954L85.2402 17.7884C80.8308 20.2428 76.601 23.0069 72.5829 26.0599C72.4439 26.1711 72.2999 26.2797 72.161 26.3883C72.065 26.2923 71.9715 26.1989 71.8704 26.1054C71.7694 26.0119 71.7264 25.9639 71.6506 25.8932C71.7896 25.7795 71.9336 25.6708 72.0751 25.5622C76.2487 22.3878 80.6488 19.5228 85.2402 16.9901L85.7708 16.697C85.8895 16.6288 86.0108 16.5656 86.132 16.4974L86.4655 17.1139Z" fill="white"/>
<path d="M75.6725 31.1381L76.0186 31.5397C75.8746 31.6433 75.7382 31.7469 75.5942 31.8556C74.5988 32.5806 73.664 33.3032 72.7672 34.0156L72.3528 34.3542C72.2366 34.4426 72.133 34.5285 72.0193 34.6245C71.9511 34.6826 71.8804 34.7306 71.8122 34.7938C71.6732 34.9024 71.5368 35.0161 71.4029 35.1273C70.4378 35.9307 69.4904 36.7517 68.5708 37.5855C68.4394 37.6992 68.3182 37.8204 68.1792 37.9366C68.0807 38.0352 67.9771 38.1211 67.8786 38.2171L67.6663 38.4141C67.54 38.5329 67.4137 38.6491 67.2773 38.7754C66.3299 39.6672 65.4052 40.5843 64.5184 41.5115C64.3921 41.6328 64.2658 41.7641 64.1521 41.8905C64.051 41.9839 63.9752 42.0749 63.8843 42.1709C63.7933 42.2669 63.7352 42.3275 63.6695 42.4033C63.5457 42.5271 63.4346 42.656 63.3133 42.7873C62.3954 43.7794 61.5154 44.7942 60.6732 45.8317C60.557 45.9656 60.4484 46.1071 60.3347 46.241C60.2639 46.3319 60.1907 46.4228 60.1149 46.5113C60.0391 46.5997 59.9709 46.6932 59.8926 46.7867L59.5692 47.1959C59.0007 47.9362 58.4323 48.6941 57.8866 49.452C57.7881 49.6011 57.6845 49.7426 57.5809 49.8866C57.4773 50.0306 57.356 50.2049 57.2474 50.3691L56.9771 50.7557L56.9417 50.8011L56.2242 50.3388L56.1939 50.316C56.1939 50.316 56.1661 50.3034 56.1535 50.2933L55.4814 49.8259L55.7821 49.3914C55.8806 49.2423 55.9766 49.1084 56.0751 48.972C56.1737 48.8255 56.2747 48.6815 56.3834 48.5425C56.9644 47.7214 57.5683 46.9155 58.1847 46.1298C58.2908 45.9858 58.402 45.8519 58.5106 45.7155L58.7355 45.4375C58.8087 45.3516 58.8769 45.2556 58.9527 45.1697C59.0614 45.0308 59.1725 44.8969 59.2862 44.7605C60.1477 43.7044 61.0395 42.6812 61.9516 41.6909L62.3078 41.3018L62.5832 41.0087L62.7904 40.7915C62.9141 40.6652 63.043 40.5388 63.1567 40.4075C64.0586 39.4601 65.001 38.5329 65.9661 37.6284C66.0924 37.5021 66.2187 37.3758 66.345 37.2621L66.6608 36.9715C66.7265 36.9084 66.7947 36.8452 66.8629 36.7871C66.9943 36.6608 67.1156 36.5345 67.2545 36.4309C68.196 35.5702 69.1611 34.7281 70.1498 33.9045C70.2812 33.7883 70.4201 33.6746 70.5565 33.5685C70.693 33.4623 70.7814 33.379 70.9027 33.288C70.9658 33.2299 71.0391 33.1743 71.1023 33.1213C71.2412 33.0025 71.3802 32.8964 71.5166 32.7827C72.4412 32.0476 73.3962 31.3124 74.4144 30.5544C74.5584 30.4509 74.6948 30.3422 74.8388 30.2386C74.955 30.37 75.0788 30.4913 75.195 30.6353C75.3113 30.7793 75.3719 30.8298 75.4477 30.9258C75.5235 31.0218 75.6043 31.0597 75.6725 31.1381Z" fill="white"/>
<path d="M86.8268 23.7962V24.6375L86.7282 24.6982C86.4074 24.8775 86.0865 25.0569 85.7707 25.2439C85.5964 25.3373 85.4195 25.4409 85.2402 25.5496C82.3676 27.217 79.6138 28.9855 77.0243 30.8247C76.8803 30.9207 76.7413 31.0243 76.5973 31.1279C76.4786 30.9915 76.3624 30.8752 76.2436 30.7312C76.1249 30.5872 76.0744 30.5316 75.991 30.4331C75.9076 30.3346 75.8495 30.279 75.7737 30.1982C75.6651 30.0668 75.5438 29.9455 75.4175 29.8015C75.5615 29.703 75.7055 29.5943 75.8495 29.4958C78.872 27.3436 82.0039 25.3493 85.2326 23.5209C85.412 23.4223 85.5888 23.3187 85.7631 23.2177L85.8642 23.1646L86.319 22.912L86.8268 23.7962Z" fill="white"/>
<path d="M75.4607 30.8981C75.5314 30.9789 75.6047 31.0597 75.6729 31.1507L75.2484 31.4665C74.2379 32.2017 73.3056 32.9217 72.3986 33.6493L71.9843 33.9828L71.6862 34.2355L71.4336 34.4401C71.2921 34.5513 71.1582 34.6649 71.0218 34.7761C70.0483 35.5795 69.0983 36.4031 68.172 37.2469C68.0381 37.3657 67.9067 37.4819 67.7753 37.6032C67.6439 37.7244 67.5858 37.775 67.4974 37.8558C67.409 37.9366 67.3332 38.0049 67.2574 38.0806C67.126 38.1994 67.0048 38.3333 66.8709 38.4419C65.9184 39.3388 64.9887 40.2584 64.0918 41.1932C63.9655 41.3195 63.8392 41.4458 63.7255 41.5797C63.6371 41.6656 63.5562 41.7566 63.4728 41.8324C63.3895 41.9082 63.3187 41.9991 63.2429 42.085C63.1191 42.2164 62.9903 42.3377 62.8867 42.4741C61.9797 43.4569 61.0955 44.4699 60.2441 45.5058C60.1253 45.6422 60.0167 45.7786 59.9055 45.9176C59.8272 46.0085 59.7565 46.097 59.6832 46.1879C59.6099 46.2789 59.5342 46.3723 59.4685 46.4683C59.3497 46.6022 59.2462 46.7412 59.1375 46.8776C58.5489 47.6355 57.9653 48.4162 57.4069 49.2044C57.2983 49.3485 57.1998 49.4874 57.1037 49.6314C57.0077 49.7754 56.889 49.9346 56.7854 50.0836L56.2043 49.6819L56.4999 49.2575L56.8031 48.8305C57.3791 48.0196 57.9804 47.2212 58.5893 46.4406C58.6954 46.3016 58.804 46.1601 58.9127 46.0262C58.9859 45.9302 59.0617 45.8367 59.135 45.7458C59.2083 45.6548 59.279 45.5664 59.3548 45.4755L59.6832 45.0687C60.5447 44.0228 61.434 42.9996 62.3486 42.0117C62.4623 41.8829 62.5785 41.7591 62.7048 41.6252C62.7856 41.5343 62.8715 41.4408 62.9574 41.3498C63.0433 41.2589 63.1065 41.1907 63.1874 41.1098C63.3036 40.981 63.44 40.8572 63.5537 40.7233C64.4506 39.7809 65.3879 38.8512 66.3479 37.9442C66.4742 37.823 66.6005 37.6916 66.7319 37.5829C66.8229 37.4996 66.9163 37.4086 67.0123 37.3303C67.1083 37.252 67.169 37.1863 67.2498 37.113C67.3762 36.9918 67.5025 36.8755 67.6389 36.7568C68.5711 35.9054 69.5362 35.0717 70.519 34.2632C70.6554 34.147 70.7893 34.0333 70.9283 33.9247L71.2264 33.6721L71.479 33.4699C71.6155 33.3563 71.7544 33.2451 71.8984 33.1365C72.8105 32.4013 73.7629 31.6711 74.771 30.9258L75.1954 30.61C75.2939 30.7035 75.3798 30.802 75.4607 30.8981Z" fill="white"/>
<path d="M86.4705 24.2384C86.2355 24.3672 86.0057 24.491 85.7707 24.635C85.5913 24.7335 85.4145 24.8371 85.2401 24.9357C82.2362 26.6688 79.3637 28.508 76.6731 30.418L76.2436 30.7312C76.1627 30.6277 76.0743 30.5317 75.9909 30.4331C75.9076 30.3346 75.8495 30.279 75.7737 30.1982C75.9177 30.0946 76.0617 29.9859 76.2107 29.8874C79.0429 27.8663 82.072 25.9361 85.2427 24.1247C85.417 24.0211 85.5938 23.9226 85.7732 23.8215L86.1294 23.6194L86.4705 24.2384Z" fill="white"/>
<path d="M86.8264 30.9333V31.7847L86.738 31.8353L85.7703 32.4012C85.596 32.5073 85.4192 32.6058 85.2398 32.717C83.7054 33.6332 82.214 34.5781 80.7655 35.5516C80.6165 35.6527 80.4649 35.7487 80.3259 35.8472C80.2148 35.918 80.1162 35.9938 80.0101 36.062C79.904 36.1302 79.8358 36.1832 79.7575 36.2489C79.6109 36.3373 79.4669 36.4384 79.3204 36.5395C78.4387 37.1559 77.5519 37.7875 76.7005 38.4267C76.5565 38.5277 76.415 38.6338 76.2761 38.7425C76.1371 38.8511 76.0664 38.8991 75.9603 38.9724C75.8542 39.0457 75.7935 39.1038 75.7076 39.1644C75.5662 39.268 75.4323 39.3791 75.2908 39.4853C74.3636 40.2053 73.4591 40.9329 72.5926 41.6529C72.4561 41.7641 72.3197 41.8828 72.1858 41.994L71.8852 42.2466L71.6502 42.4513C71.5138 42.5624 71.3976 42.6786 71.2485 42.7974C70.3171 43.6025 69.4152 44.421 68.5427 45.2531C68.4139 45.3718 68.2901 45.5057 68.1638 45.6194C68.0728 45.7028 67.9768 45.7887 67.8934 45.872C67.8101 45.9554 67.7318 46.0211 67.656 46.1019L67.282 46.4632C66.3902 47.3449 65.5136 48.2645 64.647 49.2069C64.5257 49.3383 64.407 49.4595 64.2908 49.5985C64.2099 49.6819 64.1417 49.7627 64.0609 49.8511C63.98 49.9396 63.8992 50.0305 63.8259 50.1038C63.7046 50.2402 63.5733 50.3564 63.4748 50.5055C63.2221 50.7808 62.9947 51.0562 62.7623 51.3367C62.6335 51.4857 62.5097 51.6373 62.3833 51.7864C62.1762 52.039 61.9816 52.274 61.7871 52.514L61.6557 52.6782C61.441 52.6176 61.2313 52.5594 61.0191 52.4887L60.9408 52.4634C60.8195 52.4281 60.6881 52.3826 60.5795 52.3422V52.2184L60.0894 51.8217L60.4178 51.4125C60.4683 51.3518 60.5239 51.2861 60.5744 51.2204C60.6906 51.0764 60.8043 50.935 60.9307 50.791C61.3298 50.3025 61.7416 49.8166 62.1661 49.3332C62.2772 49.1968 62.3985 49.0679 62.5172 48.9315C62.593 48.8406 62.6739 48.7521 62.7522 48.6612C62.8305 48.5702 62.9088 48.4919 62.9846 48.4085C63.0983 48.2772 63.2196 48.1559 63.3383 48.017C64.215 47.0544 65.1068 46.1196 66.0239 45.2227C66.1502 45.0914 66.2765 44.9701 66.4003 44.8514C66.4913 44.7604 66.5848 44.672 66.6757 44.5987C66.7667 44.5255 66.8197 44.4547 66.9006 44.3789C67.0269 44.2627 67.1532 44.1263 67.282 44.0126C68.1739 43.1713 69.096 42.33 70.0459 41.5039C70.1773 41.3877 70.2986 41.2714 70.4476 41.1577C70.5487 41.0668 70.6472 40.9809 70.7483 40.9051L70.9832 40.703C71.1197 40.5943 71.2359 40.4781 71.39 40.3695C72.2768 39.6267 73.2014 38.8764 74.169 38.1336C74.3105 38.03 74.4495 37.9189 74.591 37.8128C74.6946 37.7294 74.8007 37.6486 74.9118 37.5601L75.1645 37.3808C75.3085 37.2696 75.4499 37.166 75.5889 37.065C76.4757 36.398 77.3877 35.7462 78.2947 35.1171L78.7292 34.8164C78.8404 34.7407 78.9465 34.6649 79.0551 34.5941L79.3078 34.4147C79.4543 34.3187 79.6034 34.2202 79.7499 34.1192C81.5184 32.9267 83.3804 31.7645 85.2802 30.6529C85.4596 30.5468 85.6364 30.4483 85.8108 30.3422L85.9017 30.2916L86.3565 30.0264L86.8264 30.9333Z" fill="white"/>
<path d="M61.2443 52.3599H61.0775V52.0062L60.8047 51.7889C61.5272 50.887 62.3054 49.9699 63.1214 49.0604C64.3846 47.6481 65.6958 46.2813 67.0222 45.003C68.3006 43.7625 69.6648 42.522 71.0645 41.3195C72.3605 40.2154 73.7475 39.0987 75.1901 38.0023C76.5266 36.9917 77.9085 35.9988 79.3031 35.0489C81.4758 33.5684 83.7673 32.1258 86.1244 30.7692L86.4781 31.378C84.1462 32.7271 81.8699 34.1571 79.7098 35.6325C78.3254 36.5749 76.9535 37.5602 75.6272 38.5631C74.1947 39.652 72.8178 40.7611 71.5318 41.8475C70.1322 43.04 68.7806 44.2703 67.5098 45.5032C66.1986 46.7664 64.8975 48.1231 63.6469 49.5227C62.8385 50.4221 62.0679 51.3316 61.3529 52.2209L61.2443 52.3599Z" fill="white"/>
<path d="M86.6325 9.2037C86.5567 9.23149 86.4759 9.26686 86.3951 9.30476C86.3537 9.32031 86.3133 9.33803 86.2738 9.35782C86.2334 9.3755 86.1904 9.39318 86.1475 9.41592V9.40329C86.0313 9.46645 85.91 9.53466 85.7862 9.59782C85.6624 9.66098 85.5336 9.73172 85.43 9.7873C85.4039 9.80395 85.3769 9.81914 85.3491 9.83279C85.3193 9.85266 85.288 9.87039 85.2556 9.88584V34.0131C85.2528 35.1343 85.1429 36.2527 84.9272 37.353C84.8868 37.6056 84.8312 37.8305 84.7731 38.0654C84.7554 38.1513 84.7377 38.2322 84.715 38.3181V38.3762C84.6569 38.6011 84.5937 38.8133 84.5306 39.0381C84.4674 39.263 84.3739 39.5434 84.2779 39.796C84.1819 40.0487 84.1213 40.2558 84.0253 40.4883L83.7726 41.0971C83.664 41.3498 83.5478 41.6201 83.4215 41.8727C83.3851 41.9539 83.3446 42.0332 83.3002 42.1102C83.2497 42.2189 83.1865 42.3224 83.1335 42.421C82.6587 43.3087 82.1084 44.1539 81.4888 44.9474C81.3751 45.0863 81.2538 45.2354 81.1401 45.3845L80.6955 45.8898C80.6778 45.8898 80.6727 45.9074 80.6576 45.9251C80.5388 46.059 80.4176 46.1954 80.2862 46.3268C79.5989 47.0456 78.8527 47.7056 78.0554 48.2999C77.9189 48.4086 77.78 48.5122 77.6309 48.6107C77.545 48.6738 77.4516 48.7345 77.3606 48.7977C77.2697 48.8608 77.1484 48.9315 77.0448 49.0048C76.8957 49.0983 76.7517 49.1943 76.5976 49.2802C75.654 49.8558 74.6574 50.3397 73.6215 50.7253C73.4548 50.7885 73.283 50.8491 73.1162 50.9072C73.1105 50.9051 73.1042 50.9051 73.0985 50.9072C72.8636 50.9931 72.6211 51.0638 72.3811 51.1371C72.1916 51.1902 72.0147 51.2458 71.8202 51.2938C70.8043 51.5516 69.768 51.7207 68.7228 51.799C68.4702 51.8167 68.1923 51.8369 67.9245 51.8445C67.7729 51.8445 67.6263 51.8445 67.4747 51.8445H67.2423C67.1286 51.8445 67.0023 51.8445 66.8861 51.8445H66.6739C66.5021 51.8445 66.3252 51.8445 66.1686 51.8167C66.012 51.7889 65.7947 51.794 65.6153 51.7763C65.3222 51.7536 65.0469 51.7232 64.7563 51.6778C64.0829 51.5927 63.4149 51.4695 62.7554 51.3089C62.5659 51.2584 62.3714 51.2129 62.1819 51.1598C61.9293 51.0866 61.6968 51.0209 61.4467 50.9426C61.435 50.9333 61.4211 50.9272 61.4063 50.9249L61.3406 50.9072C61.2042 50.8617 61.0551 50.8112 60.9162 50.7581C59.8655 50.3952 58.8506 49.936 57.8845 49.3863C57.7329 49.3029 57.5788 49.217 57.4297 49.1337C57.313 49.0707 57.2007 48.9998 57.0937 48.9214L56.8411 48.7648C56.692 48.6663 56.5556 48.5652 56.4091 48.4616C55.5952 47.9097 54.8272 47.2929 54.1126 46.6174C53.9787 46.491 53.8473 46.3647 53.726 46.2434L53.6527 46.1727C53.5037 46.0186 53.3597 45.8746 53.2258 45.7205C53.0995 45.5942 52.9731 45.4678 52.8569 45.3264C52.2198 44.5998 51.6395 43.8253 51.1213 43.0096L51.1036 42.9869C51.0945 42.9762 51.0868 42.9643 51.0809 42.9515C51.0531 42.9111 51.0253 42.8757 51.0025 42.8378C50.9798 42.7999 50.9318 42.7267 50.8939 42.666C50.856 42.6054 50.8282 42.5498 50.7954 42.4968C50.6514 42.2618 50.5175 42.0269 50.3911 41.7869C50.2876 41.6024 50.1916 41.423 50.0981 41.2285C49.8875 40.8306 49.6986 40.4216 49.5322 40.0032C49.4185 39.7329 49.3098 39.4625 49.2113 39.1872C49.085 38.8486 48.9587 38.5025 48.8601 38.1513C48.8046 37.9669 48.7566 37.7774 48.701 37.5981C48.6833 37.5298 48.6707 37.4793 48.6606 37.4263C48.2495 35.8403 48.0407 34.2088 48.0391 32.5705V9.20118C47.9818 9.16761 47.9228 9.13725 47.8622 9.11023L47.6955 9.01928C47.6694 9.00263 47.6424 8.98745 47.6146 8.9738L47.5161 8.92075C47.362 8.8399 47.218 8.75905 47.0841 8.68073L46.8794 8.56958L46.69 8.46094L46.4575 8.9157V32.5932C46.4558 34.3513 46.6765 36.1026 47.1144 37.8052C47.1185 37.8442 47.1279 37.8824 47.1422 37.9189C47.1422 37.9543 47.1599 37.9897 47.17 38.0301C47.218 38.2246 47.2761 38.4141 47.3367 38.6086C47.3367 38.649 47.362 38.692 47.3771 38.7349C47.8172 40.1948 48.4233 41.5994 49.1835 42.9212C49.1835 42.9212 49.1835 42.9364 49.1835 42.9439C49.1835 42.9515 49.1835 42.9591 49.1962 42.9616C49.2088 42.9642 49.2113 42.9894 49.2138 42.9995C49.2164 43.0096 49.2467 43.0526 49.2644 43.0804C49.3553 43.237 49.4437 43.3911 49.5448 43.5452C49.5598 43.5762 49.5776 43.6058 49.5979 43.6337L49.6206 43.6615C49.7873 43.9368 49.9617 44.2072 50.1486 44.4724C50.3356 44.7377 50.5225 45.0055 50.7196 45.2657C51.1147 45.788 51.5364 46.2897 51.9828 46.7689C52.1622 46.9584 52.339 47.1428 52.5234 47.3323C52.5361 47.3525 52.5588 47.3652 52.5689 47.3778C53.6602 48.4689 54.8684 49.4364 56.1716 50.263C56.1842 50.263 56.2019 50.2781 56.212 50.2857L56.2423 50.3034L56.9472 50.791L56.9826 50.7455C58.1245 51.3986 59.3246 51.9442 60.5675 52.375C60.6888 52.4155 60.805 52.4559 60.9263 52.4913L61.0046 52.514C61.2168 52.5847 61.429 52.6479 61.6463 52.7085C63.2358 53.1578 64.874 53.4123 66.5248 53.4665H66.6688H67.0554H67.495C69.3237 53.4571 71.1417 53.1866 72.8939 52.6631C73.1339 52.5923 73.3689 52.5165 73.6038 52.4332C73.6394 52.4248 73.6741 52.4129 73.7074 52.3978C75.0332 51.9453 76.3043 51.3462 77.497 50.6116L77.5198 50.6343L78.2373 50.1291C78.3585 50.0482 78.4899 49.9623 78.6011 49.8764C78.6642 49.836 78.7198 49.7905 78.783 49.7501L78.9624 49.6238C79.0028 49.5884 79.0483 49.5581 79.0887 49.5253C79.306 49.3585 79.5131 49.1968 79.7203 49.02C80.2256 48.6056 80.6929 48.1711 81.1502 47.7214C81.3751 47.4915 81.5949 47.2616 81.8121 47.0216C81.8298 46.9963 81.8526 46.9812 81.8652 46.9635L82.1178 46.6755C82.1987 46.5769 82.2821 46.4809 82.3705 46.3824C83.2497 45.3303 84.0121 44.1859 84.6443 42.9692C84.6541 42.9439 84.6659 42.9194 84.6796 42.8959C84.6796 42.8959 84.6948 42.8707 84.7024 42.8555C84.7091 42.8477 84.715 42.8393 84.72 42.8303C84.7706 42.7166 84.8262 42.6079 84.8792 42.5044C84.9323 42.4008 84.9777 42.2871 85.0333 42.181C85.5525 41.0686 85.9629 39.9087 86.2586 38.7173V38.6566C86.2586 38.6389 86.2586 38.6213 86.2713 38.6086C86.385 38.1438 86.4784 37.6739 86.5593 37.2014C86.7294 36.1506 86.8139 35.0877 86.8119 34.0232V9.59277L86.6325 9.2037Z" fill="white"/>
<path d="M86.6348 9.20365C86.4757 9.26428 86.3165 9.33502 86.1472 9.41587L86.1346 9.39819L85.7708 9.59272V34.0105C85.7688 35.012 85.6843 36.0116 85.5182 36.9993C85.4828 37.2342 85.4424 37.4641 85.3893 37.694C85.3363 37.9239 85.2832 38.1993 85.2251 38.4519L85.2074 38.5227C85.201 38.5694 85.1891 38.6152 85.172 38.6591C85.1063 38.9118 85.0381 39.1644 84.9674 39.417C84.7923 39.9929 84.5882 40.5595 84.356 41.1148C84.2718 41.3203 84.1876 41.5198 84.1034 41.7135C83.9972 41.9485 83.8861 42.1885 83.7623 42.4184C83.753 42.4415 83.7411 42.4636 83.7269 42.4841C83.6334 42.666 83.54 42.853 83.4339 43.0298C82.9492 43.8935 82.3975 44.718 81.7841 45.4956C81.6603 45.6446 81.5492 45.7836 81.4254 45.9251C81.3066 46.0615 81.2005 46.1777 81.0843 46.3192C81.0439 46.3723 80.9908 46.4203 80.9428 46.4733C80.8241 46.6148 80.6902 46.7386 80.5714 46.8674C79.885 47.5736 79.1451 48.2256 78.3583 48.8178C78.2219 48.9239 78.0753 49.0225 77.9339 49.1235C77.8404 49.1917 77.7469 49.2574 77.6534 49.3155C77.56 49.3736 77.4463 49.457 77.3477 49.5151C77.2012 49.6162 77.0521 49.7096 76.9006 49.7981C75.9682 50.3638 74.9875 50.8457 73.9699 51.2381C73.7981 51.3063 73.6238 51.372 73.4419 51.4251C73.3899 51.4533 73.3348 51.4753 73.2777 51.4908C73.0933 51.5539 72.9114 51.607 72.7294 51.6651C72.5475 51.7232 72.3656 51.7712 72.1787 51.8242C70.8587 52.182 69.5029 52.3913 68.1364 52.4483H67.9773C67.7777 52.4483 67.5781 52.4483 67.3735 52.4483H67.237C66.9617 52.4483 66.6863 52.4483 66.4033 52.423C66.3376 52.423 66.2795 52.423 66.2214 52.423C66.0446 52.423 65.8804 52.4003 65.7161 52.3826L65.4054 52.3573C64.3887 52.2587 63.3811 52.0822 62.3914 51.8293C62.2095 51.7813 62.0225 51.7232 61.8406 51.6777L61.2772 51.5009L61.1939 51.4781C61.165 51.4713 61.137 51.4612 61.1105 51.4478C60.9286 51.3948 60.7543 51.3366 60.5774 51.2659C59.5495 50.8918 58.5548 50.4321 57.6038 49.8915C57.4522 49.8082 57.2981 49.7147 57.1465 49.6212C57.0404 49.5631 56.9293 49.4924 56.8232 49.4267L56.5528 49.2498C56.4063 49.1564 56.2648 49.0578 56.1183 48.9568C55.3126 48.41 54.5522 47.7991 53.8445 47.1302C53.7096 47.0138 53.5806 46.8907 53.458 46.7613C53.3984 46.7136 53.3434 46.6603 53.2938 46.6022C53.1776 46.4859 53.0639 46.3748 52.9527 46.251C52.8415 46.1272 52.7001 45.9983 52.5838 45.8467C51.9463 45.1395 51.3627 44.3853 50.8381 43.5907C50.7219 43.4189 50.6158 43.2496 50.5097 43.0854C50.492 43.0576 50.4743 43.0348 50.4566 43.0045C50.3278 42.7999 50.204 42.6054 50.0928 42.3931C49.9917 42.2112 49.8932 42.0344 49.7972 41.8474C49.409 41.1212 49.0714 40.3691 48.7866 39.5964C48.6856 39.3438 48.5921 39.0734 48.5087 38.8107C48.3976 38.4797 48.299 38.1462 48.2106 37.8001C48.2106 37.8001 48.2106 37.7723 48.198 37.7648C48.1399 37.5298 48.0818 37.3075 48.0287 37.0776C47.6924 35.6099 47.5229 34.109 47.5234 32.6033V8.9308C47.2228 8.76658 46.9474 8.60742 46.6998 8.46594L46.4649 8.92322V32.6033C46.4619 34.3608 46.6835 36.1114 47.1243 37.8128C47.1243 37.8885 47.1596 37.9593 47.1748 38.0351C47.2405 38.27 47.3062 38.505 47.382 38.74C47.824 40.202 48.4308 41.609 49.1909 42.9338C49.3071 43.146 49.4309 43.3507 49.5597 43.5578C49.5826 43.5986 49.6088 43.6375 49.638 43.674C50.3251 44.7874 51.1196 45.8308 52.0103 46.7891C52.1872 46.9761 52.3615 47.163 52.551 47.3525C52.5649 47.3689 52.5801 47.3841 52.5965 47.398C53.6889 48.4914 54.8988 49.4607 56.2042 50.2882C56.2294 50.2996 56.2532 50.314 56.2749 50.3311C56.5149 50.4827 56.7625 50.6343 57.0152 50.7707C58.1558 51.424 59.3552 51.9687 60.5976 52.3978C60.7214 52.4382 60.8376 52.4786 60.9614 52.514L61.0397 52.5392C61.252 52.61 61.4617 52.6731 61.6789 52.7312C63.2689 53.1819 64.9081 53.4365 66.56 53.4891H66.7014C66.8303 53.4891 66.9541 53.4891 67.0905 53.4891H67.4947C69.325 53.4764 71.1443 53.2051 72.8987 52.6832C73.1387 52.615 73.3737 52.5367 73.6087 52.4559C73.639 52.4432 73.6743 52.4382 73.7097 52.4205C75.0344 51.9654 76.3052 51.3664 77.4993 50.6343C77.752 50.4827 78.0046 50.3286 78.237 50.1593C78.3608 50.076 78.4897 49.9951 78.6034 49.9067C78.717 49.8183 78.8383 49.7298 78.9596 49.6541C79.9924 48.883 80.9485 48.0141 81.8144 47.0594C81.8321 47.0342 81.8574 47.019 81.8675 47.0013C82.0393 46.8068 82.2035 46.6173 82.3728 46.4177C83.2526 45.367 84.015 44.2233 84.6465 43.0071C84.6702 42.9586 84.6963 42.9113 84.7249 42.8656C84.8284 42.6483 84.9346 42.4361 85.0356 42.2188C85.5572 41.0946 85.9667 39.9217 86.2584 38.7172V38.6591C86.2584 38.6414 86.2584 38.6237 86.271 38.6111C86.3822 38.1462 86.4757 37.6763 86.559 37.2014C86.7279 36.1504 86.8124 35.0876 86.8117 34.0231V9.59272L86.6348 9.20365Z" fill="white"/>
</svg>
